<svg xmlns="http://www.w3.org/2000/svg" xmlns:xlink="http://www.w3.org/1999/xlink" version="1.1" x="0" y="0" height="2770" width="768.0" viewBox="0 0 819.2 2680" preserveAspectRatio="none"  >
<g  >
<line x1="10" y1="35" x2="778.0" y2="35" style="stroke-width:1; stroke:grey; "  />
</g>
<g id="q1_34_0"  >
<polygon points="41,40 48.0,40 53,35.0 48.0,30 41,30 41,40 " style="fill:rgb(212.5,42.5,42.5); stroke-width:1; stroke:black; "  />
</g>
<g id="q1_34_1"  >
<polygon points="55,40 57.0,40 62,35.0 57.0,30 55,30 55,40 " style="fill:#FFFFFF; stroke-width:1; stroke:black; "  />
</g>
<g id="q1_34_2"  >
<polygon points="63,40 67.0,40 72,35.0 67.0,30 63,30 63,40 " style="fill:rgb(127.5,127.5,42.5); stroke-width:1; stroke:black; "  />
</g>
<g id="q1_34_3"  >
<polygon points="72,35.0 77.0,30 86,30 86,40 77.0,40 72,35.0 " style="fill:rgb(127.5,42.5,42.5); stroke-width:1; stroke:black; "  />
</g>
<g id="q1_34_4"  >
<polygon points="87,35.0 92.0,30 119,30 119,40 92.0,40 87,35.0 " style="fill:rgb(42.5,212.5,42.5); stroke-width:1; stroke:black; "  />
</g>
<g id="q1_34_5"  >
<polygon points="123,40 127.0,40 132,35.0 127.0,30 123,30 123,40 " style="fill:rgb(127.5,127.5,42.5); stroke-width:1; stroke:black; "  />
</g>
<g id="q1_34_6"  >
<polygon points="138,35.0 143.0,30 160,30 160,40 143.0,40 138,35.0 " style="fill:rgb(42.5,127.5,212.5); stroke-width:1; stroke:black; "  />
</g>
<g id="q1_34_7"  >
<polygon points="161,40 168.0,40 173,35.0 168.0,30 161,30 161,40 " style="fill:rgb(42.5,42.5,42.5); stroke-width:1; stroke:black; "  />
</g>
<g id="q1_34_8"  >
<polygon points="173,40 190.0,40 195,35.0 190.0,30 173,30 173,40 " style="fill:rgb(212.5,212.5,42.5); stroke-width:1; stroke:black; "  />
</g>
<g id="q1_34_9"  >
<polygon points="195,40 198,35.0 195,30 195,40 " style="fill:rgb(42.5,42.5,127.5); stroke-width:1; stroke:black; "  />
</g>
<g id="q1_34_10"  >
<polygon points="198,40 202.0,40 207,35.0 202.0,30 198,30 198,40 " style="fill:rgb(212.5,42.5,127.5); stroke-width:1; stroke:black; "  />
</g>
<g id="q1_34_11"  >
<polygon points="207,40 215.0,40 220,35.0 215.0,30 207,30 207,40 " style="fill:rgb(127.5,127.5,212.5); stroke-width:1; stroke:black; "  />
</g>
<g id="q1_34_12"  >
<polygon points="220,40 421.0,40 426,35.0 421.0,30 220,30 220,40 " style="fill:rgb(42.5,212.5,212.5); stroke-width:1; stroke:black; "  />
</g>
<g id="q1_34_13"  >
<polygon points="427,40 552.0,40 557,35.0 552.0,30 427,30 427,40 " style="fill:rgb(42.5,212.5,212.5); stroke-width:1; stroke:black; "  />
</g>
<g id="q1_34_14"  >
<polygon points="557,40 588.0,40 593,35.0 588.0,30 557,30 557,40 " style="fill:rgb(42.5,212.5,212.5); stroke-width:1; stroke:black; "  />
</g>
<g id="q1_34_15"  >
<polygon points="593,35.0 598.0,30 602,30 602,40 598.0,40 593,35.0 " style="fill:rgb(212.5,42.5,212.5); stroke-width:1; stroke:black; "  />
</g>
<g id="q1_34_16"  >
<polygon points="603,40 615.0,40 620,35.0 615.0,30 603,30 603,40 " style="fill:rgb(42.5,42.5,212.5); stroke-width:1; stroke:black; "  />
</g>
<g id="q1_34_17"  >
<polygon points="620,40 627.0,40 632,35.0 627.0,30 620,30 620,40 " style="fill:rgb(212.5,212.5,212.5); stroke-width:1; stroke:black; "  />
</g>
<g id="q1_34_18"  >
<polygon points="633,40 648.0,40 653,35.0 648.0,30 633,30 633,40 " style="fill:rgb(212.5,212.5,127.5); stroke-width:1; stroke:black; "  />
</g>
<g id="q1_34_19"  >
<polygon points="653,40 659.0,40 664,35.0 659.0,30 653,30 653,40 " style="fill:rgb(42.5,127.5,42.5); stroke-width:1; stroke:black; "  />
</g>
<g id="q1_34_20"  >
<polygon points="664,40 669.0,40 674,35.0 669.0,30 664,30 664,40 " style="fill:rgb(127.5,127.5,127.5); stroke-width:1; stroke:black; "  />
</g>
<g id="q1_34_21"  >
<polygon points="674,40 688.0,40 693,35.0 688.0,30 674,30 674,40 " style="fill:rgb(42.5,212.5,127.5); stroke-width:1; stroke:black; "  />
</g>
<g id="q1_34_22"  >
<polygon points="693,40 702.0,40 707,35.0 702.0,30 693,30 693,40 " style="fill:rgb(127.5,42.5,42.5); stroke-width:1; stroke:black; "  />
</g>
<g id="q1_34_23"  >
<polygon points="707,40 710,35.0 707,30 707,40 " style="fill:rgb(127.5,42.5,127.5); stroke-width:1; stroke:black; "  />
</g>
<g id="q1_34_24"  >
<polygon points="710,35.0 715.0,30 717,30 717,40 715.0,40 710,35.0 " style="fill:rgb(42.5,127.5,127.5); stroke-width:1; stroke:black; "  />
</g>
<g id="q1_34_25"  >
<polygon points="718,40 724.0,40 729,35.0 724.0,30 718,30 718,40 " style="fill:rgb(212.5,127.5,42.5); stroke-width:1; stroke:black; "  />
</g>
<g id="q1_34_26"  >
<polygon points="727,35.0 732.0,30 738,30 738,40 732.0,40 727,35.0 " style="fill:rgb(42.5,212.5,212.5); stroke-width:1; stroke:black; "  />
</g>
<g id="q1_34_27"  >
<polygon points="739,40 741.0,40 746,35.0 741.0,30 739,30 739,40 " style="fill:rgb(212.5,127.5,212.5); stroke-width:1; stroke:black; "  />
</g>
<g  >
<line x1="10" y1="85" x2="778.0" y2="85" style="stroke-width:1; stroke:grey; "  />
</g>
<g id="h1_34_0"  >
<polygon points="10,90 13,85.0 10,80 10,90 " style="fill:#FFFFFF; stroke-width:1; stroke:black; "  />
</g>
<g id="h1_34_1"  >
<polygon points="14,90 17.0,90 22,85.0 17.0,80 14,80 14,90 " style="fill:#FFFFFF; stroke-width:1; stroke:black; "  />
</g>
<g id="h1_34_2"  >
<polygon points="23,90 28.0,90 33,85.0 28.0,80 23,80 23,90 " style="fill:#FFFFFF; stroke-width:1; stroke:black; "  />
</g>
<g id="h1_34_3"  >
<polygon points="33,90 35.0,90 40,85.0 35.0,80 33,80 33,90 " style="fill:#FFFFFF; stroke-width:1; stroke:black; "  />
</g>
<g id="h1_34_4"  >
<polygon points="40,90 42.0,90 47,85.0 42.0,80 40,80 40,90 " style="fill:#FFFFFF; stroke-width:1; stroke:black; "  />
</g>
<g id="h1_34_5"  >
<polygon points="48,85.0 53.0,80 71,80 71,90 53.0,90 48,85.0 " style="fill:#FFFFFF; stroke-width:1; stroke:black; "  />
</g>
<g id="h1_34_6"  >
<polygon points="73,85.0 78.0,80 82,80 82,90 78.0,90 73,85.0 " style="fill:rgb(42.5,212.5,127.5); stroke-width:1; stroke:black; "  />
</g>
<g id="h1_34_7"  >
<polygon points="82,85.0 87.0,80 91,80 91,90 87.0,90 82,85.0 " style="fill:#FFFFFF; stroke-width:1; stroke:black; "  />
</g>
<g id="h1_34_8"  >
<polygon points="91,85.0 96.0,80 105,80 105,90 96.0,90 91,85.0 " style="fill:#FFFFFF; stroke-width:1; stroke:black; "  />
</g>
<g id="h1_34_9"  >
<polygon points="105,85.0 110.0,80 115,80 115,90 110.0,90 105,85.0 " style="fill:#FFFFFF; stroke-width:1; stroke:black; "  />
</g>
<g id="h1_34_10"  >
<polygon points="116,85.0 121.0,80 131,80 131,90 121.0,90 116,85.0 " style="fill:#FFFFFF; stroke-width:1; stroke:black; "  />
</g>
<g id="h1_34_11"  >
<polygon points="136,85.0 141.0,80 150,80 150,90 141.0,90 136,85.0 " style="fill:#FFFFFF; stroke-width:1; stroke:black; "  />
</g>
<g id="h1_34_12"  >
<polygon points="151,90 151.0,90 156,85.0 151.0,80 151,80 151,90 " style="fill:#FFFFFF; stroke-width:1; stroke:black; "  />
</g>
<g id="h1_34_13"  >
<polygon points="160,90 163,85.0 160,80 160,90 " style="fill:#FFFFFF; stroke-width:1; stroke:black; "  />
</g>
<g id="h1_34_14"  >
<polygon points="165,85.0 170.0,80 174,80 174,90 170.0,90 165,85.0 " style="fill:#FFFFFF; stroke-width:1; stroke:black; "  />
</g>
<g id="h1_34_15"  >
<polygon points="174,85.0 178,80 178,90 174,85.0 " style="fill:#FFFFFF; stroke-width:1; stroke:black; "  />
</g>
<g id="h1_34_16"  >
<polygon points="178,85.0 183.0,80 188,80 188,90 183.0,90 178,85.0 " style="fill:#FFFFFF; stroke-width:1; stroke:black; "  />
</g>
<g id="h1_34_17"  >
<polygon points="188,85.0 193.0,80 197,80 197,90 193.0,90 188,85.0 " style="fill:#FFFFFF; stroke-width:1; stroke:black; "  />
</g>
<g id="h1_34_18"  >
<polygon points="197,85.0 202.0,80 205,80 205,90 202.0,90 197,85.0 " style="fill:#FFFFFF; stroke-width:1; stroke:black; "  />
</g>
<g id="h1_34_19"  >
<polygon points="205,85.0 210.0,80 225,80 225,90 210.0,90 205,85.0 " style="fill:#FFFFFF; stroke-width:1; stroke:black; "  />
</g>
<g id="h1_34_20"  >
<polygon points="225,85.0 229,80 229,90 225,85.0 " style="fill:#FFFFFF; stroke-width:1; stroke:black; "  />
</g>
<g id="h1_34_21"  >
<polygon points="229,85.0 233,80 233,90 229,85.0 " style="fill:#FFFFFF; stroke-width:1; stroke:black; "  />
</g>
<g id="h1_34_22"  >
<polygon points="242,90 248.0,90 253,85.0 248.0,80 242,80 242,90 " style="fill:#FFFFFF; stroke-width:1; stroke:black; "  />
</g>
<g id="h1_34_23"  >
<polygon points="253,90 257.0,90 262,85.0 257.0,80 253,80 253,90 " style="fill:#FFFFFF; stroke-width:1; stroke:black; "  />
</g>
<g id="h1_34_24"  >
<polygon points="262,90 266.0,90 271,85.0 266.0,80 262,80 262,90 " style="fill:rgb(42.5,212.5,127.5); stroke-width:1; stroke:black; "  />
</g>
<g id="h1_34_25"  >
<polygon points="272,85.0 277.0,80 278,80 278,90 277.0,90 272,85.0 " style="fill:#FFFFFF; stroke-width:1; stroke:black; "  />
</g>
<g id="h1_34_26"  >
<polygon points="279,85.0 284.0,80 305,80 305,90 284.0,90 279,85.0 " style="fill:#FFFFFF; stroke-width:1; stroke:black; "  />
</g>
<g id="h1_34_27"  >
<polygon points="306,85.0 311.0,80 326,80 326,90 311.0,90 306,85.0 " style="fill:#FFFFFF; stroke-width:1; stroke:black; "  />
</g>
<g id="h1_34_28"  >
<polygon points="325,85.0 330.0,80 336,80 336,90 330.0,90 325,85.0 " style="fill:rgb(42.5,212.5,127.5); stroke-width:1; stroke:black; "  />
</g>
<g id="h1_34_29"  >
<polygon points="337,90 342.0,90 347,85.0 342.0,80 337,80 337,90 " style="fill:#FFFFFF; stroke-width:1; stroke:black; "  />
</g>
<g id="h1_34_30"  >
<polygon points="347,85.0 352.0,80 363,80 363,90 352.0,90 347,85.0 " style="fill:#FFFFFF; stroke-width:1; stroke:black; "  />
</g>
<g id="h1_34_31"  >
<polygon points="364,85.0 369.0,80 382,80 382,90 369.0,90 364,85.0 " style="fill:#FFFFFF; stroke-width:1; stroke:black; "  />
</g>
<g id="h1_34_32"  >
<polygon points="385,90 386.0,90 391,85.0 386.0,80 385,80 385,90 " style="fill:#FFFFFF; stroke-width:1; stroke:black; "  />
</g>
<g id="h1_34_33"  >
<polygon points="392,85.0 395,80 395,90 392,85.0 " style="fill:#FFFFFF; stroke-width:1; stroke:black; "  />
</g>
<g id="h1_34_34"  >
<polygon points="401,90 405,85.0 401,80 401,90 " style="fill:#FFFFFF; stroke-width:1; stroke:black; "  />
</g>
<g id="h1_34_35"  >
<polygon points="405,90 425.0,90 430,85.0 425.0,80 405,80 405,90 " style="fill:#FFFFFF; stroke-width:1; stroke:black; "  />
</g>
<g id="h1_34_36"  >
<polygon points="432,90 436,85.0 432,80 432,90 " style="fill:#FFFFFF; stroke-width:1; stroke:black; "  />
</g>
<g id="h1_34_37"  >
<polygon points="437,85.0 442.0,80 451,80 451,90 442.0,90 437,85.0 " style="fill:#FFFFFF; stroke-width:1; stroke:black; "  />
</g>
<g id="h1_34_38"  >
<polygon points="453,90 459.0,90 464,85.0 459.0,80 453,80 453,90 " style="fill:#FFFFFF; stroke-width:1; stroke:black; "  />
</g>
<g id="h1_34_39"  >
<polygon points="464,90 469.0,90 474,85.0 469.0,80 464,80 464,90 " style="fill:#FFFFFF; stroke-width:1; stroke:black; "  />
</g>
<g id="h1_34_40"  >
<polygon points="474,90 477.0,90 482,85.0 477.0,80 474,80 474,90 " style="fill:rgb(42.5,212.5,127.5); stroke-width:1; stroke:black; "  />
</g>
<g id="h1_34_41"  >
<polygon points="483,85.0 488.0,80 497,80 497,90 488.0,90 483,85.0 " style="fill:#FFFFFF; stroke-width:1; stroke:black; "  />
</g>
<g id="h1_34_42"  >
<polygon points="497,85.0 499,80 499,90 497,85.0 " style="fill:#FFFFFF; stroke-width:1; stroke:black; "  />
</g>
<g id="h1_34_43"  >
<polygon points="502,90 524.0,90 529,85.0 524.0,80 502,80 502,90 " style="fill:#FFFFFF; stroke-width:1; stroke:black; "  />
</g>
<g id="h1_34_44"  >
<polygon points="530,90 531.0,90 536,85.0 531.0,80 530,80 530,90 " style="fill:#FFFFFF; stroke-width:1; stroke:black; "  />
</g>
<g id="h1_34_45"  >
<polygon points="536,85.0 541.0,80 548,80 548,90 541.0,90 536,85.0 " style="fill:#FFFFFF; stroke-width:1; stroke:black; "  />
</g>
<g id="h1_34_46"  >
<polygon points="547,85.0 552.0,80 560,80 560,90 552.0,90 547,85.0 " style="fill:#FFFFFF; stroke-width:1; stroke:black; "  />
</g>
<g id="h1_34_47"  >
<polygon points="562,85.0 567.0,80 567,80 567,90 567.0,90 562,85.0 " style="fill:#FFFFFF; stroke-width:1; stroke:black; "  />
</g>
<g id="h1_34_48"  >
<polygon points="567,85.0 572.0,80 578,80 578,90 572.0,90 567,85.0 " style="fill:#FFFFFF; stroke-width:1; stroke:black; "  />
</g>
<g id="h1_34_49"  >
<polygon points="580,85.0 585.0,80 613,80 613,90 585.0,90 580,85.0 " style="fill:#FFFFFF; stroke-width:1; stroke:black; "  />
</g>
<g id="h1_34_50"  >
<polygon points="614,90 618.0,90 623,85.0 618.0,80 614,80 614,90 " style="fill:#FFFFFF; stroke-width:1; stroke:black; "  />
</g>
<g id="h1_34_51"  >
<polygon points="626,85.0 631.0,80 636,80 636,90 631.0,90 626,85.0 " style="fill:#FFFFFF; stroke-width:1; stroke:black; "  />
</g>
<g id="h1_34_52"  >
<polygon points="641,90 667.0,90 672,85.0 667.0,80 641,80 641,90 " style="fill:#FFFFFF; stroke-width:1; stroke:black; "  />
</g>
<g id="h1_34_53"  >
<polygon points="672,90 673,85.0 672,80 672,90 " style="fill:#FFFFFF; stroke-width:1; stroke:black; "  />
</g>
<g id="h1_34_54"  >
<polygon points="674,90 690.0,90 695,85.0 690.0,80 674,80 674,90 " style="fill:#FFFFFF; stroke-width:1; stroke:black; "  />
</g>
<g id="h1_34_55"  >
<polygon points="695,90 711.0,90 716,85.0 711.0,80 695,80 695,90 " style="fill:rgb(42.5,212.5,127.5); stroke-width:1; stroke:black; "  />
</g>
<g id="h1_34_56"  >
<polygon points="721,90 722,85.0 721,80 721,90 " style="fill:#FFFFFF; stroke-width:1; stroke:black; "  />
</g>
<g id="h1_34_57"  >
<polygon points="724,85.0 729.0,80 731,80 731,90 729.0,90 724,85.0 " style="fill:#FFFFFF; stroke-width:1; stroke:black; "  />
</g>
<g id="h1_34_58"  >
<polygon points="732,85.0 737.0,80 739,80 739,90 737.0,90 732,85.0 " style="fill:#FFFFFF; stroke-width:1; stroke:black; "  />
</g>
<g id="h1_34_59"  >
<polygon points="745,85.0 750.0,80 756,80 756,90 750.0,90 745,85.0 " style="fill:#FFFFFF; stroke-width:1; stroke:black; "  />
</g>
<g id="h1_34_60"  >
<polygon points="756,85.0 760,80 760,90 756,85.0 " style="fill:#FFFFFF; stroke-width:1; stroke:black; "  />
</g>
<g id="h1_34_61"  >
<polygon points="762,85.0 765,80 765,90 762,85.0 " style="fill:#FFFFFF; stroke-width:1; stroke:black; "  />
</g>
<g id="h1_34_62"  >
<polygon points="766,85.0 771.0,80 778,80 778,90 771.0,90 766,85.0 " style="fill:#FFFFFF; stroke-width:1; stroke:black; "  />
</g>
</svg>
