<svg xmlns="http://www.w3.org/2000/svg" xmlns:xlink="http://www.w3.org/1999/xlink" version="1.1" x="0" y="0" height="2770" width="768.0" viewBox="0 0 819.2 2680" preserveAspectRatio="none"  >
<g  >
<line x1="10" y1="35" x2="778.0" y2="35" style="stroke-width:1; stroke:grey; "  />
</g>
<g id="q2_86_0"  >
<polygon points="10,40 19.0,40 24,35.0 19.0,30 10,30 10,40 " style="fill:#FFFFFF; stroke-width:1; stroke:black; "  />
</g>
<g id="q2_86_1"  >
<polygon points="25,40 28.0,40 33,35.0 28.0,30 25,30 25,40 " style="fill:#FFFFFF; stroke-width:1; stroke:black; "  />
</g>
<g id="q2_86_2"  >
<polygon points="34,40 39.0,40 44,35.0 39.0,30 34,30 34,40 " style="fill:rgb(191.25,63.75,63.75); stroke-width:1; stroke:black; "  />
</g>
<g id="q2_86_3"  >
<polygon points="44,35.0 49.0,30 59,30 59,40 49.0,40 44,35.0 " style="fill:#FFFFFF; stroke-width:1; stroke:black; "  />
</g>
<g id="q2_86_4"  >
<polygon points="60,35.0 65.0,30 95,30 95,40 65.0,40 60,35.0 " style="fill:rgb(63.75,63.75,191.25); stroke-width:1; stroke:black; "  />
</g>
<g id="q2_86_5"  >
<polygon points="99,40 104.0,40 109,35.0 104.0,30 99,30 99,40 " style="fill:#FFFFFF; stroke-width:1; stroke:black; "  />
</g>
<g id="q2_86_6"  >
<polygon points="115,35.0 120.0,30 139,30 139,40 120.0,40 115,35.0 " style="fill:#FFFFFF; stroke-width:1; stroke:black; "  />
</g>
<g id="q2_86_7"  >
<polygon points="140,40 149.0,40 154,35.0 149.0,30 140,30 140,40 " style="fill:#FFFFFF; stroke-width:1; stroke:black; "  />
</g>
<g id="q2_86_8"  >
<polygon points="154,40 173.0,40 178,35.0 173.0,30 154,30 154,40 " style="fill:#FFFFFF; stroke-width:1; stroke:black; "  />
</g>
<g id="q2_86_9"  >
<polygon points="178,40 181,35.0 178,30 178,40 " style="fill:#FFFFFF; stroke-width:1; stroke:black; "  />
</g>
<g id="q2_86_10"  >
<polygon points="181,40 186.0,40 191,35.0 186.0,30 181,30 181,40 " style="fill:#FFFFFF; stroke-width:1; stroke:black; "  />
</g>
<g id="q2_86_11"  >
<polygon points="191,40 199.0,40 204,35.0 199.0,30 191,30 191,40 " style="fill:#FFFFFF; stroke-width:1; stroke:black; "  />
</g>
<g id="q2_86_12"  >
<polygon points="204,40 424.0,40 429,35.0 424.0,30 204,30 204,40 " style="fill:rgb(63.75,191.25,63.75); stroke-width:1; stroke:black; "  />
</g>
<g id="q2_86_13"  >
<polygon points="430,40 567.0,40 572,35.0 567.0,30 430,30 430,40 " style="fill:#FFFFFF; stroke-width:1; stroke:black; "  />
</g>
<g id="q2_86_14"  >
<polygon points="572,40 605.0,40 610,35.0 605.0,30 572,30 572,40 " style="fill:#FFFFFF; stroke-width:1; stroke:black; "  />
</g>
<g id="q2_86_15"  >
<polygon points="611,35.0 616.0,30 620,30 620,40 616.0,40 611,35.0 " style="fill:rgb(191.25,63.75,191.25); stroke-width:1; stroke:black; "  />
</g>
<g id="q2_86_16"  >
<polygon points="621,40 634.0,40 639,35.0 634.0,30 621,30 621,40 " style="fill:#FFFFFF; stroke-width:1; stroke:black; "  />
</g>
<g id="q2_86_17"  >
<polygon points="640,40 648.0,40 653,35.0 648.0,30 640,30 640,40 " style="fill:#FFFFFF; stroke-width:1; stroke:black; "  />
</g>
<g id="q2_86_18"  >
<polygon points="655,40 671.0,40 676,35.0 671.0,30 655,30 655,40 " style="fill:#FFFFFF; stroke-width:1; stroke:black; "  />
</g>
<g id="q2_86_19"  >
<polygon points="675,40 683.0,40 688,35.0 683.0,30 675,30 675,40 " style="fill:#FFFFFF; stroke-width:1; stroke:black; "  />
</g>
<g id="q2_86_20"  >
<polygon points="688,40 694.0,40 699,35.0 694.0,30 688,30 688,40 " style="fill:#FFFFFF; stroke-width:1; stroke:black; "  />
</g>
<g id="q2_86_21"  >
<polygon points="698,40 714.0,40 719,35.0 714.0,30 698,30 698,40 " style="fill:rgb(191.25,191.25,63.75); stroke-width:1; stroke:black; "  />
</g>
<g id="q2_86_22"  >
<polygon points="719,40 730.0,40 735,35.0 730.0,30 719,30 719,40 " style="fill:rgb(191.25,191.25,191.25); stroke-width:1; stroke:black; "  />
</g>
<g id="q2_86_23"  >
<polygon points="734,40 737,35.0 734,30 734,40 " style="fill:#FFFFFF; stroke-width:1; stroke:black; "  />
</g>
<g id="q2_86_24"  >
<polygon points="737,35.0 742.0,30 745,30 745,40 742.0,40 737,35.0 " style="fill:rgb(63.75,191.25,191.25); stroke-width:1; stroke:black; "  />
</g>
<g id="q2_86_25"  >
<polygon points="747,40 753.0,40 758,35.0 753.0,30 747,30 747,40 " style="fill:#FFFFFF; stroke-width:1; stroke:black; "  />
</g>
<g id="q2_86_26"  >
<polygon points="757,35.0 762.0,30 769,30 769,40 762.0,40 757,35.0 " style="fill:#FFFFFF; stroke-width:1; stroke:black; "  />
</g>
<g id="q2_86_27"  >
<polygon points="770,40 773.0,40 778,35.0 773.0,30 770,30 770,40 " style="fill:rgb(63.75,63.75,63.75); stroke-width:1; stroke:black; "  />
</g>
<g  >
<line x1="10" y1="85" x2="778.0" y2="85" style="stroke-width:1; stroke:grey; "  />
</g>
<g id="h2_86_0"  >
<polygon points="128,90 133.0,90 138,85.0 133.0,80 128,80 128,90 " style="fill:#FFFFFF; stroke-width:1; stroke:black; "  />
</g>
<g id="h2_86_1"  >
<polygon points="139,85.0 144.0,80 162,80 162,90 144.0,90 139,85.0 " style="fill:#FFFFFF; stroke-width:1; stroke:black; "  />
</g>
<g id="h2_86_2"  >
<polygon points="166,90 169.0,90 174,85.0 169.0,80 166,80 166,90 " style="fill:#FFFFFF; stroke-width:1; stroke:black; "  />
</g>
<g id="h2_86_3"  >
<polygon points="174,85.0 179.0,80 179,80 179,90 179.0,90 174,85.0 " style="fill:#FFFFFF; stroke-width:1; stroke:black; "  />
</g>
<g id="h2_86_4"  >
<polygon points="181,85.0 184,80 184,90 181,85.0 " style="fill:#FFFFFF; stroke-width:1; stroke:black; "  />
</g>
<g id="h2_86_5"  >
<polygon points="184,85.0 189.0,80 195,80 195,90 189.0,90 184,85.0 " style="fill:#FFFFFF; stroke-width:1; stroke:black; "  />
</g>
<g id="h2_86_6"  >
<polygon points="203,90 206,85.0 203,80 203,90 " style="fill:#FFFFFF; stroke-width:1; stroke:black; "  />
</g>
<g id="h2_86_7"  >
<polygon points="208,90 209.0,90 214,85.0 209.0,80 208,80 208,90 " style="fill:#FFFFFF; stroke-width:1; stroke:black; "  />
</g>
<g id="h2_86_8"  >
<polygon points="214,85.0 219.0,80 224,80 224,90 219.0,90 214,85.0 " style="fill:#FFFFFF; stroke-width:1; stroke:black; "  />
</g>
<g id="h2_86_9"  >
<polygon points="225,85.0 230.0,80 233,80 233,90 230.0,90 225,85.0 " style="fill:#FFFFFF; stroke-width:1; stroke:black; "  />
</g>
<g id="h2_86_10"  >
<polygon points="235,90 249.0,90 254,85.0 249.0,80 235,80 235,90 " style="fill:#FFFFFF; stroke-width:1; stroke:black; "  />
</g>
<g id="h2_86_11"  >
<polygon points="254,85.0 259.0,80 273,80 273,90 259.0,90 254,85.0 " style="fill:#FFFFFF; stroke-width:1; stroke:black; "  />
</g>
<g id="h2_86_12"  >
<polygon points="277,85.0 282.0,80 285,80 285,90 282.0,90 277,85.0 " style="fill:#FFFFFF; stroke-width:1; stroke:black; "  />
</g>
<g id="h2_86_13"  >
<polygon points="286,90 288.0,90 293,85.0 288.0,80 286,80 286,90 " style="fill:#FFFFFF; stroke-width:1; stroke:black; "  />
</g>
<g id="h2_86_14"  >
<polygon points="295,85.0 300.0,80 319,80 319,90 300.0,90 295,85.0 " style="fill:#FFFFFF; stroke-width:1; stroke:black; "  />
</g>
<g id="h2_86_15"  >
<polygon points="320,85.0 325.0,80 335,80 335,90 325.0,90 320,85.0 " style="fill:#FFFFFF; stroke-width:1; stroke:black; "  />
</g>
<g id="h2_86_16"  >
<polygon points="336,85.0 341.0,80 356,80 356,90 341.0,90 336,85.0 " style="fill:#FFFFFF; stroke-width:1; stroke:black; "  />
</g>
<g id="h2_86_17"  >
<polygon points="359,85.0 364.0,80 371,80 371,90 364.0,90 359,85.0 " style="fill:#FFFFFF; stroke-width:1; stroke:black; "  />
</g>
<g id="h2_86_18"  >
<polygon points="371,85.0 376.0,80 389,80 389,90 376.0,90 371,85.0 " style="fill:#FFFFFF; stroke-width:1; stroke:black; "  />
</g>
<g id="h2_86_19"  >
<polygon points="392,85.0 397.0,80 400,80 400,90 397.0,90 392,85.0 " style="fill:rgb(191.25,63.75,191.25); stroke-width:1; stroke:black; "  />
</g>
<g id="h2_86_20"  >
<polygon points="403,85.0 408.0,80 414,80 414,90 408.0,90 403,85.0 " style="fill:#FFFFFF; stroke-width:1; stroke:black; "  />
</g>
<g id="h2_86_21"  >
<polygon points="417,90 427.0,90 432,85.0 427.0,80 417,80 417,90 " style="fill:#FFFFFF; stroke-width:1; stroke:black; "  />
</g>
<g id="h2_86_22"  >
<polygon points="433,85.0 438.0,80 443,80 443,90 438.0,90 433,85.0 " style="fill:#FFFFFF; stroke-width:1; stroke:black; "  />
</g>
<g id="h2_86_23"  >
<polygon points="445,90 448.0,90 453,85.0 448.0,80 445,80 445,90 " style="fill:#FFFFFF; stroke-width:1; stroke:black; "  />
</g>
<g id="h2_86_24"  >
<polygon points="461,90 463,85.0 461,80 461,90 " style="fill:#FFFFFF; stroke-width:1; stroke:black; "  />
</g>
<g id="h2_86_25"  >
<polygon points="464,85.0 469.0,80 470,80 470,90 469.0,90 464,85.0 " style="fill:#FFFFFF; stroke-width:1; stroke:black; "  />
</g>
<g id="h2_86_26"  >
<polygon points="472,90 483.0,90 488,85.0 483.0,80 472,80 472,90 " style="fill:#FFFFFF; stroke-width:1; stroke:black; "  />
</g>
<g id="h2_86_27"  >
<polygon points="488,90 491.0,90 496,85.0 491.0,80 488,80 488,90 " style="fill:#FFFFFF; stroke-width:1; stroke:black; "  />
</g>
<g id="h2_86_28"  >
<polygon points="497,90 514.0,90 519,85.0 514.0,80 497,80 497,90 " style="fill:#FFFFFF; stroke-width:1; stroke:black; "  />
</g>
<g id="h2_86_29"  >
<polygon points="521,90 521.0,90 526,85.0 521.0,80 521,80 521,90 " style="fill:#FFFFFF; stroke-width:1; stroke:black; "  />
</g>
<g id="h2_86_30"  >
<polygon points="526,90 527.0,90 532,85.0 527.0,80 526,80 526,90 " style="fill:#FFFFFF; stroke-width:1; stroke:black; "  />
</g>
<g id="h2_86_31"  >
<polygon points="532,90 535.0,90 540,85.0 535.0,80 532,80 532,90 " style="fill:#FFFFFF; stroke-width:1; stroke:black; "  />
</g>
<g id="h2_86_32"  >
<polygon points="541,85.0 546.0,80 548,80 548,90 546.0,90 541,85.0 " style="fill:#FFFFFF; stroke-width:1; stroke:black; "  />
</g>
<g id="h2_86_33"  >
<polygon points="549,85.0 552,80 552,90 549,85.0 " style="fill:#FFFFFF; stroke-width:1; stroke:black; "  />
</g>
<g id="h2_86_34"  >
<polygon points="553,85.0 558.0,80 561,80 561,90 558.0,90 553,85.0 " style="fill:#FFFFFF; stroke-width:1; stroke:black; "  />
</g>
<g id="h2_86_35"  >
<polygon points="564,90 617.0,90 622,85.0 617.0,80 564,80 564,90 " style="fill:#FFFFFF; stroke-width:1; stroke:black; "  />
</g>
<g id="h2_86_36"  >
<polygon points="623,85.0 628.0,80 633,80 633,90 628.0,90 623,85.0 " style="fill:#FFFFFF; stroke-width:1; stroke:black; "  />
</g>
<g id="h2_86_37"  >
<polygon points="634,90 641.0,90 646,85.0 641.0,80 634,80 634,90 " style="fill:#FFFFFF; stroke-width:1; stroke:black; "  />
</g>
<g id="h2_86_38"  >
<polygon points="654,90 658,85.0 654,80 654,90 " style="fill:#FFFFFF; stroke-width:1; stroke:black; "  />
</g>
</svg>
