<svg xmlns="http://www.w3.org/2000/svg" xmlns:xlink="http://www.w3.org/1999/xlink" version="1.1" x="0" y="0" height="2770" width="768.0" viewBox="0 0 819.2 2680" preserveAspectRatio="none"  >
<g  >
<line x1="10" y1="35" x2="778.0" y2="35" style="stroke-width:1; stroke:grey; "  />
</g>
<g id="q2_83_0"  >
<polygon points="10,40 19.0,40 24,35.0 19.0,30 10,30 10,40 " style="fill:#FFFFFF; stroke-width:1; stroke:black; "  />
</g>
<g id="q2_83_1"  >
<polygon points="25,40 28.0,40 33,35.0 28.0,30 25,30 25,40 " style="fill:#FFFFFF; stroke-width:1; stroke:black; "  />
</g>
<g id="q2_83_2"  >
<polygon points="34,40 39.0,40 44,35.0 39.0,30 34,30 34,40 " style="fill:rgb(191.25,63.75,63.75); stroke-width:1; stroke:black; "  />
</g>
<g id="q2_83_3"  >
<polygon points="44,35.0 49.0,30 59,30 59,40 49.0,40 44,35.0 " style="fill:#FFFFFF; stroke-width:1; stroke:black; "  />
</g>
<g id="q2_83_4"  >
<polygon points="60,35.0 65.0,30 95,30 95,40 65.0,40 60,35.0 " style="fill:rgb(63.75,63.75,191.25); stroke-width:1; stroke:black; "  />
</g>
<g id="q2_83_5"  >
<polygon points="99,40 104.0,40 109,35.0 104.0,30 99,30 99,40 " style="fill:#FFFFFF; stroke-width:1; stroke:black; "  />
</g>
<g id="q2_83_6"  >
<polygon points="115,35.0 120.0,30 139,30 139,40 120.0,40 115,35.0 " style="fill:#FFFFFF; stroke-width:1; stroke:black; "  />
</g>
<g id="q2_83_7"  >
<polygon points="140,40 149.0,40 154,35.0 149.0,30 140,30 140,40 " style="fill:#FFFFFF; stroke-width:1; stroke:black; "  />
</g>
<g id="q2_83_8"  >
<polygon points="154,40 173.0,40 178,35.0 173.0,30 154,30 154,40 " style="fill:#FFFFFF; stroke-width:1; stroke:black; "  />
</g>
<g id="q2_83_9"  >
<polygon points="178,40 181,35.0 178,30 178,40 " style="fill:#FFFFFF; stroke-width:1; stroke:black; "  />
</g>
<g id="q2_83_10"  >
<polygon points="181,40 186.0,40 191,35.0 186.0,30 181,30 181,40 " style="fill:#FFFFFF; stroke-width:1; stroke:black; "  />
</g>
<g id="q2_83_11"  >
<polygon points="191,40 199.0,40 204,35.0 199.0,30 191,30 191,40 " style="fill:#FFFFFF; stroke-width:1; stroke:black; "  />
</g>
<g id="q2_83_12"  >
<polygon points="204,40 424.0,40 429,35.0 424.0,30 204,30 204,40 " style="fill:rgb(63.75,191.25,63.75); stroke-width:1; stroke:black; "  />
</g>
<g id="q2_83_13"  >
<polygon points="430,40 567.0,40 572,35.0 567.0,30 430,30 430,40 " style="fill:#FFFFFF; stroke-width:1; stroke:black; "  />
</g>
<g id="q2_83_14"  >
<polygon points="572,40 605.0,40 610,35.0 605.0,30 572,30 572,40 " style="fill:#FFFFFF; stroke-width:1; stroke:black; "  />
</g>
<g id="q2_83_15"  >
<polygon points="611,35.0 616.0,30 620,30 620,40 616.0,40 611,35.0 " style="fill:rgb(191.25,63.75,191.25); stroke-width:1; stroke:black; "  />
</g>
<g id="q2_83_16"  >
<polygon points="621,40 634.0,40 639,35.0 634.0,30 621,30 621,40 " style="fill:#FFFFFF; stroke-width:1; stroke:black; "  />
</g>
<g id="q2_83_17"  >
<polygon points="640,40 648.0,40 653,35.0 648.0,30 640,30 640,40 " style="fill:#FFFFFF; stroke-width:1; stroke:black; "  />
</g>
<g id="q2_83_18"  >
<polygon points="655,40 671.0,40 676,35.0 671.0,30 655,30 655,40 " style="fill:#FFFFFF; stroke-width:1; stroke:black; "  />
</g>
<g id="q2_83_19"  >
<polygon points="675,40 683.0,40 688,35.0 683.0,30 675,30 675,40 " style="fill:#FFFFFF; stroke-width:1; stroke:black; "  />
</g>
<g id="q2_83_20"  >
<polygon points="688,40 694.0,40 699,35.0 694.0,30 688,30 688,40 " style="fill:#FFFFFF; stroke-width:1; stroke:black; "  />
</g>
<g id="q2_83_21"  >
<polygon points="698,40 714.0,40 719,35.0 714.0,30 698,30 698,40 " style="fill:rgb(191.25,191.25,63.75); stroke-width:1; stroke:black; "  />
</g>
<g id="q2_83_22"  >
<polygon points="719,40 730.0,40 735,35.0 730.0,30 719,30 719,40 " style="fill:rgb(191.25,191.25,191.25); stroke-width:1; stroke:black; "  />
</g>
<g id="q2_83_23"  >
<polygon points="734,40 737,35.0 734,30 734,40 " style="fill:#FFFFFF; stroke-width:1; stroke:black; "  />
</g>
<g id="q2_83_24"  >
<polygon points="737,35.0 742.0,30 745,30 745,40 742.0,40 737,35.0 " style="fill:rgb(63.75,191.25,191.25); stroke-width:1; stroke:black; "  />
</g>
<g id="q2_83_25"  >
<polygon points="747,40 753.0,40 758,35.0 753.0,30 747,30 747,40 " style="fill:#FFFFFF; stroke-width:1; stroke:black; "  />
</g>
<g id="q2_83_26"  >
<polygon points="757,35.0 762.0,30 769,30 769,40 762.0,40 757,35.0 " style="fill:#FFFFFF; stroke-width:1; stroke:black; "  />
</g>
<g id="q2_83_27"  >
<polygon points="770,40 773.0,40 778,35.0 773.0,30 770,30 770,40 " style="fill:rgb(63.75,63.75,63.75); stroke-width:1; stroke:black; "  />
</g>
<g  >
<line x1="10" y1="85" x2="778.0" y2="85" style="stroke-width:1; stroke:grey; "  />
</g>
<g id="h2_83_0"  >
<polygon points="110,90 127.0,90 132,85.0 127.0,80 110,80 110,90 " style="fill:#FFFFFF; stroke-width:1; stroke:black; "  />
</g>
<g id="h2_83_1"  >
<polygon points="132,90 135.0,90 140,85.0 135.0,80 132,80 132,90 " style="fill:#FFFFFF; stroke-width:1; stroke:black; "  />
</g>
<g id="h2_83_2"  >
<polygon points="140,90 144.0,90 149,85.0 144.0,80 140,80 140,90 " style="fill:#FFFFFF; stroke-width:1; stroke:black; "  />
</g>
<g id="h2_83_3"  >
<polygon points="149,90 152.0,90 157,85.0 152.0,80 149,80 149,90 " style="fill:#FFFFFF; stroke-width:1; stroke:black; "  />
</g>
<g id="h2_83_4"  >
<polygon points="157,90 164.0,90 169,85.0 164.0,80 157,80 157,90 " style="fill:#FFFFFF; stroke-width:1; stroke:black; "  />
</g>
<g id="h2_83_5"  >
<polygon points="169,90 178.0,90 183,85.0 178.0,80 169,80 169,90 " style="fill:#FFFFFF; stroke-width:1; stroke:black; "  />
</g>
<g id="h2_83_6"  >
<polygon points="183,90 199.0,90 204,85.0 199.0,80 183,80 183,90 " style="fill:#FFFFFF; stroke-width:1; stroke:black; "  />
</g>
<g id="h2_83_7"  >
<polygon points="205,90 207.0,90 212,85.0 207.0,80 205,80 205,90 " style="fill:#FFFFFF; stroke-width:1; stroke:black; "  />
</g>
<g id="h2_83_8"  >
<polygon points="212,85.0 217.0,80 217,80 217,90 217.0,90 212,85.0 " style="fill:#FFFFFF; stroke-width:1; stroke:black; "  />
</g>
<g id="h2_83_9"  >
<polygon points="219,90 221,85.0 219,80 219,90 " style="fill:#FFFFFF; stroke-width:1; stroke:black; "  />
</g>
<g id="h2_83_10"  >
<polygon points="223,90 224.0,90 229,85.0 224.0,80 223,80 223,90 " style="fill:#FFFFFF; stroke-width:1; stroke:black; "  />
</g>
<g id="h2_83_11"  >
<polygon points="229,85.0 234.0,80 247,80 247,90 234.0,90 229,85.0 " style="fill:#FFFFFF; stroke-width:1; stroke:black; "  />
</g>
<g id="h2_83_12"  >
<polygon points="249,85.0 254.0,80 254,80 254,90 254.0,90 249,85.0 " style="fill:#FFFFFF; stroke-width:1; stroke:black; "  />
</g>
<g id="h2_83_13"  >
<polygon points="254,85.0 259.0,80 277,80 277,90 259.0,90 254,85.0 " style="fill:#FFFFFF; stroke-width:1; stroke:black; "  />
</g>
<g id="h2_83_14"  >
<polygon points="277,85.0 282.0,80 284,80 284,90 282.0,90 277,85.0 " style="fill:#FFFFFF; stroke-width:1; stroke:black; "  />
</g>
<g id="h2_83_15"  >
<polygon points="287,90 290,85.0 287,80 287,90 " style="fill:#FFFFFF; stroke-width:1; stroke:black; "  />
</g>
<g id="h2_83_16"  >
<polygon points="291,85.0 296.0,80 298,80 298,90 296.0,90 291,85.0 " style="fill:#FFFFFF; stroke-width:1; stroke:black; "  />
</g>
<g id="h2_83_17"  >
<polygon points="299,85.0 304.0,80 370,80 370,90 304.0,90 299,85.0 " style="fill:#FFFFFF; stroke-width:1; stroke:black; "  />
</g>
<g id="h2_83_18"  >
<polygon points="374,90 374.0,90 379,85.0 374.0,80 374,80 374,90 " style="fill:#FFFFFF; stroke-width:1; stroke:black; "  />
</g>
<g id="h2_83_19"  >
<polygon points="380,90 406.0,90 411,85.0 406.0,80 380,80 380,90 " style="fill:rgb(191.25,191.25,63.75); stroke-width:1; stroke:black; "  />
</g>
<g id="h2_83_20"  >
<polygon points="412,90 412.0,90 417,85.0 412.0,80 412,80 412,90 " style="fill:#FFFFFF; stroke-width:1; stroke:black; "  />
</g>
<g id="h2_83_21"  >
<polygon points="418,90 420.0,90 425,85.0 420.0,80 418,80 418,90 " style="fill:#FFFFFF; stroke-width:1; stroke:black; "  />
</g>
<g id="h2_83_22"  >
<polygon points="427,90 442.0,90 447,85.0 442.0,80 427,80 427,90 " style="fill:#FFFFFF; stroke-width:1; stroke:black; "  />
</g>
<g id="h2_83_23"  >
<polygon points="448,85.0 453.0,80 454,80 454,90 453.0,90 448,85.0 " style="fill:#FFFFFF; stroke-width:1; stroke:black; "  />
</g>
<g id="h2_83_24"  >
<polygon points="457,90 462.0,90 467,85.0 462.0,80 457,80 457,90 " style="fill:#FFFFFF; stroke-width:1; stroke:black; "  />
</g>
<g id="h2_83_25"  >
<polygon points="467,90 481.0,90 486,85.0 481.0,80 467,80 467,90 " style="fill:#FFFFFF; stroke-width:1; stroke:black; "  />
</g>
<g id="h2_83_26"  >
<polygon points="486,90 488.0,90 493,85.0 488.0,80 486,80 486,90 " style="fill:#FFFFFF; stroke-width:1; stroke:black; "  />
</g>
<g id="h2_83_27"  >
<polygon points="497,90 501.0,90 506,85.0 501.0,80 497,80 497,90 " style="fill:#FFFFFF; stroke-width:1; stroke:black; "  />
</g>
<g id="h2_83_28"  >
<polygon points="507,90 514.0,90 519,85.0 514.0,80 507,80 507,90 " style="fill:#FFFFFF; stroke-width:1; stroke:black; "  />
</g>
<g id="h2_83_29"  >
<polygon points="521,90 534.0,90 539,85.0 534.0,80 521,80 521,90 " style="fill:#FFFFFF; stroke-width:1; stroke:black; "  />
</g>
<g id="h2_83_30"  >
<polygon points="539,90 539.0,90 544,85.0 539.0,80 539,80 539,90 " style="fill:#FFFFFF; stroke-width:1; stroke:black; "  />
</g>
<g id="h2_83_31"  >
<polygon points="546,90 553.0,90 558,85.0 553.0,80 546,80 546,90 " style="fill:#FFFFFF; stroke-width:1; stroke:black; "  />
</g>
<g id="h2_83_32"  >
<polygon points="560,90 563.0,90 568,85.0 563.0,80 560,80 560,90 " style="fill:#FFFFFF; stroke-width:1; stroke:black; "  />
</g>
<g id="h2_83_33"  >
<polygon points="568,90 571.0,90 576,85.0 571.0,80 568,80 568,90 " style="fill:#FFFFFF; stroke-width:1; stroke:black; "  />
</g>
<g id="h2_83_34"  >
<polygon points="576,85.0 581.0,80 584,80 584,90 581.0,90 576,85.0 " style="fill:#FFFFFF; stroke-width:1; stroke:black; "  />
</g>
<g id="h2_83_35"  >
<polygon points="586,90 611.0,90 616,85.0 611.0,80 586,80 586,90 " style="fill:#FFFFFF; stroke-width:1; stroke:black; "  />
</g>
<g id="h2_83_36"  >
<polygon points="615,85.0 618,80 618,90 615,85.0 " style="fill:#FFFFFF; stroke-width:1; stroke:black; "  />
</g>
<g id="h2_83_37"  >
<polygon points="618,85.0 623.0,80 632,80 632,90 623.0,90 618,85.0 " style="fill:#FFFFFF; stroke-width:1; stroke:black; "  />
</g>
<g id="h2_83_38"  >
<polygon points="633,85.0 638.0,80 643,80 643,90 638.0,90 633,85.0 " style="fill:#FFFFFF; stroke-width:1; stroke:black; "  />
</g>
<g id="h2_83_39"  >
<polygon points="644,85.0 649.0,80 649,80 649,90 649.0,90 644,85.0 " style="fill:#FFFFFF; stroke-width:1; stroke:black; "  />
</g>
<g id="h2_83_40"  >
<polygon points="650,85.0 655.0,80 677,80 677,90 655.0,90 650,85.0 " style="fill:#FFFFFF; stroke-width:1; stroke:black; "  />
</g>
</svg>
