<svg xmlns="http://www.w3.org/2000/svg" xmlns:xlink="http://www.w3.org/1999/xlink" version="1.1" x="0" y="0" height="2770" width="768.0" viewBox="0 0 819.2 2680" preserveAspectRatio="none"  >
<g  >
<line x1="10" y1="35" x2="778.0" y2="35" style="stroke-width:1; stroke:grey; "  />
</g>
<g id="q1_10_0"  >
<polygon points="48,40 55.0,40 60,35.0 55.0,30 48,30 48,40 " style="fill:rgb(212.5,42.5,42.5); stroke-width:1; stroke:black; "  />
</g>
<g id="q1_10_1"  >
<polygon points="62,40 64.0,40 69,35.0 64.0,30 62,30 62,40 " style="fill:#FFFFFF; stroke-width:1; stroke:black; "  />
</g>
<g id="q1_10_2"  >
<polygon points="69,40 73.0,40 78,35.0 73.0,30 69,30 69,40 " style="fill:rgb(127.5,127.5,42.5); stroke-width:1; stroke:black; "  />
</g>
<g id="q1_10_3"  >
<polygon points="78,35.0 83.0,30 92,30 92,40 83.0,40 78,35.0 " style="fill:rgb(127.5,42.5,42.5); stroke-width:1; stroke:black; "  />
</g>
<g id="q1_10_4"  >
<polygon points="93,35.0 98.0,30 124,30 124,40 98.0,40 93,35.0 " style="fill:rgb(42.5,212.5,42.5); stroke-width:1; stroke:black; "  />
</g>
<g id="q1_10_5"  >
<polygon points="128,40 132.0,40 137,35.0 132.0,30 128,30 128,40 " style="fill:rgb(127.5,127.5,42.5); stroke-width:1; stroke:black; "  />
</g>
<g id="q1_10_6"  >
<polygon points="143,35.0 148.0,30 164,30 164,40 148.0,40 143,35.0 " style="fill:rgb(42.5,127.5,212.5); stroke-width:1; stroke:black; "  />
</g>
<g id="q1_10_7"  >
<polygon points="165,40 172.0,40 177,35.0 172.0,30 165,30 165,40 " style="fill:rgb(42.5,42.5,42.5); stroke-width:1; stroke:black; "  />
</g>
<g id="q1_10_8"  >
<polygon points="177,40 194.0,40 199,35.0 194.0,30 177,30 177,40 " style="fill:rgb(212.5,212.5,42.5); stroke-width:1; stroke:black; "  />
</g>
<g id="q1_10_9"  >
<polygon points="199,40 202,35.0 199,30 199,40 " style="fill:rgb(42.5,42.5,127.5); stroke-width:1; stroke:black; "  />
</g>
<g id="q1_10_10"  >
<polygon points="201,40 205.0,40 210,35.0 205.0,30 201,30 201,40 " style="fill:rgb(212.5,42.5,127.5); stroke-width:1; stroke:black; "  />
</g>
<g id="q1_10_11"  >
<polygon points="210,40 218.0,40 223,35.0 218.0,30 210,30 210,40 " style="fill:rgb(127.5,127.5,212.5); stroke-width:1; stroke:black; "  />
</g>
<g id="q1_10_12"  >
<polygon points="223,40 419.0,40 424,35.0 419.0,30 223,30 223,40 " style="fill:rgb(42.5,212.5,212.5); stroke-width:1; stroke:black; "  />
</g>
<g id="q1_10_13"  >
<polygon points="425,40 547.0,40 552,35.0 547.0,30 425,30 425,40 " style="fill:rgb(42.5,212.5,212.5); stroke-width:1; stroke:black; "  />
</g>
<g id="q1_10_14"  >
<polygon points="552,40 582.0,40 587,35.0 582.0,30 552,30 552,40 " style="fill:rgb(42.5,212.5,212.5); stroke-width:1; stroke:black; "  />
</g>
<g id="q1_10_15"  >
<polygon points="588,35.0 593.0,30 596,30 596,40 593.0,40 588,35.0 " style="fill:rgb(212.5,42.5,212.5); stroke-width:1; stroke:black; "  />
</g>
<g id="q1_10_16"  >
<polygon points="597,40 609.0,40 614,35.0 609.0,30 597,30 597,40 " style="fill:rgb(42.5,42.5,212.5); stroke-width:1; stroke:black; "  />
</g>
<g id="q1_10_17"  >
<polygon points="614,40 621.0,40 626,35.0 621.0,30 614,30 614,40 " style="fill:rgb(212.5,212.5,212.5); stroke-width:1; stroke:black; "  />
</g>
<g id="q1_10_18"  >
<polygon points="627,40 641.0,40 646,35.0 641.0,30 627,30 627,40 " style="fill:rgb(212.5,212.5,127.5); stroke-width:1; stroke:black; "  />
</g>
<g id="q1_10_19"  >
<polygon points="646,40 652.0,40 657,35.0 652.0,30 646,30 646,40 " style="fill:rgb(42.5,127.5,42.5); stroke-width:1; stroke:black; "  />
</g>
<g id="q1_10_20"  >
<polygon points="657,40 662.0,40 667,35.0 662.0,30 657,30 657,40 " style="fill:rgb(127.5,127.5,127.5); stroke-width:1; stroke:black; "  />
</g>
<g id="q1_10_21"  >
<polygon points="666,40 680.0,40 685,35.0 680.0,30 666,30 666,40 " style="fill:rgb(42.5,212.5,127.5); stroke-width:1; stroke:black; "  />
</g>
<g id="q1_10_22"  >
<polygon points="685,40 694.0,40 699,35.0 694.0,30 685,30 685,40 " style="fill:rgb(127.5,42.5,42.5); stroke-width:1; stroke:black; "  />
</g>
<g id="q1_10_23"  >
<polygon points="699,40 702,35.0 699,30 699,40 " style="fill:rgb(127.5,42.5,127.5); stroke-width:1; stroke:black; "  />
</g>
<g id="q1_10_24"  >
<polygon points="702,35.0 707.0,30 708,30 708,40 707.0,40 702,35.0 " style="fill:rgb(42.5,127.5,127.5); stroke-width:1; stroke:black; "  />
</g>
<g id="q1_10_25"  >
<polygon points="710,40 715.0,40 720,35.0 715.0,30 710,30 710,40 " style="fill:rgb(212.5,127.5,42.5); stroke-width:1; stroke:black; "  />
</g>
<g id="q1_10_26"  >
<polygon points="719,35.0 724.0,30 730,30 730,40 724.0,40 719,35.0 " style="fill:rgb(42.5,212.5,212.5); stroke-width:1; stroke:black; "  />
</g>
<g id="q1_10_27"  >
<polygon points="731,40 733.0,40 738,35.0 733.0,30 731,30 731,40 " style="fill:rgb(212.5,127.5,212.5); stroke-width:1; stroke:black; "  />
</g>
<g  >
<line x1="10" y1="85" x2="778.0" y2="85" style="stroke-width:1; stroke:grey; "  />
</g>
<g id="h1_10_0"  >
<polygon points="10,85.0 15.0,80 35,80 35,90 15.0,90 10,85.0 " style="fill:#FFFFFF; stroke-width:1; stroke:black; "  />
</g>
<g id="h1_10_1"  >
<polygon points="34,85.0 39.0,80 50,80 50,90 39.0,90 34,85.0 " style="fill:#FFFFFF; stroke-width:1; stroke:black; "  />
</g>
<g id="h1_10_2"  >
<polygon points="50,85.0 55.0,80 65,80 65,90 55.0,90 50,85.0 " style="fill:#FFFFFF; stroke-width:1; stroke:black; "  />
</g>
<g id="h1_10_3"  >
<polygon points="65,85.0 70.0,80 77,80 77,90 70.0,90 65,85.0 " style="fill:#FFFFFF; stroke-width:1; stroke:black; "  />
</g>
<g id="h1_10_4"  >
<polygon points="77,85.0 82.0,80 88,80 88,90 82.0,90 77,85.0 " style="fill:#FFFFFF; stroke-width:1; stroke:black; "  />
</g>
<g id="h1_10_5"  >
<polygon points="90,85.0 95.0,80 108,80 108,90 95.0,90 90,85.0 " style="fill:#FFFFFF; stroke-width:1; stroke:black; "  />
</g>
<g id="h1_10_6"  >
<polygon points="109,85.0 114.0,80 122,80 122,90 114.0,90 109,85.0 " style="fill:#FFFFFF; stroke-width:1; stroke:black; "  />
</g>
<g id="h1_10_7"  >
<polygon points="123,90 128.0,90 133,85.0 128.0,80 123,80 123,90 " style="fill:#FFFFFF; stroke-width:1; stroke:black; "  />
</g>
<g id="h1_10_8"  >
<polygon points="133,90 137.0,90 142,85.0 137.0,80 133,80 133,90 " style="fill:#FFFFFF; stroke-width:1; stroke:black; "  />
</g>
<g id="h1_10_9"  >
<polygon points="144,90 150.0,90 155,85.0 150.0,80 144,80 144,90 " style="fill:#FFFFFF; stroke-width:1; stroke:black; "  />
</g>
<g id="h1_10_10"  >
<polygon points="156,85.0 161.0,80 163,80 163,90 161.0,90 156,85.0 " style="fill:#FFFFFF; stroke-width:1; stroke:black; "  />
</g>
<g id="h1_10_11"  >
<polygon points="166,85.0 171.0,80 172,80 172,90 171.0,90 166,85.0 " style="fill:#FFFFFF; stroke-width:1; stroke:black; "  />
</g>
<g id="h1_10_12"  >
<polygon points="174,90 178.0,90 183,85.0 178.0,80 174,80 174,90 " style="fill:#FFFFFF; stroke-width:1; stroke:black; "  />
</g>
<g id="h1_10_13"  >
<polygon points="183,90 187,85.0 183,80 183,90 " style="fill:#FFFFFF; stroke-width:1; stroke:black; "  />
</g>
<g id="h1_10_14"  >
<polygon points="187,90 191.0,90 196,85.0 191.0,80 187,80 187,90 " style="fill:#FFFFFF; stroke-width:1; stroke:black; "  />
</g>
<g id="h1_10_15"  >
<polygon points="197,90 200.0,90 205,85.0 200.0,80 197,80 197,90 " style="fill:rgb(42.5,212.5,127.5); stroke-width:1; stroke:black; "  />
</g>
<g id="h1_10_16"  >
<polygon points="205,85.0 210.0,80 218,80 218,90 210.0,90 205,85.0 " style="fill:#FFFFFF; stroke-width:1; stroke:black; "  />
</g>
<g id="h1_10_17"  >
<polygon points="218,85.0 223.0,80 226,80 226,90 223.0,90 218,85.0 " style="fill:#FFFFFF; stroke-width:1; stroke:black; "  />
</g>
<g id="h1_10_18"  >
<polygon points="226,85.0 231.0,80 232,80 232,90 231.0,90 226,85.0 " style="fill:#FFFFFF; stroke-width:1; stroke:black; "  />
</g>
<g id="h1_10_19"  >
<polygon points="232,85.0 237.0,80 239,80 239,90 237.0,90 232,85.0 " style="fill:#FFFFFF; stroke-width:1; stroke:black; "  />
</g>
<g id="h1_10_20"  >
<polygon points="241,90 255.0,90 260,85.0 255.0,80 241,80 241,90 " style="fill:#FFFFFF; stroke-width:1; stroke:black; "  />
</g>
<g id="h1_10_21"  >
<polygon points="260,90 264.0,90 269,85.0 264.0,80 260,80 260,90 " style="fill:#FFFFFF; stroke-width:1; stroke:black; "  />
</g>
<g id="h1_10_22"  >
<polygon points="272,90 277.0,90 282,85.0 277.0,80 272,80 272,90 " style="fill:#FFFFFF; stroke-width:1; stroke:black; "  />
</g>
<g id="h1_10_23"  >
<polygon points="286,85.0 291.0,80 300,80 300,90 291.0,90 286,85.0 " style="fill:#FFFFFF; stroke-width:1; stroke:black; "  />
</g>
<g id="h1_10_24"  >
<polygon points="302,90 304.0,90 309,85.0 304.0,80 302,80 302,90 " style="fill:#FFFFFF; stroke-width:1; stroke:black; "  />
</g>
<g id="h1_10_25"  >
<polygon points="316,90 325.0,90 330,85.0 325.0,80 316,80 316,90 " style="fill:#FFFFFF; stroke-width:1; stroke:black; "  />
</g>
<g id="h1_10_26"  >
<polygon points="330,90 344.0,90 349,85.0 344.0,80 330,80 330,90 " style="fill:#FFFFFF; stroke-width:1; stroke:black; "  />
</g>
<g id="h1_10_27"  >
<polygon points="349,90 355.0,90 360,85.0 355.0,80 349,80 349,90 " style="fill:rgb(42.5,127.5,42.5); stroke-width:1; stroke:black; "  />
</g>
<g id="h1_10_28"  >
<polygon points="361,90 366.0,90 371,85.0 366.0,80 361,80 361,90 " style="fill:rgb(127.5,127.5,127.5); stroke-width:1; stroke:black; "  />
</g>
<g id="h1_10_29"  >
<polygon points="372,90 380.0,90 385,85.0 380.0,80 372,80 372,90 " style="fill:#FFFFFF; stroke-width:1; stroke:black; "  />
</g>
<g id="h1_10_30"  >
<polygon points="385,90 390.0,90 395,85.0 390.0,80 385,80 385,90 " style="fill:#FFFFFF; stroke-width:1; stroke:black; "  />
</g>
<g id="h1_10_31"  >
<polygon points="395,90 401.0,90 406,85.0 401.0,80 395,80 395,90 " style="fill:rgb(42.5,212.5,127.5); stroke-width:1; stroke:black; "  />
</g>
<g id="h1_10_32"  >
<polygon points="406,90 413.0,90 418,85.0 413.0,80 406,80 406,90 " style="fill:rgb(42.5,212.5,127.5); stroke-width:1; stroke:black; "  />
</g>
<g id="h1_10_33"  >
<polygon points="418,90 427.0,90 432,85.0 427.0,80 418,80 418,90 " style="fill:#FFFFFF; stroke-width:1; stroke:black; "  />
</g>
<g id="h1_10_34"  >
<polygon points="433,90 437.0,90 442,85.0 437.0,80 433,80 433,90 " style="fill:#FFFFFF; stroke-width:1; stroke:black; "  />
</g>
<g id="h1_10_35"  >
<polygon points="443,85.0 448.0,80 458,80 458,90 448.0,90 443,85.0 " style="fill:#FFFFFF; stroke-width:1; stroke:black; "  />
</g>
<g id="h1_10_36"  >
<polygon points="460,85.0 465.0,80 472,80 472,90 465.0,90 460,85.0 " style="fill:#FFFFFF; stroke-width:1; stroke:black; "  />
</g>
<g id="h1_10_37"  >
<polygon points="488,90 497.0,90 502,85.0 497.0,80 488,80 488,90 " style="fill:#FFFFFF; stroke-width:1; stroke:black; "  />
</g>
<g id="h1_10_38"  >
<polygon points="502,90 512.0,90 517,85.0 512.0,80 502,80 502,90 " style="fill:#FFFFFF; stroke-width:1; stroke:black; "  />
</g>
<g id="h1_10_39"  >
<polygon points="517,90 518.0,90 523,85.0 518.0,80 517,80 517,90 " style="fill:#FFFFFF; stroke-width:1; stroke:black; "  />
</g>
<g id="h1_10_40"  >
<polygon points="525,90 529,85.0 525,80 525,90 " style="fill:#FFFFFF; stroke-width:1; stroke:black; "  />
</g>
<g id="h1_10_41"  >
<polygon points="529,90 531.0,90 536,85.0 531.0,80 529,80 529,90 " style="fill:#FFFFFF; stroke-width:1; stroke:black; "  />
</g>
<g id="h1_10_42"  >
<polygon points="537,90 543.0,90 548,85.0 543.0,80 537,80 537,90 " style="fill:#FFFFFF; stroke-width:1; stroke:black; "  />
</g>
<g id="h1_10_43"  >
<polygon points="549,90 566.0,90 571,85.0 566.0,80 549,80 549,90 " style="fill:rgb(42.5,212.5,127.5); stroke-width:1; stroke:black; "  />
</g>
<g id="h1_10_44"  >
<polygon points="572,90 586.0,90 591,85.0 586.0,80 572,80 572,90 " style="fill:rgb(42.5,212.5,127.5); stroke-width:1; stroke:black; "  />
</g>
<g id="h1_10_45"  >
<polygon points="594,90 596.0,90 601,85.0 596.0,80 594,80 594,90 " style="fill:#FFFFFF; stroke-width:1; stroke:black; "  />
</g>
<g id="h1_10_46"  >
<polygon points="604,85.0 609.0,80 609,80 609,90 609.0,90 604,85.0 " style="fill:#FFFFFF; stroke-width:1; stroke:black; "  />
</g>
<g id="h1_10_47"  >
<polygon points="611,85.0 616.0,80 617,80 617,90 616.0,90 611,85.0 " style="fill:#FFFFFF; stroke-width:1; stroke:black; "  />
</g>
<g id="h1_10_48"  >
<polygon points="617,85.0 622.0,80 633,80 633,90 622.0,90 617,85.0 " style="fill:#FFFFFF; stroke-width:1; stroke:black; "  />
</g>
<g id="h1_10_49"  >
<polygon points="635,90 635.0,90 640,85.0 635.0,80 635,80 635,90 " style="fill:#FFFFFF; stroke-width:1; stroke:black; "  />
</g>
<g id="h1_10_50"  >
<polygon points="640,90 644,85.0 640,80 640,90 " style="fill:#FFFFFF; stroke-width:1; stroke:black; "  />
</g>
<g id="h1_10_51"  >
<polygon points="645,85.0 649,80 649,90 645,85.0 " style="fill:#FFFFFF; stroke-width:1; stroke:black; "  />
</g>
<g id="h1_10_52"  >
<polygon points="649,85.0 653,80 653,90 649,85.0 " style="fill:#FFFFFF; stroke-width:1; stroke:black; "  />
</g>
<g id="h1_10_53"  >
<polygon points="655,90 733.0,90 738,85.0 733.0,80 655,80 655,90 " style="fill:#FFFFFF; stroke-width:1; stroke:black; "  />
</g>
<g id="h1_10_54"  >
<polygon points="744,90 755.0,90 760,85.0 755.0,80 744,80 744,90 " style="fill:#FFFFFF; stroke-width:1; stroke:black; "  />
</g>
<g id="h1_10_55"  >
<polygon points="761,90 773.0,90 778,85.0 773.0,80 761,80 761,90 " style="fill:#FFFFFF; stroke-width:1; stroke:black; "  />
</g>
</svg>
