<svg xmlns="http://www.w3.org/2000/svg" xmlns:xlink="http://www.w3.org/1999/xlink" version="1.1" x="0" y="0" height="2770" width="768.0" viewBox="0 0 819.2 2680" preserveAspectRatio="none"  >
<g  >
<line x1="10" y1="35" x2="778.0" y2="35" style="stroke-width:1; stroke:grey; "  />
</g>
<g id="q1_13_0"  >
<polygon points="47,40 54.0,40 59,35.0 54.0,30 47,30 47,40 " style="fill:rgb(212.5,42.5,42.5); stroke-width:1; stroke:black; "  />
</g>
<g id="q1_13_1"  >
<polygon points="61,40 63.0,40 68,35.0 63.0,30 61,30 61,40 " style="fill:#FFFFFF; stroke-width:1; stroke:black; "  />
</g>
<g id="q1_13_2"  >
<polygon points="69,40 72.0,40 77,35.0 72.0,30 69,30 69,40 " style="fill:rgb(127.5,127.5,42.5); stroke-width:1; stroke:black; "  />
</g>
<g id="q1_13_3"  >
<polygon points="77,35.0 82.0,30 91,30 91,40 82.0,40 77,35.0 " style="fill:rgb(127.5,42.5,42.5); stroke-width:1; stroke:black; "  />
</g>
<g id="q1_13_4"  >
<polygon points="92,35.0 97.0,30 123,30 123,40 97.0,40 92,35.0 " style="fill:rgb(42.5,212.5,42.5); stroke-width:1; stroke:black; "  />
</g>
<g id="q1_13_5"  >
<polygon points="128,40 131.0,40 136,35.0 131.0,30 128,30 128,40 " style="fill:rgb(127.5,127.5,42.5); stroke-width:1; stroke:black; "  />
</g>
<g id="q1_13_6"  >
<polygon points="142,35.0 147.0,30 164,30 164,40 147.0,40 142,35.0 " style="fill:rgb(42.5,127.5,212.5); stroke-width:1; stroke:black; "  />
</g>
<g id="q1_13_7"  >
<polygon points="165,40 171.0,40 176,35.0 171.0,30 165,30 165,40 " style="fill:rgb(42.5,42.5,42.5); stroke-width:1; stroke:black; "  />
</g>
<g id="q1_13_8"  >
<polygon points="176,40 193.0,40 198,35.0 193.0,30 176,30 176,40 " style="fill:rgb(212.5,212.5,42.5); stroke-width:1; stroke:black; "  />
</g>
<g id="q1_13_9"  >
<polygon points="198,40 201,35.0 198,30 198,40 " style="fill:rgb(42.5,42.5,127.5); stroke-width:1; stroke:black; "  />
</g>
<g id="q1_13_10"  >
<polygon points="201,40 205.0,40 210,35.0 205.0,30 201,30 201,40 " style="fill:rgb(212.5,42.5,127.5); stroke-width:1; stroke:black; "  />
</g>
<g id="q1_13_11"  >
<polygon points="210,40 217.0,40 222,35.0 217.0,30 210,30 210,40 " style="fill:rgb(127.5,127.5,212.5); stroke-width:1; stroke:black; "  />
</g>
<g id="q1_13_12"  >
<polygon points="222,40 419.0,40 424,35.0 419.0,30 222,30 222,40 " style="fill:rgb(42.5,212.5,212.5); stroke-width:1; stroke:black; "  />
</g>
<g id="q1_13_13"  >
<polygon points="425,40 548.0,40 553,35.0 548.0,30 425,30 425,40 " style="fill:rgb(42.5,212.5,212.5); stroke-width:1; stroke:black; "  />
</g>
<g id="q1_13_14"  >
<polygon points="553,40 583.0,40 588,35.0 583.0,30 553,30 553,40 " style="fill:rgb(42.5,212.5,212.5); stroke-width:1; stroke:black; "  />
</g>
<g id="q1_13_15"  >
<polygon points="588,35.0 593.0,30 597,30 597,40 593.0,40 588,35.0 " style="fill:rgb(212.5,42.5,212.5); stroke-width:1; stroke:black; "  />
</g>
<g id="q1_13_16"  >
<polygon points="598,40 609.0,40 614,35.0 609.0,30 598,30 598,40 " style="fill:rgb(42.5,42.5,212.5); stroke-width:1; stroke:black; "  />
</g>
<g id="q1_13_17"  >
<polygon points="615,40 622.0,40 627,35.0 622.0,30 615,30 615,40 " style="fill:rgb(212.5,212.5,212.5); stroke-width:1; stroke:black; "  />
</g>
<g id="q1_13_18"  >
<polygon points="628,40 642.0,40 647,35.0 642.0,30 628,30 628,40 " style="fill:rgb(212.5,212.5,127.5); stroke-width:1; stroke:black; "  />
</g>
<g id="q1_13_19"  >
<polygon points="647,40 653.0,40 658,35.0 653.0,30 647,30 647,40 " style="fill:rgb(42.5,127.5,42.5); stroke-width:1; stroke:black; "  />
</g>
<g id="q1_13_20"  >
<polygon points="657,40 662.0,40 667,35.0 662.0,30 657,30 657,40 " style="fill:rgb(127.5,127.5,127.5); stroke-width:1; stroke:black; "  />
</g>
<g id="q1_13_21"  >
<polygon points="667,40 681.0,40 686,35.0 681.0,30 667,30 667,40 " style="fill:rgb(42.5,212.5,127.5); stroke-width:1; stroke:black; "  />
</g>
<g id="q1_13_22"  >
<polygon points="686,40 695.0,40 700,35.0 695.0,30 686,30 686,40 " style="fill:rgb(127.5,42.5,42.5); stroke-width:1; stroke:black; "  />
</g>
<g id="q1_13_23"  >
<polygon points="700,40 702,35.0 700,30 700,40 " style="fill:rgb(127.5,42.5,127.5); stroke-width:1; stroke:black; "  />
</g>
<g id="q1_13_24"  >
<polygon points="703,35.0 708.0,30 709,30 709,40 708.0,40 703,35.0 " style="fill:rgb(42.5,127.5,127.5); stroke-width:1; stroke:black; "  />
</g>
<g id="q1_13_25"  >
<polygon points="711,40 716.0,40 721,35.0 716.0,30 711,30 711,40 " style="fill:rgb(212.5,127.5,42.5); stroke-width:1; stroke:black; "  />
</g>
<g id="q1_13_26"  >
<polygon points="720,35.0 725.0,30 731,30 731,40 725.0,40 720,35.0 " style="fill:rgb(42.5,212.5,212.5); stroke-width:1; stroke:black; "  />
</g>
<g id="q1_13_27"  >
<polygon points="732,40 734.0,40 739,35.0 734.0,30 732,30 732,40 " style="fill:rgb(212.5,127.5,212.5); stroke-width:1; stroke:black; "  />
</g>
<g  >
<line x1="10" y1="85" x2="778.0" y2="85" style="stroke-width:1; stroke:grey; "  />
</g>
<g id="h1_13_0"  >
<polygon points="10,90 32.0,90 37,85.0 32.0,80 10,80 10,90 " style="fill:#FFFFFF; stroke-width:1; stroke:black; "  />
</g>
<g id="h1_13_1"  >
<polygon points="38,85.0 43.0,80 49,80 49,90 43.0,90 38,85.0 " style="fill:#FFFFFF; stroke-width:1; stroke:black; "  />
</g>
<g id="h1_13_2"  >
<polygon points="49,85.0 54.0,80 71,80 71,90 54.0,90 49,85.0 " style="fill:#FFFFFF; stroke-width:1; stroke:black; "  />
</g>
<g id="h1_13_3"  >
<polygon points="75,85.0 80.0,80 81,80 81,90 80.0,90 75,85.0 " style="fill:#FFFFFF; stroke-width:1; stroke:black; "  />
</g>
<g id="h1_13_4"  >
<polygon points="82,90 85.0,90 90,85.0 85.0,80 82,80 82,90 " style="fill:#FFFFFF; stroke-width:1; stroke:black; "  />
</g>
<g id="h1_13_5"  >
<polygon points="101,85.0 106.0,80 140,80 140,90 106.0,90 101,85.0 " style="fill:#FFFFFF; stroke-width:1; stroke:black; "  />
</g>
<g id="h1_13_6"  >
<polygon points="147,90 170.0,90 175,85.0 170.0,80 147,80 147,90 " style="fill:#FFFFFF; stroke-width:1; stroke:black; "  />
</g>
<g id="h1_13_7"  >
<polygon points="175,90 182.0,90 187,85.0 182.0,80 175,80 175,90 " style="fill:#FFFFFF; stroke-width:1; stroke:black; "  />
</g>
<g id="h1_13_8"  >
<polygon points="188,85.0 193.0,80 197,80 197,90 193.0,90 188,85.0 " style="fill:#FFFFFF; stroke-width:1; stroke:black; "  />
</g>
<g id="h1_13_9"  >
<polygon points="198,85.0 203.0,80 335,80 335,90 203.0,90 198,85.0 " style="fill:rgb(42.5,212.5,212.5); stroke-width:1; stroke:black; "  />
</g>
<g id="h1_13_10"  >
<polygon points="336,85.0 341.0,80 342,80 342,90 341.0,90 336,85.0 " style="fill:#FFFFFF; stroke-width:1; stroke:black; "  />
</g>
<g id="h1_13_11"  >
<polygon points="343,85.0 348.0,80 359,80 359,90 348.0,90 343,85.0 " style="fill:#FFFFFF; stroke-width:1; stroke:black; "  />
</g>
<g id="h1_13_12"  >
<polygon points="368,85.0 373.0,80 376,80 376,90 373.0,90 368,85.0 " style="fill:#FFFFFF; stroke-width:1; stroke:black; "  />
</g>
<g id="h1_13_13"  >
<polygon points="382,85.0 387.0,80 391,80 391,90 387.0,90 382,85.0 " style="fill:#FFFFFF; stroke-width:1; stroke:black; "  />
</g>
<g id="h1_13_14"  >
<polygon points="396,90 403.0,90 408,85.0 403.0,80 396,80 396,90 " style="fill:#FFFFFF; stroke-width:1; stroke:black; "  />
</g>
<g id="h1_13_15"  >
<polygon points="408,90 421.0,90 426,85.0 421.0,80 408,80 408,90 " style="fill:#FFFFFF; stroke-width:1; stroke:black; "  />
</g>
<g id="h1_13_16"  >
<polygon points="430,90 431.0,90 436,85.0 431.0,80 430,80 430,90 " style="fill:#FFFFFF; stroke-width:1; stroke:black; "  />
</g>
<g id="h1_13_17"  >
<polygon points="436,90 450.0,90 455,85.0 450.0,80 436,80 436,90 " style="fill:#FFFFFF; stroke-width:1; stroke:black; "  />
</g>
<g id="h1_13_18"  >
<polygon points="456,90 462.0,90 467,85.0 462.0,80 456,80 456,90 " style="fill:#FFFFFF; stroke-width:1; stroke:black; "  />
</g>
<g id="h1_13_19"  >
<polygon points="468,90 475.0,90 480,85.0 475.0,80 468,80 468,90 " style="fill:#FFFFFF; stroke-width:1; stroke:black; "  />
</g>
<g id="h1_13_20"  >
<polygon points="484,90 502.0,90 507,85.0 502.0,80 484,80 484,90 " style="fill:#FFFFFF; stroke-width:1; stroke:black; "  />
</g>
<g id="h1_13_21"  >
<polygon points="507,90 514.0,90 519,85.0 514.0,80 507,80 507,90 " style="fill:#FFFFFF; stroke-width:1; stroke:black; "  />
</g>
<g id="h1_13_22"  >
<polygon points="518,90 580.0,90 585,85.0 580.0,80 518,80 518,90 " style="fill:rgb(42.5,212.5,212.5); stroke-width:1; stroke:black; "  />
</g>
<g id="h1_13_23"  >
<polygon points="585,90 586.0,90 591,85.0 586.0,80 585,80 585,90 " style="fill:#FFFFFF; stroke-width:1; stroke:black; "  />
</g>
<g id="h1_13_24"  >
<polygon points="591,90 593.0,90 598,85.0 593.0,80 591,80 591,90 " style="fill:#FFFFFF; stroke-width:1; stroke:black; "  />
</g>
<g id="h1_13_25"  >
<polygon points="598,90 608.0,90 613,85.0 608.0,80 598,80 598,90 " style="fill:#FFFFFF; stroke-width:1; stroke:black; "  />
</g>
<g id="h1_13_26"  >
<polygon points="617,90 647.0,90 652,85.0 647.0,80 617,80 617,90 " style="fill:#FFFFFF; stroke-width:1; stroke:black; "  />
</g>
<g id="h1_13_27"  >
<polygon points="653,85.0 658.0,80 665,80 665,90 658.0,90 653,85.0 " style="fill:#FFFFFF; stroke-width:1; stroke:black; "  />
</g>
<g id="h1_13_28"  >
<polygon points="666,85.0 671.0,80 671,80 671,90 671.0,90 666,85.0 " style="fill:#FFFFFF; stroke-width:1; stroke:black; "  />
</g>
<g id="h1_13_29"  >
<polygon points="678,85.0 683.0,80 685,80 685,90 683.0,90 678,85.0 " style="fill:#FFFFFF; stroke-width:1; stroke:black; "  />
</g>
<g id="h1_13_30"  >
<polygon points="685,85.0 690.0,80 692,80 692,90 690.0,90 685,85.0 " style="fill:#FFFFFF; stroke-width:1; stroke:black; "  />
</g>
<g id="h1_13_31"  >
<polygon points="695,90 704.0,90 709,85.0 704.0,80 695,80 695,90 " style="fill:#FFFFFF; stroke-width:1; stroke:black; "  />
</g>
<g id="h1_13_32"  >
<polygon points="712,90 727.0,90 732,85.0 727.0,80 712,80 712,90 " style="fill:#FFFFFF; stroke-width:1; stroke:black; "  />
</g>
<g id="h1_13_33"  >
<polygon points="732,85.0 737.0,80 757,80 757,90 737.0,90 732,85.0 " style="fill:#FFFFFF; stroke-width:1; stroke:black; "  />
</g>
<g id="h1_13_34"  >
<polygon points="760,90 773.0,90 778,85.0 773.0,80 760,80 760,90 " style="fill:#FFFFFF; stroke-width:1; stroke:black; "  />
</g>
</svg>
