<svg xmlns="http://www.w3.org/2000/svg" xmlns:xlink="http://www.w3.org/1999/xlink" version="1.1" x="0" y="0" height="2770" width="768.0" viewBox="0 0 819.2 2680" preserveAspectRatio="none"  >
<g  >
<line x1="10" y1="35" x2="778.0" y2="35" style="stroke-width:1; stroke:grey; "  />
</g>
<g id="q2_59_0"  >
<polygon points="10,40 19.0,40 24,35.0 19.0,30 10,30 10,40 " style="fill:#FFFFFF; stroke-width:1; stroke:black; "  />
</g>
<g id="q2_59_1"  >
<polygon points="25,40 28.0,40 33,35.0 28.0,30 25,30 25,40 " style="fill:#FFFFFF; stroke-width:1; stroke:black; "  />
</g>
<g id="q2_59_2"  >
<polygon points="34,40 39.0,40 44,35.0 39.0,30 34,30 34,40 " style="fill:rgb(191.25,63.75,63.75); stroke-width:1; stroke:black; "  />
</g>
<g id="q2_59_3"  >
<polygon points="44,35.0 49.0,30 59,30 59,40 49.0,40 44,35.0 " style="fill:#FFFFFF; stroke-width:1; stroke:black; "  />
</g>
<g id="q2_59_4"  >
<polygon points="60,35.0 65.0,30 95,30 95,40 65.0,40 60,35.0 " style="fill:rgb(63.75,63.75,191.25); stroke-width:1; stroke:black; "  />
</g>
<g id="q2_59_5"  >
<polygon points="99,40 104.0,40 109,35.0 104.0,30 99,30 99,40 " style="fill:#FFFFFF; stroke-width:1; stroke:black; "  />
</g>
<g id="q2_59_6"  >
<polygon points="115,35.0 120.0,30 139,30 139,40 120.0,40 115,35.0 " style="fill:#FFFFFF; stroke-width:1; stroke:black; "  />
</g>
<g id="q2_59_7"  >
<polygon points="140,40 149.0,40 154,35.0 149.0,30 140,30 140,40 " style="fill:#FFFFFF; stroke-width:1; stroke:black; "  />
</g>
<g id="q2_59_8"  >
<polygon points="154,40 173.0,40 178,35.0 173.0,30 154,30 154,40 " style="fill:#FFFFFF; stroke-width:1; stroke:black; "  />
</g>
<g id="q2_59_9"  >
<polygon points="178,40 181,35.0 178,30 178,40 " style="fill:#FFFFFF; stroke-width:1; stroke:black; "  />
</g>
<g id="q2_59_10"  >
<polygon points="181,40 186.0,40 191,35.0 186.0,30 181,30 181,40 " style="fill:#FFFFFF; stroke-width:1; stroke:black; "  />
</g>
<g id="q2_59_11"  >
<polygon points="191,40 199.0,40 204,35.0 199.0,30 191,30 191,40 " style="fill:#FFFFFF; stroke-width:1; stroke:black; "  />
</g>
<g id="q2_59_12"  >
<polygon points="204,40 424.0,40 429,35.0 424.0,30 204,30 204,40 " style="fill:rgb(63.75,191.25,63.75); stroke-width:1; stroke:black; "  />
</g>
<g id="q2_59_13"  >
<polygon points="430,40 567.0,40 572,35.0 567.0,30 430,30 430,40 " style="fill:#FFFFFF; stroke-width:1; stroke:black; "  />
</g>
<g id="q2_59_14"  >
<polygon points="572,40 605.0,40 610,35.0 605.0,30 572,30 572,40 " style="fill:#FFFFFF; stroke-width:1; stroke:black; "  />
</g>
<g id="q2_59_15"  >
<polygon points="611,35.0 616.0,30 620,30 620,40 616.0,40 611,35.0 " style="fill:rgb(191.25,63.75,191.25); stroke-width:1; stroke:black; "  />
</g>
<g id="q2_59_16"  >
<polygon points="621,40 634.0,40 639,35.0 634.0,30 621,30 621,40 " style="fill:#FFFFFF; stroke-width:1; stroke:black; "  />
</g>
<g id="q2_59_17"  >
<polygon points="640,40 648.0,40 653,35.0 648.0,30 640,30 640,40 " style="fill:#FFFFFF; stroke-width:1; stroke:black; "  />
</g>
<g id="q2_59_18"  >
<polygon points="655,40 671.0,40 676,35.0 671.0,30 655,30 655,40 " style="fill:#FFFFFF; stroke-width:1; stroke:black; "  />
</g>
<g id="q2_59_19"  >
<polygon points="675,40 683.0,40 688,35.0 683.0,30 675,30 675,40 " style="fill:#FFFFFF; stroke-width:1; stroke:black; "  />
</g>
<g id="q2_59_20"  >
<polygon points="688,40 694.0,40 699,35.0 694.0,30 688,30 688,40 " style="fill:#FFFFFF; stroke-width:1; stroke:black; "  />
</g>
<g id="q2_59_21"  >
<polygon points="698,40 714.0,40 719,35.0 714.0,30 698,30 698,40 " style="fill:rgb(191.25,191.25,63.75); stroke-width:1; stroke:black; "  />
</g>
<g id="q2_59_22"  >
<polygon points="719,40 730.0,40 735,35.0 730.0,30 719,30 719,40 " style="fill:rgb(191.25,191.25,191.25); stroke-width:1; stroke:black; "  />
</g>
<g id="q2_59_23"  >
<polygon points="734,40 737,35.0 734,30 734,40 " style="fill:#FFFFFF; stroke-width:1; stroke:black; "  />
</g>
<g id="q2_59_24"  >
<polygon points="737,35.0 742.0,30 745,30 745,40 742.0,40 737,35.0 " style="fill:rgb(63.75,191.25,191.25); stroke-width:1; stroke:black; "  />
</g>
<g id="q2_59_25"  >
<polygon points="747,40 753.0,40 758,35.0 753.0,30 747,30 747,40 " style="fill:#FFFFFF; stroke-width:1; stroke:black; "  />
</g>
<g id="q2_59_26"  >
<polygon points="757,35.0 762.0,30 769,30 769,40 762.0,40 757,35.0 " style="fill:#FFFFFF; stroke-width:1; stroke:black; "  />
</g>
<g id="q2_59_27"  >
<polygon points="770,40 773.0,40 778,35.0 773.0,30 770,30 770,40 " style="fill:rgb(63.75,63.75,63.75); stroke-width:1; stroke:black; "  />
</g>
<g  >
<line x1="10" y1="85" x2="778.0" y2="85" style="stroke-width:1; stroke:grey; "  />
</g>
<g id="h2_59_0"  >
<polygon points="127,90 129.0,90 134,85.0 129.0,80 127,80 127,90 " style="fill:#FFFFFF; stroke-width:1; stroke:black; "  />
</g>
<g id="h2_59_1"  >
<polygon points="136,85.0 141.0,80 145,80 145,90 141.0,90 136,85.0 " style="fill:#FFFFFF; stroke-width:1; stroke:black; "  />
</g>
<g id="h2_59_2"  >
<polygon points="148,85.0 153.0,80 166,80 166,90 153.0,90 148,85.0 " style="fill:#FFFFFF; stroke-width:1; stroke:black; "  />
</g>
<g id="h2_59_3"  >
<polygon points="167,85.0 172.0,80 198,80 198,90 172.0,90 167,85.0 " style="fill:#FFFFFF; stroke-width:1; stroke:black; "  />
</g>
<g id="h2_59_4"  >
<polygon points="201,85.0 204,80 204,90 201,85.0 " style="fill:#FFFFFF; stroke-width:1; stroke:black; "  />
</g>
<g id="h2_59_5"  >
<polygon points="207,85.0 212.0,80 219,80 219,90 212.0,90 207,85.0 " style="fill:#FFFFFF; stroke-width:1; stroke:black; "  />
</g>
<g id="h2_59_6"  >
<polygon points="220,85.0 225.0,80 231,80 231,90 225.0,90 220,85.0 " style="fill:#FFFFFF; stroke-width:1; stroke:black; "  />
</g>
<g id="h2_59_7"  >
<polygon points="233,90 237,85.0 233,80 233,90 " style="fill:#FFFFFF; stroke-width:1; stroke:black; "  />
</g>
<g id="h2_59_8"  >
<polygon points="238,85.0 243.0,80 255,80 255,90 243.0,90 238,85.0 " style="fill:#FFFFFF; stroke-width:1; stroke:black; "  />
</g>
<g id="h2_59_9"  >
<polygon points="262,85.0 265,80 265,90 262,85.0 " style="fill:#FFFFFF; stroke-width:1; stroke:black; "  />
</g>
<g id="h2_59_10"  >
<polygon points="265,85.0 270.0,80 270,80 270,90 270.0,90 265,85.0 " style="fill:#FFFFFF; stroke-width:1; stroke:black; "  />
</g>
<g id="h2_59_11"  >
<polygon points="271,85.0 276.0,80 286,80 286,90 276.0,90 271,85.0 " style="fill:#FFFFFF; stroke-width:1; stroke:black; "  />
</g>
<g id="h2_59_12"  >
<polygon points="286,85.0 291.0,80 293,80 293,90 291.0,90 286,85.0 " style="fill:#FFFFFF; stroke-width:1; stroke:black; "  />
</g>
<g id="h2_59_13"  >
<polygon points="295,85.0 298,80 298,90 295,85.0 " style="fill:#FFFFFF; stroke-width:1; stroke:black; "  />
</g>
<g id="h2_59_14"  >
<polygon points="300,85.0 305.0,80 338,80 338,90 305.0,90 300,85.0 " style="fill:#FFFFFF; stroke-width:1; stroke:black; "  />
</g>
<g id="h2_59_15"  >
<polygon points="340,85.0 344,80 344,90 340,85.0 " style="fill:#FFFFFF; stroke-width:1; stroke:black; "  />
</g>
<g id="h2_59_16"  >
<polygon points="344,85.0 349.0,80 358,80 358,90 349.0,90 344,85.0 " style="fill:#FFFFFF; stroke-width:1; stroke:black; "  />
</g>
<g id="h2_59_17"  >
<polygon points="357,85.0 362.0,80 364,80 364,90 362.0,90 357,85.0 " style="fill:#FFFFFF; stroke-width:1; stroke:black; "  />
</g>
<g id="h2_59_18"  >
<polygon points="369,90 370.0,90 375,85.0 370.0,80 369,80 369,90 " style="fill:#FFFFFF; stroke-width:1; stroke:black; "  />
</g>
<g id="h2_59_19"  >
<polygon points="375,90 375.0,90 380,85.0 375.0,80 375,80 375,90 " style="fill:#FFFFFF; stroke-width:1; stroke:black; "  />
</g>
<g id="h2_59_20"  >
<polygon points="381,90 384.0,90 389,85.0 384.0,80 381,80 381,90 " style="fill:#FFFFFF; stroke-width:1; stroke:black; "  />
</g>
<g id="h2_59_21"  >
<polygon points="389,90 394.0,90 399,85.0 394.0,80 389,80 389,90 " style="fill:rgb(191.25,191.25,63.75); stroke-width:1; stroke:black; "  />
</g>
<g id="h2_59_22"  >
<polygon points="399,90 430.0,90 435,85.0 430.0,80 399,80 399,90 " style="fill:#FFFFFF; stroke-width:1; stroke:black; "  />
</g>
<g id="h2_59_23"  >
<polygon points="435,90 436.0,90 441,85.0 436.0,80 435,80 435,90 " style="fill:#FFFFFF; stroke-width:1; stroke:black; "  />
</g>
<g id="h2_59_24"  >
<polygon points="443,85.0 448.0,80 453,80 453,90 448.0,90 443,85.0 " style="fill:#FFFFFF; stroke-width:1; stroke:black; "  />
</g>
<g id="h2_59_25"  >
<polygon points="453,85.0 458.0,80 464,80 464,90 458.0,90 453,85.0 " style="fill:#FFFFFF; stroke-width:1; stroke:black; "  />
</g>
<g id="h2_59_26"  >
<polygon points="465,90 469,85.0 465,80 465,90 " style="fill:#FFFFFF; stroke-width:1; stroke:black; "  />
</g>
<g id="h2_59_27"  >
<polygon points="469,85.0 474.0,80 515,80 515,90 474.0,90 469,85.0 " style="fill:#FFFFFF; stroke-width:1; stroke:black; "  />
</g>
<g id="h2_59_28"  >
<polygon points="519,85.0 524.0,80 529,80 529,90 524.0,90 519,85.0 " style="fill:#FFFFFF; stroke-width:1; stroke:black; "  />
</g>
<g id="h2_59_29"  >
<polygon points="529,85.0 534.0,80 544,80 544,90 534.0,90 529,85.0 " style="fill:#FFFFFF; stroke-width:1; stroke:black; "  />
</g>
<g id="h2_59_30"  >
<polygon points="549,85.0 554.0,80 567,80 567,90 554.0,90 549,85.0 " style="fill:#FFFFFF; stroke-width:1; stroke:black; "  />
</g>
<g id="h2_59_31"  >
<polygon points="568,85.0 571,80 571,90 568,85.0 " style="fill:#FFFFFF; stroke-width:1; stroke:black; "  />
</g>
<g id="h2_59_32"  >
<polygon points="575,90 580.0,90 585,85.0 580.0,80 575,80 575,90 " style="fill:#FFFFFF; stroke-width:1; stroke:black; "  />
</g>
<g id="h2_59_33"  >
<polygon points="585,90 587,85.0 585,80 585,90 " style="fill:#FFFFFF; stroke-width:1; stroke:black; "  />
</g>
<g id="h2_59_34"  >
<polygon points="588,90 592,85.0 588,80 588,90 " style="fill:#FFFFFF; stroke-width:1; stroke:black; "  />
</g>
<g id="h2_59_35"  >
<polygon points="593,90 603.0,90 608,85.0 603.0,80 593,80 593,90 " style="fill:#FFFFFF; stroke-width:1; stroke:black; "  />
</g>
<g id="h2_59_36"  >
<polygon points="608,85.0 613.0,80 614,80 614,90 613.0,90 608,85.0 " style="fill:#FFFFFF; stroke-width:1; stroke:black; "  />
</g>
<g id="h2_59_37"  >
<polygon points="615,90 616.0,90 621,85.0 616.0,80 615,80 615,90 " style="fill:#FFFFFF; stroke-width:1; stroke:black; "  />
</g>
<g id="h2_59_38"  >
<polygon points="624,90 624.0,90 629,85.0 624.0,80 624,80 624,90 " style="fill:#FFFFFF; stroke-width:1; stroke:black; "  />
</g>
<g id="h2_59_39"  >
<polygon points="629,85.0 632,80 632,90 629,85.0 " style="fill:#FFFFFF; stroke-width:1; stroke:black; "  />
</g>
<g id="h2_59_40"  >
<polygon points="633,90 637,85.0 633,80 633,90 " style="fill:#FFFFFF; stroke-width:1; stroke:black; "  />
</g>
<g id="h2_59_41"  >
<polygon points="637,90 646.0,90 651,85.0 646.0,80 637,80 637,90 " style="fill:#FFFFFF; stroke-width:1; stroke:black; "  />
</g>
<g id="h2_59_42"  >
<polygon points="652,90 655.0,90 660,85.0 655.0,80 652,80 652,90 " style="fill:#FFFFFF; stroke-width:1; stroke:black; "  />
</g>
</svg>
