<svg xmlns="http://www.w3.org/2000/svg" xmlns:xlink="http://www.w3.org/1999/xlink" version="1.1" x="0" y="0" height="2770" width="768.0" viewBox="0 0 819.2 2680" preserveAspectRatio="none"  >
<g  >
<line x1="10" y1="35" x2="778.0" y2="35" style="stroke-width:1; stroke:grey; "  />
</g>
<g id="q1_37_0"  >
<polygon points="10,40 19.0,40 24,35.0 19.0,30 10,30 10,40 " style="fill:rgb(212.5,42.5,42.5); stroke-width:1; stroke:black; "  />
</g>
<g id="q1_37_1"  >
<polygon points="25,40 28.0,40 33,35.0 28.0,30 25,30 25,40 " style="fill:#FFFFFF; stroke-width:1; stroke:black; "  />
</g>
<g id="q1_37_2"  >
<polygon points="34,40 39.0,40 44,35.0 39.0,30 34,30 34,40 " style="fill:rgb(127.5,127.5,42.5); stroke-width:1; stroke:black; "  />
</g>
<g id="q1_37_3"  >
<polygon points="44,35.0 49.0,30 59,30 59,40 49.0,40 44,35.0 " style="fill:rgb(127.5,42.5,42.5); stroke-width:1; stroke:black; "  />
</g>
<g id="q1_37_4"  >
<polygon points="60,35.0 65.0,30 95,30 95,40 65.0,40 60,35.0 " style="fill:rgb(42.5,212.5,42.5); stroke-width:1; stroke:black; "  />
</g>
<g id="q1_37_5"  >
<polygon points="99,40 104.0,40 109,35.0 104.0,30 99,30 99,40 " style="fill:rgb(127.5,127.5,42.5); stroke-width:1; stroke:black; "  />
</g>
<g id="q1_37_6"  >
<polygon points="115,35.0 120.0,30 139,30 139,40 120.0,40 115,35.0 " style="fill:rgb(42.5,127.5,212.5); stroke-width:1; stroke:black; "  />
</g>
<g id="q1_37_7"  >
<polygon points="140,40 149.0,40 154,35.0 149.0,30 140,30 140,40 " style="fill:rgb(42.5,42.5,42.5); stroke-width:1; stroke:black; "  />
</g>
<g id="q1_37_8"  >
<polygon points="154,40 173.0,40 178,35.0 173.0,30 154,30 154,40 " style="fill:rgb(212.5,212.5,42.5); stroke-width:1; stroke:black; "  />
</g>
<g id="q1_37_9"  >
<polygon points="178,40 181,35.0 178,30 178,40 " style="fill:rgb(42.5,42.5,127.5); stroke-width:1; stroke:black; "  />
</g>
<g id="q1_37_10"  >
<polygon points="181,40 186.0,40 191,35.0 186.0,30 181,30 181,40 " style="fill:rgb(212.5,42.5,127.5); stroke-width:1; stroke:black; "  />
</g>
<g id="q1_37_11"  >
<polygon points="191,40 199.0,40 204,35.0 199.0,30 191,30 191,40 " style="fill:rgb(127.5,127.5,212.5); stroke-width:1; stroke:black; "  />
</g>
<g id="q1_37_12"  >
<polygon points="204,40 424.0,40 429,35.0 424.0,30 204,30 204,40 " style="fill:rgb(42.5,212.5,212.5); stroke-width:1; stroke:black; "  />
</g>
<g id="q1_37_13"  >
<polygon points="430,40 567.0,40 572,35.0 567.0,30 430,30 430,40 " style="fill:rgb(42.5,212.5,212.5); stroke-width:1; stroke:black; "  />
</g>
<g id="q1_37_14"  >
<polygon points="572,40 605.0,40 610,35.0 605.0,30 572,30 572,40 " style="fill:rgb(42.5,212.5,212.5); stroke-width:1; stroke:black; "  />
</g>
<g id="q1_37_15"  >
<polygon points="611,35.0 616.0,30 620,30 620,40 616.0,40 611,35.0 " style="fill:rgb(212.5,42.5,212.5); stroke-width:1; stroke:black; "  />
</g>
<g id="q1_37_16"  >
<polygon points="621,40 634.0,40 639,35.0 634.0,30 621,30 621,40 " style="fill:rgb(42.5,42.5,212.5); stroke-width:1; stroke:black; "  />
</g>
<g id="q1_37_17"  >
<polygon points="640,40 648.0,40 653,35.0 648.0,30 640,30 640,40 " style="fill:rgb(212.5,212.5,212.5); stroke-width:1; stroke:black; "  />
</g>
<g id="q1_37_18"  >
<polygon points="655,40 671.0,40 676,35.0 671.0,30 655,30 655,40 " style="fill:rgb(212.5,212.5,127.5); stroke-width:1; stroke:black; "  />
</g>
<g id="q1_37_19"  >
<polygon points="675,40 683.0,40 688,35.0 683.0,30 675,30 675,40 " style="fill:rgb(42.5,127.5,42.5); stroke-width:1; stroke:black; "  />
</g>
<g id="q1_37_20"  >
<polygon points="688,40 694.0,40 699,35.0 694.0,30 688,30 688,40 " style="fill:rgb(127.5,127.5,127.5); stroke-width:1; stroke:black; "  />
</g>
<g id="q1_37_21"  >
<polygon points="698,40 714.0,40 719,35.0 714.0,30 698,30 698,40 " style="fill:rgb(42.5,212.5,127.5); stroke-width:1; stroke:black; "  />
</g>
<g id="q1_37_22"  >
<polygon points="719,40 730.0,40 735,35.0 730.0,30 719,30 719,40 " style="fill:rgb(127.5,42.5,42.5); stroke-width:1; stroke:black; "  />
</g>
<g id="q1_37_23"  >
<polygon points="734,40 737,35.0 734,30 734,40 " style="fill:rgb(127.5,42.5,127.5); stroke-width:1; stroke:black; "  />
</g>
<g id="q1_37_24"  >
<polygon points="737,35.0 742.0,30 745,30 745,40 742.0,40 737,35.0 " style="fill:rgb(42.5,127.5,127.5); stroke-width:1; stroke:black; "  />
</g>
<g id="q1_37_25"  >
<polygon points="747,40 753.0,40 758,35.0 753.0,30 747,30 747,40 " style="fill:rgb(212.5,127.5,42.5); stroke-width:1; stroke:black; "  />
</g>
<g id="q1_37_26"  >
<polygon points="757,35.0 762.0,30 769,30 769,40 762.0,40 757,35.0 " style="fill:rgb(42.5,212.5,212.5); stroke-width:1; stroke:black; "  />
</g>
<g id="q1_37_27"  >
<polygon points="770,40 773.0,40 778,35.0 773.0,30 770,30 770,40 " style="fill:rgb(212.5,127.5,212.5); stroke-width:1; stroke:black; "  />
</g>
<g  >
<line x1="10" y1="85" x2="778.0" y2="85" style="stroke-width:1; stroke:grey; "  />
</g>
<g id="h1_37_0"  >
<polygon points="25,90 34.0,90 39,85.0 34.0,80 25,80 25,90 " style="fill:#FFFFFF; stroke-width:1; stroke:black; "  />
</g>
<g id="h1_37_1"  >
<polygon points="39,90 41.0,90 46,85.0 41.0,80 39,80 39,90 " style="fill:#FFFFFF; stroke-width:1; stroke:black; "  />
</g>
<g id="h1_37_2"  >
<polygon points="51,90 53.0,90 58,85.0 53.0,80 51,80 51,90 " style="fill:#FFFFFF; stroke-width:1; stroke:black; "  />
</g>
<g id="h1_37_3"  >
<polygon points="60,85.0 65.0,80 71,80 71,90 65.0,90 60,85.0 " style="fill:#FFFFFF; stroke-width:1; stroke:black; "  />
</g>
<g id="h1_37_4"  >
<polygon points="71,85.0 76.0,80 78,80 78,90 76.0,90 71,85.0 " style="fill:#FFFFFF; stroke-width:1; stroke:black; "  />
</g>
<g id="h1_37_5"  >
<polygon points="78,85.0 80,80 80,90 78,85.0 " style="fill:#FFFFFF; stroke-width:1; stroke:black; "  />
</g>
<g id="h1_37_6"  >
<polygon points="81,85.0 86.0,80 86,80 86,90 86.0,90 81,85.0 " style="fill:#FFFFFF; stroke-width:1; stroke:black; "  />
</g>
<g id="h1_37_7"  >
<polygon points="86,90 90.0,90 95,85.0 90.0,80 86,80 86,90 " style="fill:#FFFFFF; stroke-width:1; stroke:black; "  />
</g>
<g id="h1_37_8"  >
<polygon points="99,90 100.0,90 105,85.0 100.0,80 99,80 99,90 " style="fill:#FFFFFF; stroke-width:1; stroke:black; "  />
</g>
<g id="h1_37_9"  >
<polygon points="106,85.0 111.0,80 116,80 116,90 111.0,90 106,85.0 " style="fill:#FFFFFF; stroke-width:1; stroke:black; "  />
</g>
<g id="h1_37_10"  >
<polygon points="120,90 121.0,90 126,85.0 121.0,80 120,80 120,90 " style="fill:#FFFFFF; stroke-width:1; stroke:black; "  />
</g>
<g id="h1_37_11"  >
<polygon points="128,90 133.0,90 138,85.0 133.0,80 128,80 128,90 " style="fill:#FFFFFF; stroke-width:1; stroke:black; "  />
</g>
<g id="h1_37_12"  >
<polygon points="142,90 143.0,90 148,85.0 143.0,80 142,80 142,90 " style="fill:#FFFFFF; stroke-width:1; stroke:black; "  />
</g>
<g id="h1_37_13"  >
<polygon points="148,90 151.0,90 156,85.0 151.0,80 148,80 148,90 " style="fill:#FFFFFF; stroke-width:1; stroke:black; "  />
</g>
<g id="h1_37_14"  >
<polygon points="162,90 166.0,90 171,85.0 166.0,80 162,80 162,90 " style="fill:#FFFFFF; stroke-width:1; stroke:black; "  />
</g>
<g id="h1_37_15"  >
<polygon points="173,85.0 176,80 176,90 173,85.0 " style="fill:#FFFFFF; stroke-width:1; stroke:black; "  />
</g>
<g id="h1_37_16"  >
<polygon points="178,90 182.0,90 187,85.0 182.0,80 178,80 178,90 " style="fill:#FFFFFF; stroke-width:1; stroke:black; "  />
</g>
<g id="h1_37_17"  >
<polygon points="191,85.0 196.0,80 202,80 202,90 196.0,90 191,85.0 " style="fill:#FFFFFF; stroke-width:1; stroke:black; "  />
</g>
<g id="h1_37_18"  >
<polygon points="202,85.0 205,80 205,90 202,85.0 " style="fill:#FFFFFF; stroke-width:1; stroke:black; "  />
</g>
<g id="h1_37_19"  >
<polygon points="212,85.0 216,80 216,90 212,85.0 " style="fill:#FFFFFF; stroke-width:1; stroke:black; "  />
</g>
<g id="h1_37_20"  >
<polygon points="217,90 221,85.0 217,80 217,90 " style="fill:#FFFFFF; stroke-width:1; stroke:black; "  />
</g>
<g id="h1_37_21"  >
<polygon points="221,90 227.0,90 232,85.0 227.0,80 221,80 221,90 " style="fill:#FFFFFF; stroke-width:1; stroke:black; "  />
</g>
<g id="h1_37_22"  >
<polygon points="239,85.0 244.0,80 253,80 253,90 244.0,90 239,85.0 " style="fill:#FFFFFF; stroke-width:1; stroke:black; "  />
</g>
<g id="h1_37_23"  >
<polygon points="254,85.0 259.0,80 259,80 259,90 259.0,90 254,85.0 " style="fill:#FFFFFF; stroke-width:1; stroke:black; "  />
</g>
<g id="h1_37_24"  >
<polygon points="263,85.0 268.0,80 271,80 271,90 268.0,90 263,85.0 " style="fill:#FFFFFF; stroke-width:1; stroke:black; "  />
</g>
<g id="h1_37_25"  >
<polygon points="271,85.0 276.0,80 280,80 280,90 276.0,90 271,85.0 " style="fill:#FFFFFF; stroke-width:1; stroke:black; "  />
</g>
<g id="h1_37_26"  >
<polygon points="285,85.0 290.0,80 297,80 297,90 290.0,90 285,85.0 " style="fill:#FFFFFF; stroke-width:1; stroke:black; "  />
</g>
<g id="h1_37_27"  >
<polygon points="297,85.0 302.0,80 306,80 306,90 302.0,90 297,85.0 " style="fill:rgb(42.5,212.5,127.5); stroke-width:1; stroke:black; "  />
</g>
<g id="h1_37_28"  >
<polygon points="306,85.0 311.0,80 319,80 319,90 311.0,90 306,85.0 " style="fill:#FFFFFF; stroke-width:1; stroke:black; "  />
</g>
<g id="h1_37_29"  >
<polygon points="319,85.0 324.0,80 340,80 340,90 324.0,90 319,85.0 " style="fill:#FFFFFF; stroke-width:1; stroke:black; "  />
</g>
<g id="h1_37_30"  >
<polygon points="339,85.0 344.0,80 360,80 360,90 344.0,90 339,85.0 " style="fill:#FFFFFF; stroke-width:1; stroke:black; "  />
</g>
<g id="h1_37_31"  >
<polygon points="362,85.0 367.0,80 376,80 376,90 367.0,90 362,85.0 " style="fill:#FFFFFF; stroke-width:1; stroke:black; "  />
</g>
<g id="h1_37_32"  >
<polygon points="378,85.0 383.0,80 397,80 397,90 383.0,90 378,85.0 " style="fill:#FFFFFF; stroke-width:1; stroke:black; "  />
</g>
<g id="h1_37_33"  >
<polygon points="398,85.0 401,80 401,90 398,85.0 " style="fill:#FFFFFF; stroke-width:1; stroke:black; "  />
</g>
<g id="h1_37_34"  >
<polygon points="401,85.0 404,80 404,90 401,85.0 " style="fill:#FFFFFF; stroke-width:1; stroke:black; "  />
</g>
<g id="h1_37_35"  >
<polygon points="404,85.0 407,80 407,90 404,85.0 " style="fill:#FFFFFF; stroke-width:1; stroke:black; "  />
</g>
<g id="h1_37_36"  >
<polygon points="407,85.0 412.0,80 414,80 414,90 412.0,90 407,85.0 " style="fill:#FFFFFF; stroke-width:1; stroke:black; "  />
</g>
<g id="h1_37_37"  >
<polygon points="415,90 427.0,90 432,85.0 427.0,80 415,80 415,90 " style="fill:#FFFFFF; stroke-width:1; stroke:black; "  />
</g>
<g id="h1_37_38"  >
<polygon points="432,90 435,85.0 432,80 432,90 " style="fill:#FFFFFF; stroke-width:1; stroke:black; "  />
</g>
<g id="h1_37_39"  >
<polygon points="438,90 445.0,90 450,85.0 445.0,80 438,80 438,90 " style="fill:#FFFFFF; stroke-width:1; stroke:black; "  />
</g>
<g id="h1_37_40"  >
<polygon points="451,85.0 456.0,80 457,80 457,90 456.0,90 451,85.0 " style="fill:#FFFFFF; stroke-width:1; stroke:black; "  />
</g>
<g id="h1_37_41"  >
<polygon points="458,85.0 463.0,80 465,80 465,90 463.0,90 458,85.0 " style="fill:#FFFFFF; stroke-width:1; stroke:black; "  />
</g>
<g id="h1_37_42"  >
<polygon points="467,90 471,85.0 467,80 467,90 " style="fill:#FFFFFF; stroke-width:1; stroke:black; "  />
</g>
<g id="h1_37_43"  >
<polygon points="474,90 481.0,90 486,85.0 481.0,80 474,80 474,90 " style="fill:rgb(42.5,212.5,127.5); stroke-width:1; stroke:black; "  />
</g>
<g id="h1_37_44"  >
<polygon points="486,90 491.0,90 496,85.0 491.0,80 486,80 486,90 " style="fill:rgb(42.5,212.5,127.5); stroke-width:1; stroke:black; "  />
</g>
<g id="h1_37_45"  >
<polygon points="496,90 532.0,90 537,85.0 532.0,80 496,80 496,90 " style="fill:#FFFFFF; stroke-width:1; stroke:black; "  />
</g>
<g id="h1_37_46"  >
<polygon points="537,90 568.0,90 573,85.0 568.0,80 537,80 537,90 " style="fill:#FFFFFF; stroke-width:1; stroke:black; "  />
</g>
<g id="h1_37_47"  >
<polygon points="579,90 580.0,90 585,85.0 580.0,80 579,80 579,90 " style="fill:#FFFFFF; stroke-width:1; stroke:black; "  />
</g>
<g id="h1_37_48"  >
<polygon points="588,90 592.0,90 597,85.0 592.0,80 588,80 588,90 " style="fill:#FFFFFF; stroke-width:1; stroke:black; "  />
</g>
<g id="h1_37_49"  >
<polygon points="598,90 600.0,90 605,85.0 600.0,80 598,80 598,90 " style="fill:#FFFFFF; stroke-width:1; stroke:black; "  />
</g>
<g id="h1_37_50"  >
<polygon points="606,90 623.0,90 628,85.0 623.0,80 606,80 606,90 " style="fill:#FFFFFF; stroke-width:1; stroke:black; "  />
</g>
<g id="h1_37_51"  >
<polygon points="628,90 633.0,90 638,85.0 633.0,80 628,80 628,90 " style="fill:#FFFFFF; stroke-width:1; stroke:black; "  />
</g>
<g id="h1_37_52"  >
<polygon points="640,90 644.0,90 649,85.0 644.0,80 640,80 640,90 " style="fill:#FFFFFF; stroke-width:1; stroke:black; "  />
</g>
<g id="h1_37_53"  >
<polygon points="650,85.0 655.0,80 661,80 661,90 655.0,90 650,85.0 " style="fill:#FFFFFF; stroke-width:1; stroke:black; "  />
</g>
<g id="h1_37_54"  >
<polygon points="661,85.0 666.0,80 669,80 669,90 666.0,90 661,85.0 " style="fill:#FFFFFF; stroke-width:1; stroke:black; "  />
</g>
<g id="h1_37_55"  >
<polygon points="669,85.0 674.0,80 682,80 682,90 674.0,90 669,85.0 " style="fill:#FFFFFF; stroke-width:1; stroke:black; "  />
</g>
<g id="h1_37_56"  >
<polygon points="683,90 699.0,90 704,85.0 699.0,80 683,80 683,90 " style="fill:#FFFFFF; stroke-width:1; stroke:black; "  />
</g>
<g id="h1_37_57"  >
<polygon points="704,90 713.0,90 718,85.0 713.0,80 704,80 704,90 " style="fill:#FFFFFF; stroke-width:1; stroke:black; "  />
</g>
<g id="h1_37_58"  >
<polygon points="718,90 726.0,90 731,85.0 726.0,80 718,80 718,90 " style="fill:#FFFFFF; stroke-width:1; stroke:black; "  />
</g>
<g id="h1_37_59"  >
<polygon points="732,90 741.0,90 746,85.0 741.0,80 732,80 732,90 " style="fill:#FFFFFF; stroke-width:1; stroke:black; "  />
</g>
<g id="h1_37_60"  >
<polygon points="748,90 757.0,90 762,85.0 757.0,80 748,80 748,90 " style="fill:#FFFFFF; stroke-width:1; stroke:black; "  />
</g>
</svg>
