<svg xmlns="http://www.w3.org/2000/svg" xmlns:xlink="http://www.w3.org/1999/xlink" version="1.1" x="0" y="0" height="2770" width="768.0" viewBox="0 0 819.2 2680" preserveAspectRatio="none"  >
<g  >
<line x1="10" y1="35" x2="778.0" y2="35" style="stroke-width:1; stroke:grey; "  />
</g>
<g id="q1_18_0"  >
<polygon points="10,40 19.0,40 24,35.0 19.0,30 10,30 10,40 " style="fill:rgb(212.5,42.5,42.5); stroke-width:1; stroke:black; "  />
</g>
<g id="q1_18_1"  >
<polygon points="25,40 28.0,40 33,35.0 28.0,30 25,30 25,40 " style="fill:#FFFFFF; stroke-width:1; stroke:black; "  />
</g>
<g id="q1_18_2"  >
<polygon points="34,40 39.0,40 44,35.0 39.0,30 34,30 34,40 " style="fill:rgb(127.5,127.5,42.5); stroke-width:1; stroke:black; "  />
</g>
<g id="q1_18_3"  >
<polygon points="44,35.0 49.0,30 59,30 59,40 49.0,40 44,35.0 " style="fill:rgb(127.5,42.5,42.5); stroke-width:1; stroke:black; "  />
</g>
<g id="q1_18_4"  >
<polygon points="60,35.0 65.0,30 95,30 95,40 65.0,40 60,35.0 " style="fill:rgb(42.5,212.5,42.5); stroke-width:1; stroke:black; "  />
</g>
<g id="q1_18_5"  >
<polygon points="99,40 104.0,40 109,35.0 104.0,30 99,30 99,40 " style="fill:rgb(127.5,127.5,42.5); stroke-width:1; stroke:black; "  />
</g>
<g id="q1_18_6"  >
<polygon points="115,35.0 120.0,30 139,30 139,40 120.0,40 115,35.0 " style="fill:rgb(42.5,127.5,212.5); stroke-width:1; stroke:black; "  />
</g>
<g id="q1_18_7"  >
<polygon points="140,40 149.0,40 154,35.0 149.0,30 140,30 140,40 " style="fill:rgb(42.5,42.5,42.5); stroke-width:1; stroke:black; "  />
</g>
<g id="q1_18_8"  >
<polygon points="154,40 173.0,40 178,35.0 173.0,30 154,30 154,40 " style="fill:rgb(212.5,212.5,42.5); stroke-width:1; stroke:black; "  />
</g>
<g id="q1_18_9"  >
<polygon points="178,40 181,35.0 178,30 178,40 " style="fill:rgb(42.5,42.5,127.5); stroke-width:1; stroke:black; "  />
</g>
<g id="q1_18_10"  >
<polygon points="181,40 186.0,40 191,35.0 186.0,30 181,30 181,40 " style="fill:rgb(212.5,42.5,127.5); stroke-width:1; stroke:black; "  />
</g>
<g id="q1_18_11"  >
<polygon points="191,40 199.0,40 204,35.0 199.0,30 191,30 191,40 " style="fill:rgb(127.5,127.5,212.5); stroke-width:1; stroke:black; "  />
</g>
<g id="q1_18_12"  >
<polygon points="204,40 424.0,40 429,35.0 424.0,30 204,30 204,40 " style="fill:rgb(42.5,212.5,212.5); stroke-width:1; stroke:black; "  />
</g>
<g id="q1_18_13"  >
<polygon points="430,40 567.0,40 572,35.0 567.0,30 430,30 430,40 " style="fill:rgb(42.5,212.5,212.5); stroke-width:1; stroke:black; "  />
</g>
<g id="q1_18_14"  >
<polygon points="572,40 605.0,40 610,35.0 605.0,30 572,30 572,40 " style="fill:rgb(42.5,212.5,212.5); stroke-width:1; stroke:black; "  />
</g>
<g id="q1_18_15"  >
<polygon points="611,35.0 616.0,30 620,30 620,40 616.0,40 611,35.0 " style="fill:rgb(212.5,42.5,212.5); stroke-width:1; stroke:black; "  />
</g>
<g id="q1_18_16"  >
<polygon points="621,40 634.0,40 639,35.0 634.0,30 621,30 621,40 " style="fill:rgb(42.5,42.5,212.5); stroke-width:1; stroke:black; "  />
</g>
<g id="q1_18_17"  >
<polygon points="640,40 648.0,40 653,35.0 648.0,30 640,30 640,40 " style="fill:rgb(212.5,212.5,212.5); stroke-width:1; stroke:black; "  />
</g>
<g id="q1_18_18"  >
<polygon points="655,40 671.0,40 676,35.0 671.0,30 655,30 655,40 " style="fill:rgb(212.5,212.5,127.5); stroke-width:1; stroke:black; "  />
</g>
<g id="q1_18_19"  >
<polygon points="675,40 683.0,40 688,35.0 683.0,30 675,30 675,40 " style="fill:rgb(42.5,127.5,42.5); stroke-width:1; stroke:black; "  />
</g>
<g id="q1_18_20"  >
<polygon points="688,40 694.0,40 699,35.0 694.0,30 688,30 688,40 " style="fill:rgb(127.5,127.5,127.5); stroke-width:1; stroke:black; "  />
</g>
<g id="q1_18_21"  >
<polygon points="698,40 714.0,40 719,35.0 714.0,30 698,30 698,40 " style="fill:rgb(42.5,212.5,127.5); stroke-width:1; stroke:black; "  />
</g>
<g id="q1_18_22"  >
<polygon points="719,40 730.0,40 735,35.0 730.0,30 719,30 719,40 " style="fill:rgb(127.5,42.5,42.5); stroke-width:1; stroke:black; "  />
</g>
<g id="q1_18_23"  >
<polygon points="734,40 737,35.0 734,30 734,40 " style="fill:rgb(127.5,42.5,127.5); stroke-width:1; stroke:black; "  />
</g>
<g id="q1_18_24"  >
<polygon points="737,35.0 742.0,30 745,30 745,40 742.0,40 737,35.0 " style="fill:rgb(42.5,127.5,127.5); stroke-width:1; stroke:black; "  />
</g>
<g id="q1_18_25"  >
<polygon points="747,40 753.0,40 758,35.0 753.0,30 747,30 747,40 " style="fill:rgb(212.5,127.5,42.5); stroke-width:1; stroke:black; "  />
</g>
<g id="q1_18_26"  >
<polygon points="757,35.0 762.0,30 769,30 769,40 762.0,40 757,35.0 " style="fill:rgb(42.5,212.5,212.5); stroke-width:1; stroke:black; "  />
</g>
<g id="q1_18_27"  >
<polygon points="770,40 773.0,40 778,35.0 773.0,30 770,30 770,40 " style="fill:rgb(212.5,127.5,212.5); stroke-width:1; stroke:black; "  />
</g>
<g  >
<line x1="10" y1="85" x2="778.0" y2="85" style="stroke-width:1; stroke:grey; "  />
</g>
<g id="h1_18_0"  >
<polygon points="36,85.0 41.0,80 51,80 51,90 41.0,90 36,85.0 " style="fill:#FFFFFF; stroke-width:1; stroke:black; "  />
</g>
<g id="h1_18_1"  >
<polygon points="51,85.0 56.0,80 64,80 64,90 56.0,90 51,85.0 " style="fill:#FFFFFF; stroke-width:1; stroke:black; "  />
</g>
<g id="h1_18_2"  >
<polygon points="66,85.0 71.0,80 79,80 79,90 71.0,90 66,85.0 " style="fill:#FFFFFF; stroke-width:1; stroke:black; "  />
</g>
<g id="h1_18_3"  >
<polygon points="79,85.0 84.0,80 89,80 89,90 84.0,90 79,85.0 " style="fill:#FFFFFF; stroke-width:1; stroke:black; "  />
</g>
<g id="h1_18_4"  >
<polygon points="89,85.0 94.0,80 104,80 104,90 94.0,90 89,85.0 " style="fill:#FFFFFF; stroke-width:1; stroke:black; "  />
</g>
<g id="h1_18_5"  >
<polygon points="107,85.0 112.0,80 116,80 116,90 112.0,90 107,85.0 " style="fill:#FFFFFF; stroke-width:1; stroke:black; "  />
</g>
<g id="h1_18_6"  >
<polygon points="118,85.0 123.0,80 148,80 148,90 123.0,90 118,85.0 " style="fill:#FFFFFF; stroke-width:1; stroke:black; "  />
</g>
<g id="h1_18_7"  >
<polygon points="148,85.0 153.0,80 159,80 159,90 153.0,90 148,85.0 " style="fill:#FFFFFF; stroke-width:1; stroke:black; "  />
</g>
<g id="h1_18_8"  >
<polygon points="161,90 167.0,90 172,85.0 167.0,80 161,80 161,90 " style="fill:#FFFFFF; stroke-width:1; stroke:black; "  />
</g>
<g id="h1_18_9"  >
<polygon points="173,85.0 178.0,80 206,80 206,90 178.0,90 173,85.0 " style="fill:#FFFFFF; stroke-width:1; stroke:black; "  />
</g>
<g id="h1_18_10"  >
<polygon points="207,85.0 212.0,80 220,80 220,90 212.0,90 207,85.0 " style="fill:#FFFFFF; stroke-width:1; stroke:black; "  />
</g>
<g id="h1_18_11"  >
<polygon points="223,85.0 228.0,80 234,80 234,90 228.0,90 223,85.0 " style="fill:#FFFFFF; stroke-width:1; stroke:black; "  />
</g>
<g id="h1_18_12"  >
<polygon points="235,85.0 240.0,80 240,80 240,90 240.0,90 235,85.0 " style="fill:#FFFFFF; stroke-width:1; stroke:black; "  />
</g>
<g id="h1_18_13"  >
<polygon points="240,85.0 243,80 243,90 240,85.0 " style="fill:#FFFFFF; stroke-width:1; stroke:black; "  />
</g>
<g id="h1_18_14"  >
<polygon points="243,85.0 248.0,80 251,80 251,90 248.0,90 243,85.0 " style="fill:#FFFFFF; stroke-width:1; stroke:black; "  />
</g>
<g id="h1_18_15"  >
<polygon points="256,85.0 261.0,80 262,80 262,90 261.0,90 256,85.0 " style="fill:#FFFFFF; stroke-width:1; stroke:black; "  />
</g>
<g id="h1_18_16"  >
<polygon points="264,85.0 269.0,80 275,80 275,90 269.0,90 264,85.0 " style="fill:#FFFFFF; stroke-width:1; stroke:black; "  />
</g>
<g id="h1_18_17"  >
<polygon points="276,85.0 279,80 279,90 276,85.0 " style="fill:#FFFFFF; stroke-width:1; stroke:black; "  />
</g>
<g id="h1_18_18"  >
<polygon points="281,90 287.0,90 292,85.0 287.0,80 281,80 281,90 " style="fill:#FFFFFF; stroke-width:1; stroke:black; "  />
</g>
<g id="h1_18_19"  >
<polygon points="293,90 298.0,90 303,85.0 298.0,80 293,80 293,90 " style="fill:#FFFFFF; stroke-width:1; stroke:black; "  />
</g>
<g id="h1_18_20"  >
<polygon points="303,90 308.0,90 313,85.0 308.0,80 303,80 303,90 " style="fill:rgb(42.5,212.5,127.5); stroke-width:1; stroke:black; "  />
</g>
<g id="h1_18_21"  >
<polygon points="315,90 335.0,90 340,85.0 335.0,80 315,80 315,90 " style="fill:#FFFFFF; stroke-width:1; stroke:black; "  />
</g>
<g id="h1_18_22"  >
<polygon points="341,85.0 346.0,80 347,80 347,90 346.0,90 341,85.0 " style="fill:#FFFFFF; stroke-width:1; stroke:black; "  />
</g>
<g id="h1_18_23"  >
<polygon points="348,85.0 353.0,80 364,80 364,90 353.0,90 348,85.0 " style="fill:#FFFFFF; stroke-width:1; stroke:black; "  />
</g>
<g id="h1_18_24"  >
<polygon points="364,85.0 366,80 366,90 364,85.0 " style="fill:#FFFFFF; stroke-width:1; stroke:black; "  />
</g>
<g id="h1_18_25"  >
<polygon points="366,85.0 371.0,80 374,80 374,90 371.0,90 366,85.0 " style="fill:#FFFFFF; stroke-width:1; stroke:black; "  />
</g>
<g id="h1_18_26"  >
<polygon points="374,85.0 379.0,80 388,80 388,90 379.0,90 374,85.0 " style="fill:#FFFFFF; stroke-width:1; stroke:black; "  />
</g>
<g id="h1_18_27"  >
<polygon points="392,85.0 397.0,80 405,80 405,90 397.0,90 392,85.0 " style="fill:#FFFFFF; stroke-width:1; stroke:black; "  />
</g>
<g id="h1_18_28"  >
<polygon points="405,85.0 410.0,80 414,80 414,90 410.0,90 405,85.0 " style="fill:#FFFFFF; stroke-width:1; stroke:black; "  />
</g>
<g id="h1_18_29"  >
<polygon points="417,90 424.0,90 429,85.0 424.0,80 417,80 417,90 " style="fill:#FFFFFF; stroke-width:1; stroke:black; "  />
</g>
<g id="h1_18_30"  >
<polygon points="430,90 436.0,90 441,85.0 436.0,80 430,80 430,90 " style="fill:#FFFFFF; stroke-width:1; stroke:black; "  />
</g>
<g id="h1_18_31"  >
<polygon points="442,85.0 447.0,80 459,80 459,90 447.0,90 442,85.0 " style="fill:#FFFFFF; stroke-width:1; stroke:black; "  />
</g>
<g id="h1_18_32"  >
<polygon points="460,85.0 465.0,80 472,80 472,90 465.0,90 460,85.0 " style="fill:#FFFFFF; stroke-width:1; stroke:black; "  />
</g>
<g id="h1_18_33"  >
<polygon points="472,85.0 477.0,80 480,80 480,90 477.0,90 472,85.0 " style="fill:#FFFFFF; stroke-width:1; stroke:black; "  />
</g>
<g id="h1_18_34"  >
<polygon points="480,85.0 485.0,80 497,80 497,90 485.0,90 480,85.0 " style="fill:rgb(127.5,42.5,42.5); stroke-width:1; stroke:black; "  />
</g>
<g id="h1_18_35"  >
<polygon points="498,85.0 503.0,80 511,80 511,90 503.0,90 498,85.0 " style="fill:#FFFFFF; stroke-width:1; stroke:black; "  />
</g>
<g id="h1_18_36"  >
<polygon points="515,85.0 520.0,80 541,80 541,90 520.0,90 515,85.0 " style="fill:#FFFFFF; stroke-width:1; stroke:black; "  />
</g>
<g id="h1_18_37"  >
<polygon points="541,85.0 546.0,80 557,80 557,90 546.0,90 541,85.0 " style="fill:#FFFFFF; stroke-width:1; stroke:black; "  />
</g>
<g id="h1_18_38"  >
<polygon points="558,85.0 563.0,80 574,80 574,90 563.0,90 558,85.0 " style="fill:#FFFFFF; stroke-width:1; stroke:black; "  />
</g>
<g id="h1_18_39"  >
<polygon points="574,85.0 577,80 577,90 574,85.0 " style="fill:#FFFFFF; stroke-width:1; stroke:black; "  />
</g>
<g id="h1_18_40"  >
<polygon points="578,85.0 583.0,80 583,80 583,90 583.0,90 578,85.0 " style="fill:#FFFFFF; stroke-width:1; stroke:black; "  />
</g>
<g id="h1_18_41"  >
<polygon points="585,85.0 589,80 589,90 585,85.0 " style="fill:#FFFFFF; stroke-width:1; stroke:black; "  />
</g>
<g id="h1_18_42"  >
<polygon points="592,85.0 597.0,80 602,80 602,90 597.0,90 592,85.0 " style="fill:#FFFFFF; stroke-width:1; stroke:black; "  />
</g>
<g id="h1_18_43"  >
<polygon points="603,85.0 608.0,80 620,80 620,90 608.0,90 603,85.0 " style="fill:#FFFFFF; stroke-width:1; stroke:black; "  />
</g>
<g id="h1_18_44"  >
<polygon points="623,85.0 628.0,80 636,80 636,90 628.0,90 623,85.0 " style="fill:#FFFFFF; stroke-width:1; stroke:black; "  />
</g>
<g id="h1_18_45"  >
<polygon points="637,85.0 642.0,80 681,80 681,90 642.0,90 637,85.0 " style="fill:#FFFFFF; stroke-width:1; stroke:black; "  />
</g>
<g id="h1_18_46"  >
<polygon points="680,85.0 685.0,80 696,80 696,90 685.0,90 680,85.0 " style="fill:#FFFFFF; stroke-width:1; stroke:black; "  />
</g>
<g id="h1_18_47"  >
<polygon points="695,85.0 700.0,80 713,80 713,90 700.0,90 695,85.0 " style="fill:#FFFFFF; stroke-width:1; stroke:black; "  />
</g>
<g id="h1_18_48"  >
<polygon points="713,85.0 718.0,80 725,80 725,90 718.0,90 713,85.0 " style="fill:#FFFFFF; stroke-width:1; stroke:black; "  />
</g>
<g id="h1_18_49"  >
<polygon points="725,85.0 730.0,80 732,80 732,90 730.0,90 725,85.0 " style="fill:#FFFFFF; stroke-width:1; stroke:black; "  />
</g>
<g id="h1_18_50"  >
<polygon points="738,90 738.0,90 743,85.0 738.0,80 738,80 738,90 " style="fill:#FFFFFF; stroke-width:1; stroke:black; "  />
</g>
<g id="h1_18_51"  >
<polygon points="744,85.0 749.0,80 750,80 750,90 749.0,90 744,85.0 " style="fill:#FFFFFF; stroke-width:1; stroke:black; "  />
</g>
</svg>
