<svg xmlns="http://www.w3.org/2000/svg" xmlns:xlink="http://www.w3.org/1999/xlink" version="1.1" x="0" y="0" height="2770" width="768.0" viewBox="0 0 819.2 2680" preserveAspectRatio="none"  >
<g  >
<line x1="10" y1="35" x2="778.0" y2="35" style="stroke-width:1; stroke:grey; "  />
</g>
<g id="q1_3_0"  >
<polygon points="141,40 145.0,40 150,35.0 145.0,30 141,30 141,40 " style="fill:rgb(212.5,42.5,42.5); stroke-width:1; stroke:black; "  />
</g>
<g id="q1_3_1"  >
<polygon points="151,40 151.0,40 156,35.0 151.0,30 151,30 151,40 " style="fill:#FFFFFF; stroke-width:1; stroke:black; "  />
</g>
<g id="q1_3_2"  >
<polygon points="157,40 158.0,40 163,35.0 158.0,30 157,30 157,40 " style="fill:rgb(127.5,127.5,42.5); stroke-width:1; stroke:black; "  />
</g>
<g id="q1_3_3"  >
<polygon points="163,35.0 168.0,30 173,30 173,40 168.0,40 163,35.0 " style="fill:rgb(127.5,42.5,42.5); stroke-width:1; stroke:black; "  />
</g>
<g id="q1_3_4"  >
<polygon points="174,35.0 179.0,30 197,30 197,40 179.0,40 174,35.0 " style="fill:rgb(42.5,212.5,42.5); stroke-width:1; stroke:black; "  />
</g>
<g id="q1_3_5"  >
<polygon points="200,40 201.0,40 206,35.0 201.0,30 200,30 200,40 " style="fill:rgb(127.5,127.5,42.5); stroke-width:1; stroke:black; "  />
</g>
<g id="q1_3_6"  >
<polygon points="210,35.0 215.0,30 226,30 226,40 215.0,40 210,35.0 " style="fill:rgb(42.5,127.5,212.5); stroke-width:1; stroke:black; "  />
</g>
<g id="q1_3_7"  >
<polygon points="227,40 230.0,40 235,35.0 230.0,30 227,30 227,40 " style="fill:rgb(42.5,42.5,42.5); stroke-width:1; stroke:black; "  />
</g>
<g id="q1_3_8"  >
<polygon points="235,40 246.0,40 251,35.0 246.0,30 235,30 235,40 " style="fill:rgb(212.5,212.5,42.5); stroke-width:1; stroke:black; "  />
</g>
<g id="q1_3_9"  >
<polygon points="251,40 253,35.0 251,30 251,40 " style="fill:rgb(42.5,42.5,127.5); stroke-width:1; stroke:black; "  />
</g>
<g id="q1_3_10"  >
<polygon points="253,40 255.0,40 260,35.0 255.0,30 253,30 253,40 " style="fill:rgb(212.5,42.5,127.5); stroke-width:1; stroke:black; "  />
</g>
<g id="q1_3_11"  >
<polygon points="260,40 264.0,40 269,35.0 264.0,30 260,30 260,40 " style="fill:rgb(127.5,127.5,212.5); stroke-width:1; stroke:black; "  />
</g>
<g id="q1_3_12"  >
<polygon points="269,40 411.0,40 416,35.0 411.0,30 269,30 269,40 " style="fill:rgb(42.5,212.5,212.5); stroke-width:1; stroke:black; "  />
</g>
<g id="q1_3_13"  >
<polygon points="417,40 505.0,40 510,35.0 505.0,30 417,30 417,40 " style="fill:rgb(42.5,212.5,212.5); stroke-width:1; stroke:black; "  />
</g>
<g id="q1_3_14"  >
<polygon points="510,40 530.0,40 535,35.0 530.0,30 510,30 510,40 " style="fill:rgb(42.5,212.5,212.5); stroke-width:1; stroke:black; "  />
</g>
<g id="q1_3_15"  >
<polygon points="536,35.0 541.0,30 542,30 542,40 541.0,40 536,35.0 " style="fill:rgb(212.5,42.5,212.5); stroke-width:1; stroke:black; "  />
</g>
<g id="q1_3_16"  >
<polygon points="542,40 550.0,40 555,35.0 550.0,30 542,30 542,40 " style="fill:rgb(42.5,42.5,212.5); stroke-width:1; stroke:black; "  />
</g>
<g id="q1_3_17"  >
<polygon points="555,40 559.0,40 564,35.0 559.0,30 555,30 555,40 " style="fill:rgb(212.5,212.5,212.5); stroke-width:1; stroke:black; "  />
</g>
<g id="q1_3_18"  >
<polygon points="564,40 573.0,40 578,35.0 573.0,30 564,30 564,40 " style="fill:rgb(212.5,212.5,127.5); stroke-width:1; stroke:black; "  />
</g>
<g id="q1_3_19"  >
<polygon points="578,40 581.0,40 586,35.0 581.0,30 578,30 578,40 " style="fill:rgb(42.5,127.5,42.5); stroke-width:1; stroke:black; "  />
</g>
<g id="q1_3_20"  >
<polygon points="586,40 588.0,40 593,35.0 588.0,30 586,30 586,40 " style="fill:rgb(127.5,127.5,127.5); stroke-width:1; stroke:black; "  />
</g>
<g id="q1_3_21"  >
<polygon points="593,40 602.0,40 607,35.0 602.0,30 593,30 593,40 " style="fill:rgb(42.5,212.5,127.5); stroke-width:1; stroke:black; "  />
</g>
<g id="q1_3_22"  >
<polygon points="607,40 612.0,40 617,35.0 612.0,30 607,30 607,40 " style="fill:rgb(127.5,42.5,42.5); stroke-width:1; stroke:black; "  />
</g>
<g id="q1_3_23"  >
<polygon points="617,40 619,35.0 617,30 617,40 " style="fill:rgb(127.5,42.5,127.5); stroke-width:1; stroke:black; "  />
</g>
<g id="q1_3_24"  >
<polygon points="619,35.0 624.0,30 624,30 624,40 624.0,40 619,35.0 " style="fill:rgb(42.5,127.5,127.5); stroke-width:1; stroke:black; "  />
</g>
<g id="q1_3_25"  >
<polygon points="625,40 628.0,40 633,35.0 628.0,30 625,30 625,40 " style="fill:rgb(212.5,127.5,42.5); stroke-width:1; stroke:black; "  />
</g>
<g id="q1_3_26"  >
<polygon points="632,35.0 637.0,30 639,30 639,40 637.0,40 632,35.0 " style="fill:rgb(42.5,212.5,212.5); stroke-width:1; stroke:black; "  />
</g>
<g id="q1_3_27"  >
<polygon points="640,40 640.0,40 645,35.0 640.0,30 640,30 640,40 " style="fill:rgb(212.5,127.5,212.5); stroke-width:1; stroke:black; "  />
</g>
<g  >
<line x1="10" y1="85" x2="778.0" y2="85" style="stroke-width:1; stroke:grey; "  />
</g>
<g id="h1_3_0"  >
<polygon points="10,90 11,85.0 10,80 10,90 " style="fill:#FFFFFF; stroke-width:1; stroke:black; "  />
</g>
<g id="h1_3_1"  >
<polygon points="14,90 17.0,90 22,85.0 17.0,80 14,80 14,90 " style="fill:#FFFFFF; stroke-width:1; stroke:black; "  />
</g>
<g id="h1_3_2"  >
<polygon points="22,90 24.0,90 29,85.0 24.0,80 22,80 22,90 " style="fill:#FFFFFF; stroke-width:1; stroke:black; "  />
</g>
<g id="h1_3_3"  >
<polygon points="29,90 33.0,90 38,85.0 33.0,80 29,80 29,90 " style="fill:rgb(42.5,212.5,127.5); stroke-width:1; stroke:black; "  />
</g>
<g id="h1_3_4"  >
<polygon points="38,90 40.0,90 45,85.0 40.0,80 38,80 38,90 " style="fill:#FFFFFF; stroke-width:1; stroke:black; "  />
</g>
<g id="h1_3_5"  >
<polygon points="45,85.0 48,80 48,90 45,85.0 " style="fill:#FFFFFF; stroke-width:1; stroke:black; "  />
</g>
<g id="h1_3_6"  >
<polygon points="49,85.0 54.0,80 67,80 67,90 54.0,90 49,85.0 " style="fill:#FFFFFF; stroke-width:1; stroke:black; "  />
</g>
<g id="h1_3_7"  >
<polygon points="68,85.0 73.0,80 75,80 75,90 73.0,90 68,85.0 " style="fill:#FFFFFF; stroke-width:1; stroke:black; "  />
</g>
<g id="h1_3_8"  >
<polygon points="75,85.0 79,80 79,90 75,85.0 " style="fill:#FFFFFF; stroke-width:1; stroke:black; "  />
</g>
<g id="h1_3_9"  >
<polygon points="80,90 85.0,90 90,85.0 85.0,80 80,80 80,90 " style="fill:#FFFFFF; stroke-width:1; stroke:black; "  />
</g>
<g id="h1_3_10"  >
<polygon points="90,85.0 94,80 94,90 90,85.0 " style="fill:#FFFFFF; stroke-width:1; stroke:black; "  />
</g>
<g id="h1_3_11"  >
<polygon points="94,85.0 99.0,80 101,80 101,90 99.0,90 94,85.0 " style="fill:#FFFFFF; stroke-width:1; stroke:black; "  />
</g>
<g id="h1_3_12"  >
<polygon points="103,90 107,85.0 103,80 103,90 " style="fill:#FFFFFF; stroke-width:1; stroke:black; "  />
</g>
<g id="h1_3_13"  >
<polygon points="108,85.0 113.0,80 123,80 123,90 113.0,90 108,85.0 " style="fill:#FFFFFF; stroke-width:1; stroke:black; "  />
</g>
<g id="h1_3_14"  >
<polygon points="124,90 132.0,90 137,85.0 132.0,80 124,80 124,90 " style="fill:#FFFFFF; stroke-width:1; stroke:black; "  />
</g>
<g id="h1_3_15"  >
<polygon points="139,90 143,85.0 139,80 139,90 " style="fill:#FFFFFF; stroke-width:1; stroke:black; "  />
</g>
<g id="h1_3_16"  >
<polygon points="143,85.0 148.0,80 153,80 153,90 148.0,90 143,85.0 " style="fill:#FFFFFF; stroke-width:1; stroke:black; "  />
</g>
<g id="h1_3_17"  >
<polygon points="154,90 159.0,90 164,85.0 159.0,80 154,80 154,90 " style="fill:#FFFFFF; stroke-width:1; stroke:black; "  />
</g>
<g id="h1_3_18"  >
<polygon points="164,85.0 167,80 167,90 164,85.0 " style="fill:#FFFFFF; stroke-width:1; stroke:black; "  />
</g>
<g id="h1_3_19"  >
<polygon points="167,85.0 172.0,80 173,80 173,90 172.0,90 167,85.0 " style="fill:rgb(42.5,127.5,127.5); stroke-width:1; stroke:black; "  />
</g>
<g id="h1_3_20"  >
<polygon points="172,85.0 177.0,80 182,80 182,90 177.0,90 172,85.0 " style="fill:#FFFFFF; stroke-width:1; stroke:black; "  />
</g>
<g id="h1_3_21"  >
<polygon points="183,85.0 188.0,80 194,80 194,90 188.0,90 183,85.0 " style="fill:#FFFFFF; stroke-width:1; stroke:black; "  />
</g>
<g id="h1_3_22"  >
<polygon points="195,90 198.0,90 203,85.0 198.0,80 195,80 195,90 " style="fill:#FFFFFF; stroke-width:1; stroke:black; "  />
</g>
<g id="h1_3_23"  >
<polygon points="203,90 207.0,90 212,85.0 207.0,80 203,80 203,90 " style="fill:#FFFFFF; stroke-width:1; stroke:black; "  />
</g>
<g id="h1_3_24"  >
<polygon points="213,85.0 218.0,80 223,80 223,90 218.0,90 213,85.0 " style="fill:rgb(127.5,42.5,42.5); stroke-width:1; stroke:black; "  />
</g>
<g id="h1_3_25"  >
<polygon points="224,85.0 227,80 227,90 224,85.0 " style="fill:#FFFFFF; stroke-width:1; stroke:black; "  />
</g>
<g id="h1_3_26"  >
<polygon points="228,85.0 233.0,80 234,80 234,90 233.0,90 228,85.0 " style="fill:#FFFFFF; stroke-width:1; stroke:black; "  />
</g>
<g id="h1_3_27"  >
<polygon points="235,90 285.0,90 290,85.0 285.0,80 235,80 235,90 " style="fill:#FFFFFF; stroke-width:1; stroke:black; "  />
</g>
<g id="h1_3_28"  >
<polygon points="290,90 329.0,90 334,85.0 329.0,80 290,80 290,90 " style="fill:#FFFFFF; stroke-width:1; stroke:black; "  />
</g>
<g id="h1_3_29"  >
<polygon points="335,90 339.0,90 344,85.0 339.0,80 335,80 335,90 " style="fill:#FFFFFF; stroke-width:1; stroke:black; "  />
</g>
<g id="h1_3_30"  >
<polygon points="344,90 349.0,90 354,85.0 349.0,80 344,80 344,90 " style="fill:#FFFFFF; stroke-width:1; stroke:black; "  />
</g>
<g id="h1_3_31"  >
<polygon points="354,90 355.0,90 360,85.0 355.0,80 354,80 354,90 " style="fill:rgb(212.5,127.5,42.5); stroke-width:1; stroke:black; "  />
</g>
<g id="h1_3_32"  >
<polygon points="361,85.0 366.0,80 374,80 374,90 366.0,90 361,85.0 " style="fill:#FFFFFF; stroke-width:1; stroke:black; "  />
</g>
<g id="h1_3_33"  >
<polygon points="374,85.0 379.0,80 383,80 383,90 379.0,90 374,85.0 " style="fill:#FFFFFF; stroke-width:1; stroke:black; "  />
</g>
<g id="h1_3_34"  >
<polygon points="383,85.0 386,80 386,90 383,85.0 " style="fill:#FFFFFF; stroke-width:1; stroke:black; "  />
</g>
<g id="h1_3_35"  >
<polygon points="387,85.0 392.0,80 396,80 396,90 392.0,90 387,85.0 " style="fill:#FFFFFF; stroke-width:1; stroke:black; "  />
</g>
<g id="h1_3_36"  >
<polygon points="396,85.0 401.0,80 406,80 406,90 401.0,90 396,85.0 " style="fill:#FFFFFF; stroke-width:1; stroke:black; "  />
</g>
<g id="h1_3_37"  >
<polygon points="406,85.0 411.0,80 417,80 417,90 411.0,90 406,85.0 " style="fill:rgb(127.5,42.5,42.5); stroke-width:1; stroke:black; "  />
</g>
<g id="h1_3_38"  >
<polygon points="418,90 424.0,90 429,85.0 424.0,80 418,80 418,90 " style="fill:#FFFFFF; stroke-width:1; stroke:black; "  />
</g>
<g id="h1_3_39"  >
<polygon points="430,85.0 433,80 433,90 430,85.0 " style="fill:#FFFFFF; stroke-width:1; stroke:black; "  />
</g>
<g id="h1_3_40"  >
<polygon points="435,90 439.0,90 444,85.0 439.0,80 435,80 435,90 " style="fill:#FFFFFF; stroke-width:1; stroke:black; "  />
</g>
<g id="h1_3_41"  >
<polygon points="445,85.0 450.0,80 478,80 478,90 450.0,90 445,85.0 " style="fill:#FFFFFF; stroke-width:1; stroke:black; "  />
</g>
<g id="h1_3_42"  >
<polygon points="480,85.0 482,80 482,90 480,85.0 " style="fill:#FFFFFF; stroke-width:1; stroke:black; "  />
</g>
<g id="h1_3_43"  >
<polygon points="482,85.0 487.0,80 493,80 493,90 487.0,90 482,85.0 " style="fill:#FFFFFF; stroke-width:1; stroke:black; "  />
</g>
<g id="h1_3_44"  >
<polygon points="497,90 500.0,90 505,85.0 500.0,80 497,80 497,90 " style="fill:#FFFFFF; stroke-width:1; stroke:black; "  />
</g>
<g id="h1_3_45"  >
<polygon points="506,85.0 511.0,80 518,80 518,90 511.0,90 506,85.0 " style="fill:#FFFFFF; stroke-width:1; stroke:black; "  />
</g>
<g id="h1_3_46"  >
<polygon points="518,85.0 523.0,80 528,80 528,90 523.0,90 518,85.0 " style="fill:rgb(127.5,42.5,42.5); stroke-width:1; stroke:black; "  />
</g>
<g id="h1_3_47"  >
<polygon points="528,85.0 533.0,80 533,80 533,90 533.0,90 528,85.0 " style="fill:#FFFFFF; stroke-width:1; stroke:black; "  />
</g>
<g id="h1_3_48"  >
<polygon points="533,85.0 538.0,80 545,80 545,90 538.0,90 533,85.0 " style="fill:#FFFFFF; stroke-width:1; stroke:black; "  />
</g>
<g id="h1_3_49"  >
<polygon points="545,85.0 550.0,80 559,80 559,90 550.0,90 545,85.0 " style="fill:#FFFFFF; stroke-width:1; stroke:black; "  />
</g>
<g id="h1_3_50"  >
<polygon points="560,90 562,85.0 560,80 560,90 " style="fill:#FFFFFF; stroke-width:1; stroke:black; "  />
</g>
<g id="h1_3_51"  >
<polygon points="562,90 567.0,90 572,85.0 567.0,80 562,80 562,90 " style="fill:#FFFFFF; stroke-width:1; stroke:black; "  />
</g>
<g id="h1_3_52"  >
<polygon points="572,90 577.0,90 582,85.0 577.0,80 572,80 572,90 " style="fill:#FFFFFF; stroke-width:1; stroke:black; "  />
</g>
<g id="h1_3_53"  >
<polygon points="583,90 584.0,90 589,85.0 584.0,80 583,80 583,90 " style="fill:#FFFFFF; stroke-width:1; stroke:black; "  />
</g>
<g id="h1_3_54"  >
<polygon points="589,90 593,85.0 589,80 589,90 " style="fill:#FFFFFF; stroke-width:1; stroke:black; "  />
</g>
<g id="h1_3_55"  >
<polygon points="593,90 593.0,90 598,85.0 593.0,80 593,80 593,90 " style="fill:#FFFFFF; stroke-width:1; stroke:black; "  />
</g>
<g id="h1_3_56"  >
<polygon points="598,90 600,85.0 598,80 598,90 " style="fill:#FFFFFF; stroke-width:1; stroke:black; "  />
</g>
<g id="h1_3_57"  >
<polygon points="600,90 605.0,90 610,85.0 605.0,80 600,80 600,90 " style="fill:rgb(42.5,212.5,212.5); stroke-width:1; stroke:black; "  />
</g>
<g id="h1_3_58"  >
<polygon points="610,90 614.0,90 619,85.0 614.0,80 610,80 610,90 " style="fill:#FFFFFF; stroke-width:1; stroke:black; "  />
</g>
<g id="h1_3_59"  >
<polygon points="619,90 624.0,90 629,85.0 624.0,80 619,80 619,90 " style="fill:#FFFFFF; stroke-width:1; stroke:black; "  />
</g>
<g id="h1_3_60"  >
<polygon points="629,90 631.0,90 636,85.0 631.0,80 629,80 629,90 " style="fill:#FFFFFF; stroke-width:1; stroke:black; "  />
</g>
<g id="h1_3_61"  >
<polygon points="636,90 638.0,90 643,85.0 638.0,80 636,80 636,90 " style="fill:#FFFFFF; stroke-width:1; stroke:black; "  />
</g>
<g id="h1_3_62"  >
<polygon points="643,90 646.0,90 651,85.0 646.0,80 643,80 643,90 " style="fill:#FFFFFF; stroke-width:1; stroke:black; "  />
</g>
<g id="h1_3_63"  >
<polygon points="651,90 652.0,90 657,85.0 652.0,80 651,80 651,90 " style="fill:#FFFFFF; stroke-width:1; stroke:black; "  />
</g>
<g id="h1_3_64"  >
<polygon points="658,90 659.0,90 664,85.0 659.0,80 658,80 658,90 " style="fill:#FFFFFF; stroke-width:1; stroke:black; "  />
</g>
<g id="h1_3_65"  >
<polygon points="664,90 672.0,90 677,85.0 672.0,80 664,80 664,90 " style="fill:#FFFFFF; stroke-width:1; stroke:black; "  />
</g>
<g id="h1_3_66"  >
<polygon points="677,90 683.0,90 688,85.0 683.0,80 677,80 677,90 " style="fill:rgb(127.5,42.5,42.5); stroke-width:1; stroke:black; "  />
</g>
<g id="h1_3_67"  >
<polygon points="688,90 689.0,90 694,85.0 689.0,80 688,80 688,90 " style="fill:#FFFFFF; stroke-width:1; stroke:black; "  />
</g>
<g id="h1_3_68"  >
<polygon points="694,90 701.0,90 706,85.0 701.0,80 694,80 694,90 " style="fill:#FFFFFF; stroke-width:1; stroke:black; "  />
</g>
<g id="h1_3_69"  >
<polygon points="707,90 707.0,90 712,85.0 707.0,80 707,80 707,90 " style="fill:#FFFFFF; stroke-width:1; stroke:black; "  />
</g>
<g id="h1_3_70"  >
<polygon points="712,85.0 717.0,80 721,80 721,90 717.0,90 712,85.0 " style="fill:#FFFFFF; stroke-width:1; stroke:black; "  />
</g>
<g id="h1_3_71"  >
<polygon points="723,90 724.0,90 729,85.0 724.0,80 723,80 723,90 " style="fill:#FFFFFF; stroke-width:1; stroke:black; "  />
</g>
<g id="h1_3_72"  >
<polygon points="731,90 737.0,90 742,85.0 737.0,80 731,80 731,90 " style="fill:#FFFFFF; stroke-width:1; stroke:black; "  />
</g>
<g id="h1_3_73"  >
<polygon points="743,85.0 748.0,80 750,80 750,90 748.0,90 743,85.0 " style="fill:rgb(42.5,212.5,127.5); stroke-width:1; stroke:black; "  />
</g>
<g id="h1_3_74"  >
<polygon points="750,85.0 755.0,80 760,80 760,90 755.0,90 750,85.0 " style="fill:#FFFFFF; stroke-width:1; stroke:black; "  />
</g>
<g id="h1_3_75"  >
<polygon points="760,85.0 765.0,80 769,80 769,90 765.0,90 760,85.0 " style="fill:#FFFFFF; stroke-width:1; stroke:black; "  />
</g>
<g id="h1_3_76"  >
<polygon points="769,85.0 774.0,80 778,80 778,90 774.0,90 769,85.0 " style="fill:#FFFFFF; stroke-width:1; stroke:black; "  />
</g>
</svg>
