<svg xmlns="http://www.w3.org/2000/svg" xmlns:xlink="http://www.w3.org/1999/xlink" version="1.1" x="0" y="0" height="2770" width="768.0" viewBox="0 0 819.2 2680" preserveAspectRatio="none"  >
<g  >
<line x1="10" y1="35" x2="778.0" y2="35" style="stroke-width:1; stroke:grey; "  />
</g>
<g id="q1_8_0"  >
<polygon points="102,40 107.0,40 112,35.0 107.0,30 102,30 102,40 " style="fill:rgb(212.5,42.5,42.5); stroke-width:1; stroke:black; "  />
</g>
<g id="q1_8_1"  >
<polygon points="113,40 115.0,40 120,35.0 115.0,30 113,30 113,40 " style="fill:#FFFFFF; stroke-width:1; stroke:black; "  />
</g>
<g id="q1_8_2"  >
<polygon points="120,40 122.0,40 127,35.0 122.0,30 120,30 120,40 " style="fill:rgb(127.5,127.5,42.5); stroke-width:1; stroke:black; "  />
</g>
<g id="q1_8_3"  >
<polygon points="128,35.0 133.0,30 139,30 139,40 133.0,40 128,35.0 " style="fill:rgb(127.5,42.5,42.5); stroke-width:1; stroke:black; "  />
</g>
<g id="q1_8_4"  >
<polygon points="140,35.0 145.0,30 166,30 166,40 145.0,40 140,35.0 " style="fill:rgb(42.5,212.5,42.5); stroke-width:1; stroke:black; "  />
</g>
<g id="q1_8_5"  >
<polygon points="170,40 172.0,40 177,35.0 172.0,30 170,30 170,40 " style="fill:rgb(127.5,127.5,42.5); stroke-width:1; stroke:black; "  />
</g>
<g id="q1_8_6"  >
<polygon points="182,35.0 187.0,30 200,30 200,40 187.0,40 182,35.0 " style="fill:rgb(42.5,127.5,212.5); stroke-width:1; stroke:black; "  />
</g>
<g id="q1_8_7"  >
<polygon points="201,40 206.0,40 211,35.0 206.0,30 201,30 201,40 " style="fill:rgb(42.5,42.5,42.5); stroke-width:1; stroke:black; "  />
</g>
<g id="q1_8_8"  >
<polygon points="211,40 224.0,40 229,35.0 224.0,30 211,30 211,40 " style="fill:rgb(212.5,212.5,42.5); stroke-width:1; stroke:black; "  />
</g>
<g id="q1_8_9"  >
<polygon points="229,40 232,35.0 229,30 229,40 " style="fill:rgb(42.5,42.5,127.5); stroke-width:1; stroke:black; "  />
</g>
<g id="q1_8_10"  >
<polygon points="232,40 234.0,40 239,35.0 234.0,30 232,30 232,40 " style="fill:rgb(212.5,42.5,127.5); stroke-width:1; stroke:black; "  />
</g>
<g id="q1_8_11"  >
<polygon points="239,40 245.0,40 250,35.0 245.0,30 239,30 239,40 " style="fill:rgb(127.5,127.5,212.5); stroke-width:1; stroke:black; "  />
</g>
<g id="q1_8_12"  >
<polygon points="250,40 415.0,40 420,35.0 415.0,30 250,30 250,40 " style="fill:rgb(42.5,212.5,212.5); stroke-width:1; stroke:black; "  />
</g>
<g id="q1_8_13"  >
<polygon points="421,40 523.0,40 528,35.0 523.0,30 421,30 421,40 " style="fill:rgb(42.5,212.5,212.5); stroke-width:1; stroke:black; "  />
</g>
<g id="q1_8_14"  >
<polygon points="528,40 553.0,40 558,35.0 553.0,30 528,30 528,40 " style="fill:rgb(42.5,212.5,212.5); stroke-width:1; stroke:black; "  />
</g>
<g id="q1_8_15"  >
<polygon points="558,35.0 563.0,30 565,30 565,40 563.0,40 558,35.0 " style="fill:rgb(212.5,42.5,212.5); stroke-width:1; stroke:black; "  />
</g>
<g id="q1_8_16"  >
<polygon points="566,40 575.0,40 580,35.0 575.0,30 566,30 566,40 " style="fill:rgb(42.5,42.5,212.5); stroke-width:1; stroke:black; "  />
</g>
<g id="q1_8_17"  >
<polygon points="581,40 586.0,40 591,35.0 586.0,30 581,30 581,40 " style="fill:rgb(212.5,212.5,212.5); stroke-width:1; stroke:black; "  />
</g>
<g id="q1_8_18"  >
<polygon points="591,40 602.0,40 607,35.0 602.0,30 591,30 591,40 " style="fill:rgb(212.5,212.5,127.5); stroke-width:1; stroke:black; "  />
</g>
<g id="q1_8_19"  >
<polygon points="607,40 611.0,40 616,35.0 611.0,30 607,30 607,40 " style="fill:rgb(42.5,127.5,42.5); stroke-width:1; stroke:black; "  />
</g>
<g id="q1_8_20"  >
<polygon points="616,40 620.0,40 625,35.0 620.0,30 616,30 616,40 " style="fill:rgb(127.5,127.5,127.5); stroke-width:1; stroke:black; "  />
</g>
<g id="q1_8_21"  >
<polygon points="625,40 636.0,40 641,35.0 636.0,30 625,30 625,40 " style="fill:rgb(42.5,212.5,127.5); stroke-width:1; stroke:black; "  />
</g>
<g id="q1_8_22"  >
<polygon points="641,40 647.0,40 652,35.0 647.0,30 641,30 641,40 " style="fill:rgb(127.5,42.5,42.5); stroke-width:1; stroke:black; "  />
</g>
<g id="q1_8_23"  >
<polygon points="652,40 654,35.0 652,30 652,40 " style="fill:rgb(127.5,42.5,127.5); stroke-width:1; stroke:black; "  />
</g>
<g id="q1_8_24"  >
<polygon points="654,35.0 659.0,30 660,30 660,40 659.0,40 654,35.0 " style="fill:rgb(42.5,127.5,127.5); stroke-width:1; stroke:black; "  />
</g>
<g id="q1_8_25"  >
<polygon points="661,40 665.0,40 670,35.0 665.0,30 661,30 661,40 " style="fill:rgb(212.5,127.5,42.5); stroke-width:1; stroke:black; "  />
</g>
<g id="q1_8_26"  >
<polygon points="669,35.0 674.0,30 678,30 678,40 674.0,40 669,35.0 " style="fill:rgb(42.5,212.5,212.5); stroke-width:1; stroke:black; "  />
</g>
<g id="q1_8_27"  >
<polygon points="679,40 680.0,40 685,35.0 680.0,30 679,30 679,40 " style="fill:rgb(212.5,127.5,212.5); stroke-width:1; stroke:black; "  />
</g>
<g  >
<line x1="10" y1="85" x2="778.0" y2="85" style="stroke-width:1; stroke:grey; "  />
</g>
<g id="h1_8_0"  >
<polygon points="10,85.0 15.0,80 26,80 26,90 15.0,90 10,85.0 " style="fill:#FFFFFF; stroke-width:1; stroke:black; "  />
</g>
<g id="h1_8_1"  >
<polygon points="29,90 35.0,90 40,85.0 35.0,80 29,80 29,90 " style="fill:#FFFFFF; stroke-width:1; stroke:black; "  />
</g>
<g id="h1_8_2"  >
<polygon points="40,90 42.0,90 47,85.0 42.0,80 40,80 40,90 " style="fill:rgb(42.5,212.5,42.5); stroke-width:1; stroke:black; "  />
</g>
<g id="h1_8_3"  >
<polygon points="51,90 62.0,90 67,85.0 62.0,80 51,80 51,90 " style="fill:#FFFFFF; stroke-width:1; stroke:black; "  />
</g>
<g id="h1_8_4"  >
<polygon points="68,90 73.0,90 78,85.0 73.0,80 68,80 68,90 " style="fill:#FFFFFF; stroke-width:1; stroke:black; "  />
</g>
<g id="h1_8_5"  >
<polygon points="78,90 83.0,90 88,85.0 83.0,80 78,80 78,90 " style="fill:rgb(127.5,127.5,127.5); stroke-width:1; stroke:black; "  />
</g>
<g id="h1_8_6"  >
<polygon points="88,90 93.0,90 98,85.0 93.0,80 88,80 88,90 " style="fill:rgb(42.5,212.5,127.5); stroke-width:1; stroke:black; "  />
</g>
<g id="h1_8_7"  >
<polygon points="98,90 103.0,90 108,85.0 103.0,80 98,80 98,90 " style="fill:rgb(42.5,212.5,127.5); stroke-width:1; stroke:black; "  />
</g>
<g id="h1_8_8"  >
<polygon points="109,85.0 113,80 113,90 109,85.0 " style="fill:#FFFFFF; stroke-width:1; stroke:black; "  />
</g>
<g id="h1_8_9"  >
<polygon points="116,90 134.0,90 139,85.0 134.0,80 116,80 116,90 " style="fill:#FFFFFF; stroke-width:1; stroke:black; "  />
</g>
<g id="h1_8_10"  >
<polygon points="142,90 153.0,90 158,85.0 153.0,80 142,80 142,90 " style="fill:#FFFFFF; stroke-width:1; stroke:black; "  />
</g>
<g id="h1_8_11"  >
<polygon points="158,85.0 163.0,80 166,80 166,90 163.0,90 158,85.0 " style="fill:#FFFFFF; stroke-width:1; stroke:black; "  />
</g>
<g id="h1_8_12"  >
<polygon points="168,85.0 173.0,80 175,80 175,90 173.0,90 168,85.0 " style="fill:#FFFFFF; stroke-width:1; stroke:black; "  />
</g>
<g id="h1_8_13"  >
<polygon points="180,90 184,85.0 180,80 180,90 " style="fill:#FFFFFF; stroke-width:1; stroke:black; "  />
</g>
<g id="h1_8_14"  >
<polygon points="188,90 195.0,90 200,85.0 195.0,80 188,80 188,90 " style="fill:#FFFFFF; stroke-width:1; stroke:black; "  />
</g>
<g id="h1_8_15"  >
<polygon points="200,90 204.0,90 209,85.0 204.0,80 200,80 200,90 " style="fill:#FFFFFF; stroke-width:1; stroke:black; "  />
</g>
<g id="h1_8_16"  >
<polygon points="209,85.0 212,80 212,90 209,85.0 " style="fill:#FFFFFF; stroke-width:1; stroke:black; "  />
</g>
<g id="h1_8_17"  >
<polygon points="213,90 221.0,90 226,85.0 221.0,80 213,80 213,90 " style="fill:#FFFFFF; stroke-width:1; stroke:black; "  />
</g>
<g id="h1_8_18"  >
<polygon points="227,85.0 232.0,80 233,80 233,90 232.0,90 227,85.0 " style="fill:#FFFFFF; stroke-width:1; stroke:black; "  />
</g>
<g id="h1_8_19"  >
<polygon points="234,85.0 239.0,80 243,80 243,90 239.0,90 234,85.0 " style="fill:#FFFFFF; stroke-width:1; stroke:black; "  />
</g>
<g id="h1_8_20"  >
<polygon points="244,90 246.0,90 251,85.0 246.0,80 244,80 244,90 " style="fill:#FFFFFF; stroke-width:1; stroke:black; "  />
</g>
<g id="h1_8_21"  >
<polygon points="252,85.0 257.0,80 259,80 259,90 257.0,90 252,85.0 " style="fill:#FFFFFF; stroke-width:1; stroke:black; "  />
</g>
<g id="h1_8_22"  >
<polygon points="259,85.0 262,80 262,90 259,85.0 " style="fill:#FFFFFF; stroke-width:1; stroke:black; "  />
</g>
<g id="h1_8_23"  >
<polygon points="264,90 265.0,90 270,85.0 265.0,80 264,80 264,90 " style="fill:#FFFFFF; stroke-width:1; stroke:black; "  />
</g>
<g id="h1_8_24"  >
<polygon points="270,90 280.0,90 285,85.0 280.0,80 270,80 270,90 " style="fill:#FFFFFF; stroke-width:1; stroke:black; "  />
</g>
<g id="h1_8_25"  >
<polygon points="286,85.0 291.0,80 296,80 296,90 291.0,90 286,85.0 " style="fill:rgb(42.5,212.5,127.5); stroke-width:1; stroke:black; "  />
</g>
<g id="h1_8_26"  >
<polygon points="296,85.0 301.0,80 306,80 306,90 301.0,90 296,85.0 " style="fill:rgb(42.5,212.5,127.5); stroke-width:1; stroke:black; "  />
</g>
<g id="h1_8_27"  >
<polygon points="306,85.0 311.0,80 315,80 315,90 311.0,90 306,85.0 " style="fill:rgb(127.5,127.5,127.5); stroke-width:1; stroke:black; "  />
</g>
<g id="h1_8_28"  >
<polygon points="315,85.0 320.0,80 324,80 324,90 320.0,90 315,85.0 " style="fill:#FFFFFF; stroke-width:1; stroke:black; "  />
</g>
<g id="h1_8_29"  >
<polygon points="325,85.0 330.0,80 341,80 341,90 330.0,90 325,85.0 " style="fill:#FFFFFF; stroke-width:1; stroke:black; "  />
</g>
<g id="h1_8_30"  >
<polygon points="345,90 349.0,90 354,85.0 349.0,80 345,80 345,90 " style="fill:#FFFFFF; stroke-width:1; stroke:black; "  />
</g>
<g id="h1_8_31"  >
<polygon points="355,90 360.0,90 365,85.0 360.0,80 355,80 355,90 " style="fill:#FFFFFF; stroke-width:1; stroke:black; "  />
</g>
<g id="h1_8_32"  >
<polygon points="366,85.0 371.0,80 373,80 373,90 371.0,90 366,85.0 " style="fill:#FFFFFF; stroke-width:1; stroke:black; "  />
</g>
<g id="h1_8_33"  >
<polygon points="374,90 378,85.0 374,80 374,90 " style="fill:#FFFFFF; stroke-width:1; stroke:black; "  />
</g>
<g id="h1_8_34"  >
<polygon points="380,90 387.0,90 392,85.0 387.0,80 380,80 380,90 " style="fill:#FFFFFF; stroke-width:1; stroke:black; "  />
</g>
<g id="h1_8_35"  >
<polygon points="399,85.0 404.0,80 410,80 410,90 404.0,90 399,85.0 " style="fill:#FFFFFF; stroke-width:1; stroke:black; "  />
</g>
<g id="h1_8_36"  >
<polygon points="410,85.0 415.0,80 425,80 425,90 415.0,90 410,85.0 " style="fill:#FFFFFF; stroke-width:1; stroke:black; "  />
</g>
<g id="h1_8_37"  >
<polygon points="426,85.0 431.0,80 442,80 442,90 431.0,90 426,85.0 " style="fill:#FFFFFF; stroke-width:1; stroke:black; "  />
</g>
<g id="h1_8_38"  >
<polygon points="444,90 448.0,90 453,85.0 448.0,80 444,80 444,90 " style="fill:rgb(42.5,212.5,127.5); stroke-width:1; stroke:black; "  />
</g>
<g id="h1_8_39"  >
<polygon points="453,90 457.0,90 462,85.0 457.0,80 453,80 453,90 " style="fill:#FFFFFF; stroke-width:1; stroke:black; "  />
</g>
<g id="h1_8_40"  >
<polygon points="462,90 466.0,90 471,85.0 466.0,80 462,80 462,90 " style="fill:rgb(42.5,212.5,127.5); stroke-width:1; stroke:black; "  />
</g>
<g id="h1_8_41"  >
<polygon points="471,90 473.0,90 478,85.0 473.0,80 471,80 471,90 " style="fill:#FFFFFF; stroke-width:1; stroke:black; "  />
</g>
<g id="h1_8_42"  >
<polygon points="479,85.0 484.0,80 504,80 504,90 484.0,90 479,85.0 " style="fill:#FFFFFF; stroke-width:1; stroke:black; "  />
</g>
<g id="h1_8_43"  >
<polygon points="505,85.0 510.0,80 524,80 524,90 510.0,90 505,85.0 " style="fill:rgb(42.5,212.5,127.5); stroke-width:1; stroke:black; "  />
</g>
<g id="h1_8_44"  >
<polygon points="524,85.0 529.0,80 541,80 541,90 529.0,90 524,85.0 " style="fill:rgb(42.5,212.5,127.5); stroke-width:1; stroke:black; "  />
</g>
<g id="h1_8_45"  >
<polygon points="544,85.0 549.0,80 549,80 549,90 549.0,90 544,85.0 " style="fill:#FFFFFF; stroke-width:1; stroke:black; "  />
</g>
<g id="h1_8_46"  >
<polygon points="551,85.0 556.0,80 563,80 563,90 556.0,90 551,85.0 " style="fill:#FFFFFF; stroke-width:1; stroke:black; "  />
</g>
<g id="h1_8_47"  >
<polygon points="569,90 569.0,90 574,85.0 569.0,80 569,80 569,90 " style="fill:#FFFFFF; stroke-width:1; stroke:black; "  />
</g>
<g id="h1_8_48"  >
<polygon points="574,90 580.0,90 585,85.0 580.0,80 574,80 574,90 " style="fill:#FFFFFF; stroke-width:1; stroke:black; "  />
</g>
<g id="h1_8_49"  >
<polygon points="585,85.0 590.0,80 592,80 592,90 590.0,90 585,85.0 " style="fill:#FFFFFF; stroke-width:1; stroke:black; "  />
</g>
<g id="h1_8_50"  >
<polygon points="594,90 594.0,90 599,85.0 594.0,80 594,80 594,90 " style="fill:#FFFFFF; stroke-width:1; stroke:black; "  />
</g>
<g id="h1_8_51"  >
<polygon points="600,85.0 605.0,80 607,80 607,90 605.0,90 600,85.0 " style="fill:#FFFFFF; stroke-width:1; stroke:black; "  />
</g>
<g id="h1_8_52"  >
<polygon points="612,85.0 616,80 616,90 612,85.0 " style="fill:#FFFFFF; stroke-width:1; stroke:black; "  />
</g>
<g id="h1_8_53"  >
<polygon points="616,85.0 619,80 619,90 616,85.0 " style="fill:#FFFFFF; stroke-width:1; stroke:black; "  />
</g>
<g id="h1_8_54"  >
<polygon points="622,90 626,85.0 622,80 622,90 " style="fill:#FFFFFF; stroke-width:1; stroke:black; "  />
</g>
<g id="h1_8_55"  >
<polygon points="629,85.0 634.0,80 639,80 639,90 634.0,90 629,85.0 " style="fill:#FFFFFF; stroke-width:1; stroke:black; "  />
</g>
<g id="h1_8_56"  >
<polygon points="639,85.0 644.0,80 659,80 659,90 644.0,90 639,85.0 " style="fill:#FFFFFF; stroke-width:1; stroke:black; "  />
</g>
<g id="h1_8_57"  >
<polygon points="659,85.0 664.0,80 666,80 666,90 664.0,90 659,85.0 " style="fill:#FFFFFF; stroke-width:1; stroke:black; "  />
</g>
<g id="h1_8_58"  >
<polygon points="669,85.0 674.0,80 683,80 683,90 674.0,90 669,85.0 " style="fill:#FFFFFF; stroke-width:1; stroke:black; "  />
</g>
<g id="h1_8_59"  >
<polygon points="684,85.0 689.0,80 698,80 698,90 689.0,90 684,85.0 " style="fill:#FFFFFF; stroke-width:1; stroke:black; "  />
</g>
<g id="h1_8_60"  >
<polygon points="700,90 705.0,90 710,85.0 705.0,80 700,80 700,90 " style="fill:rgb(42.5,212.5,127.5); stroke-width:1; stroke:black; "  />
</g>
<g id="h1_8_61"  >
<polygon points="710,90 715.0,90 720,85.0 715.0,80 710,80 710,90 " style="fill:rgb(42.5,212.5,127.5); stroke-width:1; stroke:black; "  />
</g>
<g id="h1_8_62"  >
<polygon points="720,90 724.0,90 729,85.0 724.0,80 720,80 720,90 " style="fill:rgb(127.5,127.5,127.5); stroke-width:1; stroke:black; "  />
</g>
<g id="h1_8_63"  >
<polygon points="729,90 734.0,90 739,85.0 734.0,80 729,80 729,90 " style="fill:rgb(42.5,127.5,42.5); stroke-width:1; stroke:black; "  />
</g>
<g id="h1_8_64"  >
<polygon points="739,90 751.0,90 756,85.0 751.0,80 739,80 739,90 " style="fill:#FFFFFF; stroke-width:1; stroke:black; "  />
</g>
<g id="h1_8_65"  >
<polygon points="756,85.0 761.0,80 778,80 778,90 761.0,90 756,85.0 " style="fill:#FFFFFF; stroke-width:1; stroke:black; "  />
</g>
</svg>
