<svg xmlns="http://www.w3.org/2000/svg" xmlns:xlink="http://www.w3.org/1999/xlink" version="1.1" x="0" y="0" height="2770" width="768.0" viewBox="0 0 819.2 2680" preserveAspectRatio="none"  >
<g  >
<line x1="10" y1="35" x2="778.0" y2="35" style="stroke-width:1; stroke:grey; "  />
</g>
<g id="q2_72_0"  >
<polygon points="10,40 19.0,40 24,35.0 19.0,30 10,30 10,40 " style="fill:#FFFFFF; stroke-width:1; stroke:black; "  />
</g>
<g id="q2_72_1"  >
<polygon points="25,40 28.0,40 33,35.0 28.0,30 25,30 25,40 " style="fill:#FFFFFF; stroke-width:1; stroke:black; "  />
</g>
<g id="q2_72_2"  >
<polygon points="34,40 39.0,40 44,35.0 39.0,30 34,30 34,40 " style="fill:rgb(191.25,63.75,63.75); stroke-width:1; stroke:black; "  />
</g>
<g id="q2_72_3"  >
<polygon points="44,35.0 49.0,30 59,30 59,40 49.0,40 44,35.0 " style="fill:#FFFFFF; stroke-width:1; stroke:black; "  />
</g>
<g id="q2_72_4"  >
<polygon points="60,35.0 65.0,30 95,30 95,40 65.0,40 60,35.0 " style="fill:rgb(63.75,63.75,191.25); stroke-width:1; stroke:black; "  />
</g>
<g id="q2_72_5"  >
<polygon points="99,40 104.0,40 109,35.0 104.0,30 99,30 99,40 " style="fill:#FFFFFF; stroke-width:1; stroke:black; "  />
</g>
<g id="q2_72_6"  >
<polygon points="115,35.0 120.0,30 139,30 139,40 120.0,40 115,35.0 " style="fill:#FFFFFF; stroke-width:1; stroke:black; "  />
</g>
<g id="q2_72_7"  >
<polygon points="140,40 149.0,40 154,35.0 149.0,30 140,30 140,40 " style="fill:#FFFFFF; stroke-width:1; stroke:black; "  />
</g>
<g id="q2_72_8"  >
<polygon points="154,40 173.0,40 178,35.0 173.0,30 154,30 154,40 " style="fill:#FFFFFF; stroke-width:1; stroke:black; "  />
</g>
<g id="q2_72_9"  >
<polygon points="178,40 181,35.0 178,30 178,40 " style="fill:#FFFFFF; stroke-width:1; stroke:black; "  />
</g>
<g id="q2_72_10"  >
<polygon points="181,40 186.0,40 191,35.0 186.0,30 181,30 181,40 " style="fill:#FFFFFF; stroke-width:1; stroke:black; "  />
</g>
<g id="q2_72_11"  >
<polygon points="191,40 199.0,40 204,35.0 199.0,30 191,30 191,40 " style="fill:#FFFFFF; stroke-width:1; stroke:black; "  />
</g>
<g id="q2_72_12"  >
<polygon points="204,40 424.0,40 429,35.0 424.0,30 204,30 204,40 " style="fill:rgb(63.75,191.25,63.75); stroke-width:1; stroke:black; "  />
</g>
<g id="q2_72_13"  >
<polygon points="430,40 567.0,40 572,35.0 567.0,30 430,30 430,40 " style="fill:#FFFFFF; stroke-width:1; stroke:black; "  />
</g>
<g id="q2_72_14"  >
<polygon points="572,40 605.0,40 610,35.0 605.0,30 572,30 572,40 " style="fill:#FFFFFF; stroke-width:1; stroke:black; "  />
</g>
<g id="q2_72_15"  >
<polygon points="611,35.0 616.0,30 620,30 620,40 616.0,40 611,35.0 " style="fill:rgb(191.25,63.75,191.25); stroke-width:1; stroke:black; "  />
</g>
<g id="q2_72_16"  >
<polygon points="621,40 634.0,40 639,35.0 634.0,30 621,30 621,40 " style="fill:#FFFFFF; stroke-width:1; stroke:black; "  />
</g>
<g id="q2_72_17"  >
<polygon points="640,40 648.0,40 653,35.0 648.0,30 640,30 640,40 " style="fill:#FFFFFF; stroke-width:1; stroke:black; "  />
</g>
<g id="q2_72_18"  >
<polygon points="655,40 671.0,40 676,35.0 671.0,30 655,30 655,40 " style="fill:#FFFFFF; stroke-width:1; stroke:black; "  />
</g>
<g id="q2_72_19"  >
<polygon points="675,40 683.0,40 688,35.0 683.0,30 675,30 675,40 " style="fill:#FFFFFF; stroke-width:1; stroke:black; "  />
</g>
<g id="q2_72_20"  >
<polygon points="688,40 694.0,40 699,35.0 694.0,30 688,30 688,40 " style="fill:#FFFFFF; stroke-width:1; stroke:black; "  />
</g>
<g id="q2_72_21"  >
<polygon points="698,40 714.0,40 719,35.0 714.0,30 698,30 698,40 " style="fill:rgb(191.25,191.25,63.75); stroke-width:1; stroke:black; "  />
</g>
<g id="q2_72_22"  >
<polygon points="719,40 730.0,40 735,35.0 730.0,30 719,30 719,40 " style="fill:rgb(191.25,191.25,191.25); stroke-width:1; stroke:black; "  />
</g>
<g id="q2_72_23"  >
<polygon points="734,40 737,35.0 734,30 734,40 " style="fill:#FFFFFF; stroke-width:1; stroke:black; "  />
</g>
<g id="q2_72_24"  >
<polygon points="737,35.0 742.0,30 745,30 745,40 742.0,40 737,35.0 " style="fill:rgb(63.75,191.25,191.25); stroke-width:1; stroke:black; "  />
</g>
<g id="q2_72_25"  >
<polygon points="747,40 753.0,40 758,35.0 753.0,30 747,30 747,40 " style="fill:#FFFFFF; stroke-width:1; stroke:black; "  />
</g>
<g id="q2_72_26"  >
<polygon points="757,35.0 762.0,30 769,30 769,40 762.0,40 757,35.0 " style="fill:#FFFFFF; stroke-width:1; stroke:black; "  />
</g>
<g id="q2_72_27"  >
<polygon points="770,40 773.0,40 778,35.0 773.0,30 770,30 770,40 " style="fill:rgb(63.75,63.75,63.75); stroke-width:1; stroke:black; "  />
</g>
<g  >
<line x1="10" y1="85" x2="778.0" y2="85" style="stroke-width:1; stroke:grey; "  />
</g>
<g id="h2_72_0"  >
<polygon points="119,90 125.0,90 130,85.0 125.0,80 119,80 119,90 " style="fill:#FFFFFF; stroke-width:1; stroke:black; "  />
</g>
<g id="h2_72_1"  >
<polygon points="130,85.0 135.0,80 141,80 141,90 135.0,90 130,85.0 " style="fill:#FFFFFF; stroke-width:1; stroke:black; "  />
</g>
<g id="h2_72_2"  >
<polygon points="141,85.0 146.0,80 156,80 156,90 146.0,90 141,85.0 " style="fill:#FFFFFF; stroke-width:1; stroke:black; "  />
</g>
<g id="h2_72_3"  >
<polygon points="156,85.0 161.0,80 171,80 171,90 161.0,90 156,85.0 " style="fill:#FFFFFF; stroke-width:1; stroke:black; "  />
</g>
<g id="h2_72_4"  >
<polygon points="172,90 179.0,90 184,85.0 179.0,80 172,80 172,90 " style="fill:#FFFFFF; stroke-width:1; stroke:black; "  />
</g>
<g id="h2_72_5"  >
<polygon points="184,90 193.0,90 198,85.0 193.0,80 184,80 184,90 " style="fill:#FFFFFF; stroke-width:1; stroke:black; "  />
</g>
<g id="h2_72_6"  >
<polygon points="199,90 229.0,90 234,85.0 229.0,80 199,80 199,90 " style="fill:#FFFFFF; stroke-width:1; stroke:black; "  />
</g>
<g id="h2_72_7"  >
<polygon points="234,90 242.0,90 247,85.0 242.0,80 234,80 234,90 " style="fill:#FFFFFF; stroke-width:1; stroke:black; "  />
</g>
<g id="h2_72_8"  >
<polygon points="248,85.0 253.0,80 259,80 259,90 253.0,90 248,85.0 " style="fill:#FFFFFF; stroke-width:1; stroke:black; "  />
</g>
<g id="h2_72_9"  >
<polygon points="260,85.0 265.0,80 267,80 267,90 265.0,90 260,85.0 " style="fill:#FFFFFF; stroke-width:1; stroke:black; "  />
</g>
<g id="h2_72_10"  >
<polygon points="269,85.0 274.0,80 292,80 292,90 274.0,90 269,85.0 " style="fill:#FFFFFF; stroke-width:1; stroke:black; "  />
</g>
<g id="h2_72_11"  >
<polygon points="292,85.0 297.0,80 300,80 300,90 297.0,90 292,85.0 " style="fill:#FFFFFF; stroke-width:1; stroke:black; "  />
</g>
<g id="h2_72_12"  >
<polygon points="300,85.0 305.0,80 316,80 316,90 305.0,90 300,85.0 " style="fill:#FFFFFF; stroke-width:1; stroke:black; "  />
</g>
<g id="h2_72_13"  >
<polygon points="317,85.0 322.0,80 336,80 336,90 322.0,90 317,85.0 " style="fill:#FFFFFF; stroke-width:1; stroke:black; "  />
</g>
<g id="h2_72_14"  >
<polygon points="338,85.0 343.0,80 352,80 352,90 343.0,90 338,85.0 " style="fill:#FFFFFF; stroke-width:1; stroke:black; "  />
</g>
<g id="h2_72_15"  >
<polygon points="355,90 362.0,90 367,85.0 362.0,80 355,80 355,90 " style="fill:#FFFFFF; stroke-width:1; stroke:black; "  />
</g>
<g id="h2_72_16"  >
<polygon points="367,90 375.0,90 380,85.0 375.0,80 367,80 367,90 " style="fill:#FFFFFF; stroke-width:1; stroke:black; "  />
</g>
<g id="h2_72_17"  >
<polygon points="380,90 386.0,90 391,85.0 386.0,80 380,80 380,90 " style="fill:rgb(191.25,191.25,63.75); stroke-width:1; stroke:black; "  />
</g>
<g id="h2_72_18"  >
<polygon points="391,90 412.0,90 417,85.0 412.0,80 391,80 391,90 " style="fill:#FFFFFF; stroke-width:1; stroke:black; "  />
</g>
<g id="h2_72_19"  >
<polygon points="417,90 419.0,90 424,85.0 419.0,80 417,80 417,90 " style="fill:#FFFFFF; stroke-width:1; stroke:black; "  />
</g>
<g id="h2_72_20"  >
<polygon points="425,90 427.0,90 432,85.0 427.0,80 425,80 425,90 " style="fill:#FFFFFF; stroke-width:1; stroke:black; "  />
</g>
<g id="h2_72_21"  >
<polygon points="433,85.0 438.0,80 439,80 439,90 438.0,90 433,85.0 " style="fill:#FFFFFF; stroke-width:1; stroke:black; "  />
</g>
<g id="h2_72_22"  >
<polygon points="440,85.0 444,80 444,90 440,85.0 " style="fill:#FFFFFF; stroke-width:1; stroke:black; "  />
</g>
<g id="h2_72_23"  >
<polygon points="444,85.0 449.0,80 451,80 451,90 449.0,90 444,85.0 " style="fill:#FFFFFF; stroke-width:1; stroke:black; "  />
</g>
<g id="h2_72_24"  >
<polygon points="456,90 462.0,90 467,85.0 462.0,80 456,80 456,90 " style="fill:#FFFFFF; stroke-width:1; stroke:black; "  />
</g>
<g id="h2_72_25"  >
<polygon points="467,85.0 469,80 469,90 467,85.0 " style="fill:#FFFFFF; stroke-width:1; stroke:black; "  />
</g>
<g id="h2_72_26"  >
<polygon points="470,85.0 475.0,80 479,80 479,90 475.0,90 470,85.0 " style="fill:#FFFFFF; stroke-width:1; stroke:black; "  />
</g>
<g id="h2_72_27"  >
<polygon points="479,85.0 484.0,80 487,80 487,90 484.0,90 479,85.0 " style="fill:#FFFFFF; stroke-width:1; stroke:black; "  />
</g>
<g id="h2_72_28"  >
<polygon points="487,85.0 492.0,80 500,80 500,90 492.0,90 487,85.0 " style="fill:#FFFFFF; stroke-width:1; stroke:black; "  />
</g>
<g id="h2_72_29"  >
<polygon points="501,85.0 506.0,80 512,80 512,90 506.0,90 501,85.0 " style="fill:#FFFFFF; stroke-width:1; stroke:black; "  />
</g>
<g id="h2_72_30"  >
<polygon points="512,85.0 517.0,80 525,80 525,90 517.0,90 512,85.0 " style="fill:#FFFFFF; stroke-width:1; stroke:black; "  />
</g>
<g id="h2_72_31"  >
<polygon points="525,85.0 530.0,80 531,80 531,90 530.0,90 525,85.0 " style="fill:#FFFFFF; stroke-width:1; stroke:black; "  />
</g>
<g id="h2_72_32"  >
<polygon points="531,85.0 536.0,80 543,80 543,90 536.0,90 531,85.0 " style="fill:#FFFFFF; stroke-width:1; stroke:black; "  />
</g>
<g id="h2_72_33"  >
<polygon points="578,85.0 583.0,80 592,80 592,90 583.0,90 578,85.0 " style="fill:#FFFFFF; stroke-width:1; stroke:black; "  />
</g>
<g id="h2_72_34"  >
<polygon points="596,85.0 601.0,80 610,80 610,90 601.0,90 596,85.0 " style="fill:#FFFFFF; stroke-width:1; stroke:black; "  />
</g>
<g id="h2_72_35"  >
<polygon points="611,85.0 616.0,80 627,80 627,90 616.0,90 611,85.0 " style="fill:#FFFFFF; stroke-width:1; stroke:black; "  />
</g>
<g id="h2_72_36"  >
<polygon points="630,90 632.0,90 637,85.0 632.0,80 630,80 630,90 " style="fill:#FFFFFF; stroke-width:1; stroke:black; "  />
</g>
<g id="h2_72_37"  >
<polygon points="638,90 643.0,90 648,85.0 643.0,80 638,80 638,90 " style="fill:#FFFFFF; stroke-width:1; stroke:black; "  />
</g>
<g id="h2_72_38"  >
<polygon points="648,90 662.0,90 667,85.0 662.0,80 648,80 648,90 " style="fill:#FFFFFF; stroke-width:1; stroke:black; "  />
</g>
</svg>
