<svg xmlns="http://www.w3.org/2000/svg" xmlns:xlink="http://www.w3.org/1999/xlink" version="1.1" x="0" y="0" height="2770" width="768.0" viewBox="0 0 819.2 2680" preserveAspectRatio="none"  >
<g  >
<line x1="10" y1="35" x2="778.0" y2="35" style="stroke-width:1; stroke:grey; "  />
</g>
<g id="q1_12_0"  >
<polygon points="23,40 31.0,40 36,35.0 31.0,30 23,30 23,40 " style="fill:rgb(212.5,42.5,42.5); stroke-width:1; stroke:black; "  />
</g>
<g id="q1_12_1"  >
<polygon points="38,40 40.0,40 45,35.0 40.0,30 38,30 38,40 " style="fill:#FFFFFF; stroke-width:1; stroke:black; "  />
</g>
<g id="q1_12_2"  >
<polygon points="46,40 50.0,40 55,35.0 50.0,30 46,30 46,40 " style="fill:rgb(127.5,127.5,42.5); stroke-width:1; stroke:black; "  />
</g>
<g id="q1_12_3"  >
<polygon points="56,35.0 61.0,30 70,30 70,40 61.0,40 56,35.0 " style="fill:rgb(127.5,42.5,42.5); stroke-width:1; stroke:black; "  />
</g>
<g id="q1_12_4"  >
<polygon points="72,35.0 77.0,30 105,30 105,40 77.0,40 72,35.0 " style="fill:rgb(42.5,212.5,42.5); stroke-width:1; stroke:black; "  />
</g>
<g id="q1_12_5"  >
<polygon points="109,40 114.0,40 119,35.0 114.0,30 109,30 109,40 " style="fill:rgb(127.5,127.5,42.5); stroke-width:1; stroke:black; "  />
</g>
<g id="q1_12_6"  >
<polygon points="125,35.0 130.0,30 148,30 148,40 130.0,40 125,35.0 " style="fill:rgb(42.5,127.5,212.5); stroke-width:1; stroke:black; "  />
</g>
<g id="q1_12_7"  >
<polygon points="149,40 157.0,40 162,35.0 157.0,30 149,30 149,40 " style="fill:rgb(42.5,42.5,42.5); stroke-width:1; stroke:black; "  />
</g>
<g id="q1_12_8"  >
<polygon points="162,40 180.0,40 185,35.0 180.0,30 162,30 162,40 " style="fill:rgb(212.5,212.5,42.5); stroke-width:1; stroke:black; "  />
</g>
<g id="q1_12_9"  >
<polygon points="185,40 188,35.0 185,30 185,40 " style="fill:rgb(42.5,42.5,127.5); stroke-width:1; stroke:black; "  />
</g>
<g id="q1_12_10"  >
<polygon points="188,40 192.0,40 197,35.0 192.0,30 188,30 188,40 " style="fill:rgb(212.5,42.5,127.5); stroke-width:1; stroke:black; "  />
</g>
<g id="q1_12_11"  >
<polygon points="197,40 206.0,40 211,35.0 206.0,30 197,30 197,40 " style="fill:rgb(127.5,127.5,212.5); stroke-width:1; stroke:black; "  />
</g>
<g id="q1_12_12"  >
<polygon points="211,40 422.0,40 427,35.0 422.0,30 211,30 211,40 " style="fill:rgb(42.5,212.5,212.5); stroke-width:1; stroke:black; "  />
</g>
<g id="q1_12_13"  >
<polygon points="428,40 560.0,40 565,35.0 560.0,30 428,30 428,40 " style="fill:rgb(42.5,212.5,212.5); stroke-width:1; stroke:black; "  />
</g>
<g id="q1_12_14"  >
<polygon points="565,40 597.0,40 602,35.0 597.0,30 565,30 565,40 " style="fill:rgb(42.5,212.5,212.5); stroke-width:1; stroke:black; "  />
</g>
<g id="q1_12_15"  >
<polygon points="603,35.0 608.0,30 612,30 612,40 608.0,40 603,35.0 " style="fill:rgb(212.5,42.5,212.5); stroke-width:1; stroke:black; "  />
</g>
<g id="q1_12_16"  >
<polygon points="613,40 626.0,40 631,35.0 626.0,30 613,30 613,40 " style="fill:rgb(42.5,42.5,212.5); stroke-width:1; stroke:black; "  />
</g>
<g id="q1_12_17"  >
<polygon points="632,40 639.0,40 644,35.0 639.0,30 632,30 632,40 " style="fill:rgb(212.5,212.5,212.5); stroke-width:1; stroke:black; "  />
</g>
<g id="q1_12_18"  >
<polygon points="645,40 660.0,40 665,35.0 660.0,30 645,30 645,40 " style="fill:rgb(212.5,212.5,127.5); stroke-width:1; stroke:black; "  />
</g>
<g id="q1_12_19"  >
<polygon points="665,40 672.0,40 677,35.0 672.0,30 665,30 665,40 " style="fill:rgb(42.5,127.5,42.5); stroke-width:1; stroke:black; "  />
</g>
<g id="q1_12_20"  >
<polygon points="677,40 683.0,40 688,35.0 683.0,30 677,30 677,40 " style="fill:rgb(127.5,127.5,127.5); stroke-width:1; stroke:black; "  />
</g>
<g id="q1_12_21"  >
<polygon points="688,40 703.0,40 708,35.0 703.0,30 688,30 688,40 " style="fill:rgb(42.5,212.5,127.5); stroke-width:1; stroke:black; "  />
</g>
<g id="q1_12_22"  >
<polygon points="708,40 718.0,40 723,35.0 718.0,30 708,30 708,40 " style="fill:rgb(127.5,42.5,42.5); stroke-width:1; stroke:black; "  />
</g>
<g id="q1_12_23"  >
<polygon points="722,40 725,35.0 722,30 722,40 " style="fill:rgb(127.5,42.5,127.5); stroke-width:1; stroke:black; "  />
</g>
<g id="q1_12_24"  >
<polygon points="725,35.0 730.0,30 732,30 732,40 730.0,40 725,35.0 " style="fill:rgb(42.5,127.5,127.5); stroke-width:1; stroke:black; "  />
</g>
<g id="q1_12_25"  >
<polygon points="734,40 740.0,40 745,35.0 740.0,30 734,30 734,40 " style="fill:rgb(212.5,127.5,42.5); stroke-width:1; stroke:black; "  />
</g>
<g id="q1_12_26"  >
<polygon points="744,35.0 749.0,30 755,30 755,40 749.0,40 744,35.0 " style="fill:rgb(42.5,212.5,212.5); stroke-width:1; stroke:black; "  />
</g>
<g id="q1_12_27"  >
<polygon points="756,40 759.0,40 764,35.0 759.0,30 756,30 756,40 " style="fill:rgb(212.5,127.5,212.5); stroke-width:1; stroke:black; "  />
</g>
<g  >
<line x1="10" y1="85" x2="778.0" y2="85" style="stroke-width:1; stroke:grey; "  />
</g>
<g id="h1_12_0"  >
<polygon points="10,85.0 15.0,80 46,80 46,90 15.0,90 10,85.0 " style="fill:#FFFFFF; stroke-width:1; stroke:black; "  />
</g>
<g id="h1_12_1"  >
<polygon points="48,85.0 53.0,80 58,80 58,90 53.0,90 48,85.0 " style="fill:#FFFFFF; stroke-width:1; stroke:black; "  />
</g>
<g id="h1_12_2"  >
<polygon points="59,90 63,85.0 59,80 59,90 " style="fill:#FFFFFF; stroke-width:1; stroke:black; "  />
</g>
<g id="h1_12_3"  >
<polygon points="65,90 67,85.0 65,80 65,90 " style="fill:#FFFFFF; stroke-width:1; stroke:black; "  />
</g>
<g id="h1_12_4"  >
<polygon points="68,90 70.0,90 75,85.0 70.0,80 68,80 68,90 " style="fill:#FFFFFF; stroke-width:1; stroke:black; "  />
</g>
<g id="h1_12_5"  >
<polygon points="76,90 79.0,90 84,85.0 79.0,80 76,80 76,90 " style="fill:#FFFFFF; stroke-width:1; stroke:black; "  />
</g>
<g id="h1_12_6"  >
<polygon points="84,85.0 89.0,80 90,80 90,90 89.0,90 84,85.0 " style="fill:#FFFFFF; stroke-width:1; stroke:black; "  />
</g>
<g id="h1_12_7"  >
<polygon points="90,85.0 95.0,80 97,80 97,90 95.0,90 90,85.0 " style="fill:#FFFFFF; stroke-width:1; stroke:black; "  />
</g>
<g id="h1_12_8"  >
<polygon points="101,85.0 106.0,80 109,80 109,90 106.0,90 101,85.0 " style="fill:#FFFFFF; stroke-width:1; stroke:black; "  />
</g>
<g id="h1_12_9"  >
<polygon points="113,90 115,85.0 113,80 113,90 " style="fill:#FFFFFF; stroke-width:1; stroke:black; "  />
</g>
<g id="h1_12_10"  >
<polygon points="113,85.0 116,80 116,90 113,85.0 " style="fill:#FFFFFF; stroke-width:1; stroke:black; "  />
</g>
<g id="h1_12_11"  >
<polygon points="129,90 136.0,90 141,85.0 136.0,80 129,80 129,90 " style="fill:#FFFFFF; stroke-width:1; stroke:black; "  />
</g>
<g id="h1_12_12"  >
<polygon points="144,90 160.0,90 165,85.0 160.0,80 144,80 144,90 " style="fill:#FFFFFF; stroke-width:1; stroke:black; "  />
</g>
<g id="h1_12_13"  >
<polygon points="165,90 181.0,90 186,85.0 181.0,80 165,80 165,90 " style="fill:#FFFFFF; stroke-width:1; stroke:black; "  />
</g>
<g id="h1_12_14"  >
<polygon points="186,90 202.0,90 207,85.0 202.0,80 186,80 186,90 " style="fill:#FFFFFF; stroke-width:1; stroke:black; "  />
</g>
<g id="h1_12_15"  >
<polygon points="208,85.0 213.0,80 228,80 228,90 213.0,90 208,85.0 " style="fill:#FFFFFF; stroke-width:1; stroke:black; "  />
</g>
<g id="h1_12_16"  >
<polygon points="228,85.0 233.0,80 240,80 240,90 233.0,90 228,85.0 " style="fill:#FFFFFF; stroke-width:1; stroke:black; "  />
</g>
<g id="h1_12_17"  >
<polygon points="240,85.0 245.0,80 252,80 252,90 245.0,90 240,85.0 " style="fill:#FFFFFF; stroke-width:1; stroke:black; "  />
</g>
<g id="h1_12_18"  >
<polygon points="252,85.0 257.0,80 268,80 268,90 257.0,90 252,85.0 " style="fill:#FFFFFF; stroke-width:1; stroke:black; "  />
</g>
<g id="h1_12_19"  >
<polygon points="268,85.0 273.0,80 276,80 276,90 273.0,90 268,85.0 " style="fill:rgb(42.5,212.5,127.5); stroke-width:1; stroke:black; "  />
</g>
<g id="h1_12_20"  >
<polygon points="276,85.0 281.0,80 286,80 286,90 281.0,90 276,85.0 " style="fill:#FFFFFF; stroke-width:1; stroke:black; "  />
</g>
<g id="h1_12_21"  >
<polygon points="286,85.0 291.0,80 299,80 299,90 291.0,90 286,85.0 " style="fill:#FFFFFF; stroke-width:1; stroke:black; "  />
</g>
<g id="h1_12_22"  >
<polygon points="299,85.0 304.0,80 310,80 310,90 304.0,90 299,85.0 " style="fill:#FFFFFF; stroke-width:1; stroke:black; "  />
</g>
<g id="h1_12_23"  >
<polygon points="311,85.0 316.0,80 326,80 326,90 316.0,90 311,85.0 " style="fill:#FFFFFF; stroke-width:1; stroke:black; "  />
</g>
<g id="h1_12_24"  >
<polygon points="326,85.0 331.0,80 332,80 332,90 331.0,90 326,85.0 " style="fill:#FFFFFF; stroke-width:1; stroke:black; "  />
</g>
<g id="h1_12_25"  >
<polygon points="334,90 337.0,90 342,85.0 337.0,80 334,80 334,90 " style="fill:#FFFFFF; stroke-width:1; stroke:black; "  />
</g>
<g id="h1_12_26"  >
<polygon points="342,85.0 347.0,80 347,80 347,90 347.0,90 342,85.0 " style="fill:#FFFFFF; stroke-width:1; stroke:black; "  />
</g>
<g id="h1_12_27"  >
<polygon points="349,85.0 354.0,80 356,80 356,90 354.0,90 349,85.0 " style="fill:#FFFFFF; stroke-width:1; stroke:black; "  />
</g>
<g id="h1_12_28"  >
<polygon points="366,90 397.0,90 402,85.0 397.0,80 366,80 366,90 " style="fill:#FFFFFF; stroke-width:1; stroke:black; "  />
</g>
<g id="h1_12_29"  >
<polygon points="405,90 409,85.0 405,80 405,90 " style="fill:#FFFFFF; stroke-width:1; stroke:black; "  />
</g>
<g id="h1_12_30"  >
<polygon points="409,90 411.0,90 416,85.0 411.0,80 409,80 409,90 " style="fill:#FFFFFF; stroke-width:1; stroke:black; "  />
</g>
<g id="h1_12_31"  >
<polygon points="423,90 436.0,90 441,85.0 436.0,80 423,80 423,90 " style="fill:#FFFFFF; stroke-width:1; stroke:black; "  />
</g>
<g id="h1_12_32"  >
<polygon points="442,90 450.0,90 455,85.0 450.0,80 442,80 442,90 " style="fill:#FFFFFF; stroke-width:1; stroke:black; "  />
</g>
<g id="h1_12_33"  >
<polygon points="455,90 462.0,90 467,85.0 462.0,80 455,80 455,90 " style="fill:rgb(127.5,127.5,127.5); stroke-width:1; stroke:black; "  />
</g>
<g id="h1_12_34"  >
<polygon points="467,90 476.0,90 481,85.0 476.0,80 467,80 467,90 " style="fill:rgb(42.5,212.5,127.5); stroke-width:1; stroke:black; "  />
</g>
<g id="h1_12_35"  >
<polygon points="481,90 490.0,90 495,85.0 490.0,80 481,80 481,90 " style="fill:rgb(42.5,212.5,127.5); stroke-width:1; stroke:black; "  />
</g>
<g id="h1_12_36"  >
<polygon points="496,85.0 501.0,80 502,80 502,90 501.0,90 496,85.0 " style="fill:#FFFFFF; stroke-width:1; stroke:black; "  />
</g>
<g id="h1_12_37"  >
<polygon points="501,85.0 506.0,80 510,80 510,90 506.0,90 501,85.0 " style="fill:#FFFFFF; stroke-width:1; stroke:black; "  />
</g>
<g id="h1_12_38"  >
<polygon points="511,90 524.0,90 529,85.0 524.0,80 511,80 511,90 " style="fill:rgb(42.5,42.5,212.5); stroke-width:1; stroke:black; "  />
</g>
<g id="h1_12_39"  >
<polygon points="529,85.0 534.0,80 552,80 552,90 534.0,90 529,85.0 " style="fill:#FFFFFF; stroke-width:1; stroke:black; "  />
</g>
<g id="h1_12_40"  >
<polygon points="554,85.0 559.0,80 561,80 561,90 559.0,90 554,85.0 " style="fill:#FFFFFF; stroke-width:1; stroke:black; "  />
</g>
<g id="h1_12_41"  >
<polygon points="562,85.0 567.0,80 572,80 572,90 567.0,90 562,85.0 " style="fill:#FFFFFF; stroke-width:1; stroke:black; "  />
</g>
<g id="h1_12_42"  >
<polygon points="575,90 586.0,90 591,85.0 586.0,80 575,80 575,90 " style="fill:#FFFFFF; stroke-width:1; stroke:black; "  />
</g>
<g id="h1_12_43"  >
<polygon points="591,90 599.0,90 604,85.0 599.0,80 591,80 591,90 " style="fill:#FFFFFF; stroke-width:1; stroke:black; "  />
</g>
<g id="h1_12_44"  >
<polygon points="607,85.0 612.0,80 625,80 625,90 612.0,90 607,85.0 " style="fill:#FFFFFF; stroke-width:1; stroke:black; "  />
</g>
<g id="h1_12_45"  >
<polygon points="627,90 632.0,90 637,85.0 632.0,80 627,80 627,90 " style="fill:#FFFFFF; stroke-width:1; stroke:black; "  />
</g>
<g id="h1_12_46"  >
<polygon points="641,90 642.0,90 647,85.0 642.0,80 641,80 641,90 " style="fill:#FFFFFF; stroke-width:1; stroke:black; "  />
</g>
<g id="h1_12_47"  >
<polygon points="647,90 650,85.0 647,80 647,90 " style="fill:#FFFFFF; stroke-width:1; stroke:black; "  />
</g>
<g id="h1_12_48"  >
<polygon points="651,90 654,85.0 651,80 651,90 " style="fill:#FFFFFF; stroke-width:1; stroke:black; "  />
</g>
<g id="h1_12_49"  >
<polygon points="654,85.0 659.0,80 664,80 664,90 659.0,90 654,85.0 " style="fill:#FFFFFF; stroke-width:1; stroke:black; "  />
</g>
<g id="h1_12_50"  >
<polygon points="665,85.0 670.0,80 680,80 680,90 670.0,90 665,85.0 " style="fill:#FFFFFF; stroke-width:1; stroke:black; "  />
</g>
<g id="h1_12_51"  >
<polygon points="681,85.0 686.0,80 693,80 693,90 686.0,90 681,85.0 " style="fill:#FFFFFF; stroke-width:1; stroke:black; "  />
</g>
<g id="h1_12_52"  >
<polygon points="695,85.0 700.0,80 706,80 706,90 700.0,90 695,85.0 " style="fill:#FFFFFF; stroke-width:1; stroke:black; "  />
</g>
<g id="h1_12_53"  >
<polygon points="707,85.0 712.0,80 716,80 716,90 712.0,90 707,85.0 " style="fill:#FFFFFF; stroke-width:1; stroke:black; "  />
</g>
<g id="h1_12_54"  >
<polygon points="716,85.0 721.0,80 731,80 731,90 721.0,90 716,85.0 " style="fill:#FFFFFF; stroke-width:1; stroke:black; "  />
</g>
<g id="h1_12_55"  >
<polygon points="733,85.0 738.0,80 748,80 748,90 738.0,90 733,85.0 " style="fill:#FFFFFF; stroke-width:1; stroke:black; "  />
</g>
<g id="h1_12_56"  >
<polygon points="748,85.0 753.0,80 763,80 763,90 753.0,90 748,85.0 " style="fill:#FFFFFF; stroke-width:1; stroke:black; "  />
</g>
<g id="h1_12_57"  >
<polygon points="765,85.0 770.0,80 778,80 778,90 770.0,90 765,85.0 " style="fill:#FFFFFF; stroke-width:1; stroke:black; "  />
</g>
</svg>
