<svg xmlns="http://www.w3.org/2000/svg" xmlns:xlink="http://www.w3.org/1999/xlink" version="1.1" x="0" y="0" height="2770" width="768.0" viewBox="0 0 819.2 2680" preserveAspectRatio="none"  >
<g  >
<line x1="10" y1="35" x2="778.0" y2="35" style="stroke-width:1; stroke:grey; "  />
</g>
<g id="q1_2_0"  >
<polygon points="123,40 127.0,40 132,35.0 127.0,30 123,30 123,40 " style="fill:rgb(212.5,42.5,42.5); stroke-width:1; stroke:black; "  />
</g>
<g id="q1_2_1"  >
<polygon points="134,40 134.0,40 139,35.0 134.0,30 134,30 134,40 " style="fill:#FFFFFF; stroke-width:1; stroke:black; "  />
</g>
<g id="q1_2_2"  >
<polygon points="140,40 141.0,40 146,35.0 141.0,30 140,30 140,40 " style="fill:rgb(127.5,127.5,42.5); stroke-width:1; stroke:black; "  />
</g>
<g id="q1_2_3"  >
<polygon points="147,35.0 152.0,30 157,30 157,40 152.0,40 147,35.0 " style="fill:rgb(127.5,42.5,42.5); stroke-width:1; stroke:black; "  />
</g>
<g id="q1_2_4"  >
<polygon points="158,35.0 163.0,30 183,30 183,40 163.0,40 158,35.0 " style="fill:rgb(42.5,212.5,42.5); stroke-width:1; stroke:black; "  />
</g>
<g id="q1_2_5"  >
<polygon points="186,40 188.0,40 193,35.0 188.0,30 186,30 186,40 " style="fill:rgb(127.5,127.5,42.5); stroke-width:1; stroke:black; "  />
</g>
<g id="q1_2_6"  >
<polygon points="197,35.0 202.0,30 214,30 214,40 202.0,40 197,35.0 " style="fill:rgb(42.5,127.5,212.5); stroke-width:1; stroke:black; "  />
</g>
<g id="q1_2_7"  >
<polygon points="215,40 219.0,40 224,35.0 219.0,30 215,30 215,40 " style="fill:rgb(42.5,42.5,42.5); stroke-width:1; stroke:black; "  />
</g>
<g id="q1_2_8"  >
<polygon points="224,40 236.0,40 241,35.0 236.0,30 224,30 224,40 " style="fill:rgb(212.5,212.5,42.5); stroke-width:1; stroke:black; "  />
</g>
<g id="q1_2_9"  >
<polygon points="241,40 243,35.0 241,30 241,40 " style="fill:rgb(42.5,42.5,127.5); stroke-width:1; stroke:black; "  />
</g>
<g id="q1_2_10"  >
<polygon points="243,40 245.0,40 250,35.0 245.0,30 243,30 243,40 " style="fill:rgb(212.5,42.5,127.5); stroke-width:1; stroke:black; "  />
</g>
<g id="q1_2_11"  >
<polygon points="250,40 255.0,40 260,35.0 255.0,30 250,30 250,40 " style="fill:rgb(127.5,127.5,212.5); stroke-width:1; stroke:black; "  />
</g>
<g id="q1_2_12"  >
<polygon points="260,40 413.0,40 418,35.0 413.0,30 260,30 260,40 " style="fill:rgb(42.5,212.5,212.5); stroke-width:1; stroke:black; "  />
</g>
<g id="q1_2_13"  >
<polygon points="419,40 513.0,40 518,35.0 513.0,30 419,30 419,40 " style="fill:rgb(42.5,212.5,212.5); stroke-width:1; stroke:black; "  />
</g>
<g id="q1_2_14"  >
<polygon points="518,40 540.0,40 545,35.0 540.0,30 518,30 518,40 " style="fill:rgb(42.5,212.5,212.5); stroke-width:1; stroke:black; "  />
</g>
<g id="q1_2_15"  >
<polygon points="546,35.0 551.0,30 552,30 552,40 551.0,40 546,35.0 " style="fill:rgb(212.5,42.5,212.5); stroke-width:1; stroke:black; "  />
</g>
<g id="q1_2_16"  >
<polygon points="553,40 561.0,40 566,35.0 561.0,30 553,30 553,40 " style="fill:rgb(42.5,42.5,212.5); stroke-width:1; stroke:black; "  />
</g>
<g id="q1_2_17"  >
<polygon points="567,40 571.0,40 576,35.0 571.0,30 567,30 567,40 " style="fill:rgb(212.5,212.5,212.5); stroke-width:1; stroke:black; "  />
</g>
<g id="q1_2_18"  >
<polygon points="577,40 587.0,40 592,35.0 587.0,30 577,30 577,40 " style="fill:rgb(212.5,212.5,127.5); stroke-width:1; stroke:black; "  />
</g>
<g id="q1_2_19"  >
<polygon points="591,40 595.0,40 600,35.0 595.0,30 591,30 591,40 " style="fill:rgb(42.5,127.5,42.5); stroke-width:1; stroke:black; "  />
</g>
<g id="q1_2_20"  >
<polygon points="600,40 603.0,40 608,35.0 603.0,30 600,30 600,40 " style="fill:rgb(127.5,127.5,127.5); stroke-width:1; stroke:black; "  />
</g>
<g id="q1_2_21"  >
<polygon points="608,40 617.0,40 622,35.0 617.0,30 608,30 608,40 " style="fill:rgb(42.5,212.5,127.5); stroke-width:1; stroke:black; "  />
</g>
<g id="q1_2_22"  >
<polygon points="622,40 628.0,40 633,35.0 628.0,30 622,30 622,40 " style="fill:rgb(127.5,42.5,42.5); stroke-width:1; stroke:black; "  />
</g>
<g id="q1_2_23"  >
<polygon points="633,40 635,35.0 633,30 633,40 " style="fill:rgb(127.5,42.5,127.5); stroke-width:1; stroke:black; "  />
</g>
<g id="q1_2_24"  >
<polygon points="635,35.0 640.0,30 640,30 640,40 640.0,40 635,35.0 " style="fill:rgb(42.5,127.5,127.5); stroke-width:1; stroke:black; "  />
</g>
<g id="q1_2_25"  >
<polygon points="642,40 645.0,40 650,35.0 645.0,30 642,30 642,40 " style="fill:rgb(212.5,127.5,42.5); stroke-width:1; stroke:black; "  />
</g>
<g id="q1_2_26"  >
<polygon points="649,35.0 654.0,30 657,30 657,40 654.0,40 649,35.0 " style="fill:rgb(42.5,212.5,212.5); stroke-width:1; stroke:black; "  />
</g>
<g id="q1_2_27"  >
<polygon points="658,40 658.0,40 663,35.0 658.0,30 658,30 658,40 " style="fill:rgb(212.5,127.5,212.5); stroke-width:1; stroke:black; "  />
</g>
<g  >
<line x1="10" y1="85" x2="778.0" y2="85" style="stroke-width:1; stroke:grey; "  />
</g>
<g id="h1_2_0"  >
<polygon points="10,85.0 14,80 14,90 10,85.0 " style="fill:#FFFFFF; stroke-width:1; stroke:black; "  />
</g>
<g id="h1_2_1"  >
<polygon points="14,85.0 19.0,80 24,80 24,90 19.0,90 14,85.0 " style="fill:#FFFFFF; stroke-width:1; stroke:black; "  />
</g>
<g id="h1_2_2"  >
<polygon points="29,85.0 33,80 33,90 29,85.0 " style="fill:#FFFFFF; stroke-width:1; stroke:black; "  />
</g>
<g id="h1_2_3"  >
<polygon points="33,90 37.0,90 42,85.0 37.0,80 33,80 33,90 " style="fill:rgb(42.5,212.5,212.5); stroke-width:1; stroke:black; "  />
</g>
<g id="h1_2_4"  >
<polygon points="45,85.0 50.0,80 53,80 53,90 50.0,90 45,85.0 " style="fill:#FFFFFF; stroke-width:1; stroke:black; "  />
</g>
<g id="h1_2_5"  >
<polygon points="53,85.0 58.0,80 60,80 60,90 58.0,90 53,85.0 " style="fill:#FFFFFF; stroke-width:1; stroke:black; "  />
</g>
<g id="h1_2_6"  >
<polygon points="65,90 67,85.0 65,80 65,90 " style="fill:#FFFFFF; stroke-width:1; stroke:black; "  />
</g>
<g id="h1_2_7"  >
<polygon points="73,85.0 76,80 76,90 73,85.0 " style="fill:#FFFFFF; stroke-width:1; stroke:black; "  />
</g>
<g id="h1_2_8"  >
<polygon points="78,90 82,85.0 78,80 78,90 " style="fill:#FFFFFF; stroke-width:1; stroke:black; "  />
</g>
<g id="h1_2_9"  >
<polygon points="83,90 85,85.0 83,80 83,90 " style="fill:#FFFFFF; stroke-width:1; stroke:black; "  />
</g>
<g id="h1_2_10"  >
<polygon points="86,90 92.0,90 97,85.0 92.0,80 86,80 86,90 " style="fill:#FFFFFF; stroke-width:1; stroke:black; "  />
</g>
<g id="h1_2_11"  >
<polygon points="98,85.0 99,80 99,90 98,85.0 " style="fill:#FFFFFF; stroke-width:1; stroke:black; "  />
</g>
<g id="h1_2_12"  >
<polygon points="102,90 103.0,90 108,85.0 103.0,80 102,80 102,90 " style="fill:#FFFFFF; stroke-width:1; stroke:black; "  />
</g>
<g id="h1_2_13"  >
<polygon points="109,90 109.0,90 114,85.0 109.0,80 109,80 109,90 " style="fill:#FFFFFF; stroke-width:1; stroke:black; "  />
</g>
<g id="h1_2_14"  >
<polygon points="116,90 116.0,90 121,85.0 116.0,80 116,80 116,90 " style="fill:#FFFFFF; stroke-width:1; stroke:black; "  />
</g>
<g id="h1_2_15"  >
<polygon points="122,90 126,85.0 122,80 122,90 " style="fill:#FFFFFF; stroke-width:1; stroke:black; "  />
</g>
<g id="h1_2_16"  >
<polygon points="127,90 128.0,90 133,85.0 128.0,80 127,80 127,90 " style="fill:#FFFFFF; stroke-width:1; stroke:black; "  />
</g>
<g id="h1_2_17"  >
<polygon points="136,90 137.0,90 142,85.0 137.0,80 136,80 136,90 " style="fill:#FFFFFF; stroke-width:1; stroke:black; "  />
</g>
<g id="h1_2_18"  >
<polygon points="142,90 143,85.0 142,80 142,90 " style="fill:#FFFFFF; stroke-width:1; stroke:black; "  />
</g>
<g id="h1_2_19"  >
<polygon points="144,90 145.0,90 150,85.0 145.0,80 144,80 144,90 " style="fill:#FFFFFF; stroke-width:1; stroke:black; "  />
</g>
<g id="h1_2_20"  >
<polygon points="151,90 151.0,90 156,85.0 151.0,80 151,80 151,90 " style="fill:#FFFFFF; stroke-width:1; stroke:black; "  />
</g>
<g id="h1_2_21"  >
<polygon points="156,90 157.0,90 162,85.0 157.0,80 156,80 156,90 " style="fill:#FFFFFF; stroke-width:1; stroke:black; "  />
</g>
<g id="h1_2_22"  >
<polygon points="163,85.0 168.0,80 172,80 172,90 168.0,90 163,85.0 " style="fill:#FFFFFF; stroke-width:1; stroke:black; "  />
</g>
<g id="h1_2_23"  >
<polygon points="174,90 174.0,90 179,85.0 174.0,80 174,80 174,90 " style="fill:#FFFFFF; stroke-width:1; stroke:black; "  />
</g>
<g id="h1_2_24"  >
<polygon points="181,90 182.0,90 187,85.0 182.0,80 181,80 181,90 " style="fill:#FFFFFF; stroke-width:1; stroke:black; "  />
</g>
<g id="h1_2_25"  >
<polygon points="189,85.0 190,80 190,90 189,85.0 " style="fill:#FFFFFF; stroke-width:1; stroke:black; "  />
</g>
<g id="h1_2_26"  >
<polygon points="190,85.0 193,80 193,90 190,85.0 " style="fill:#FFFFFF; stroke-width:1; stroke:black; "  />
</g>
<g id="h1_2_27"  >
<polygon points="195,90 199.0,90 204,85.0 199.0,80 195,80 195,90 " style="fill:rgb(42.5,212.5,212.5); stroke-width:1; stroke:black; "  />
</g>
<g id="h1_2_28"  >
<polygon points="206,85.0 211.0,80 212,80 212,90 211.0,90 206,85.0 " style="fill:#FFFFFF; stroke-width:1; stroke:black; "  />
</g>
<g id="h1_2_29"  >
<polygon points="214,85.0 219.0,80 223,80 223,90 219.0,90 214,85.0 " style="fill:rgb(42.5,212.5,212.5); stroke-width:1; stroke:black; "  />
</g>
<g id="h1_2_30"  >
<polygon points="225,90 225.0,90 230,85.0 225.0,80 225,80 225,90 " style="fill:#FFFFFF; stroke-width:1; stroke:black; "  />
</g>
<g id="h1_2_31"  >
<polygon points="232,90 233,85.0 232,80 232,90 " style="fill:#FFFFFF; stroke-width:1; stroke:black; "  />
</g>
<g id="h1_2_32"  >
<polygon points="240,90 243.0,90 248,85.0 243.0,80 240,80 240,90 " style="fill:#FFFFFF; stroke-width:1; stroke:black; "  />
</g>
<g id="h1_2_33"  >
<polygon points="248,90 254.0,90 259,85.0 254.0,80 248,80 248,90 " style="fill:#FFFFFF; stroke-width:1; stroke:black; "  />
</g>
<g id="h1_2_34"  >
<polygon points="261,85.0 266.0,80 266,80 266,90 266.0,90 261,85.0 " style="fill:#FFFFFF; stroke-width:1; stroke:black; "  />
</g>
<g id="h1_2_35"  >
<polygon points="270,85.0 274,80 274,90 270,85.0 " style="fill:#FFFFFF; stroke-width:1; stroke:black; "  />
</g>
<g id="h1_2_36"  >
<polygon points="275,90 279.0,90 284,85.0 279.0,80 275,80 275,90 " style="fill:#FFFFFF; stroke-width:1; stroke:black; "  />
</g>
<g id="h1_2_37"  >
<polygon points="289,90 296.0,90 301,85.0 296.0,80 289,80 289,90 " style="fill:#FFFFFF; stroke-width:1; stroke:black; "  />
</g>
<g id="h1_2_38"  >
<polygon points="302,85.0 307.0,80 310,80 310,90 307.0,90 302,85.0 " style="fill:#FFFFFF; stroke-width:1; stroke:black; "  />
</g>
<g id="h1_2_39"  >
<polygon points="312,85.0 317.0,80 333,80 333,90 317.0,90 312,85.0 " style="fill:rgb(127.5,127.5,42.5); stroke-width:1; stroke:black; "  />
</g>
<g id="h1_2_40"  >
<polygon points="334,85.0 339.0,80 347,80 347,90 339.0,90 334,85.0 " style="fill:#FFFFFF; stroke-width:1; stroke:black; "  />
</g>
<g id="h1_2_41"  >
<polygon points="348,85.0 353.0,80 356,80 356,90 353.0,90 348,85.0 " style="fill:#FFFFFF; stroke-width:1; stroke:black; "  />
</g>
<g id="h1_2_42"  >
<polygon points="358,90 382.0,90 387,85.0 382.0,80 358,80 358,90 " style="fill:rgb(127.5,127.5,42.5); stroke-width:1; stroke:black; "  />
</g>
<g id="h1_2_43"  >
<polygon points="389,90 398.0,90 403,85.0 398.0,80 389,80 389,90 " style="fill:#FFFFFF; stroke-width:1; stroke:black; "  />
</g>
<g id="h1_2_44"  >
<polygon points="403,90 409.0,90 414,85.0 409.0,80 403,80 403,90 " style="fill:rgb(127.5,42.5,42.5); stroke-width:1; stroke:black; "  />
</g>
<g id="h1_2_45"  >
<polygon points="414,90 420.0,90 425,85.0 420.0,80 414,80 414,90 " style="fill:#FFFFFF; stroke-width:1; stroke:black; "  />
</g>
<g id="h1_2_46"  >
<polygon points="425,90 433.0,90 438,85.0 433.0,80 425,80 425,90 " style="fill:#FFFFFF; stroke-width:1; stroke:black; "  />
</g>
<g id="h1_2_47"  >
<polygon points="439,90 448.0,90 453,85.0 448.0,80 439,80 439,90 " style="fill:#FFFFFF; stroke-width:1; stroke:black; "  />
</g>
<g id="h1_2_48"  >
<polygon points="454,90 458,85.0 454,80 454,90 " style="fill:#FFFFFF; stroke-width:1; stroke:black; "  />
</g>
<g id="h1_2_49"  >
<polygon points="458,90 458.0,90 463,85.0 458.0,80 458,80 458,90 " style="fill:#FFFFFF; stroke-width:1; stroke:black; "  />
</g>
<g id="h1_2_50"  >
<polygon points="465,90 466,85.0 465,80 465,90 " style="fill:#FFFFFF; stroke-width:1; stroke:black; "  />
</g>
<g id="h1_2_51"  >
<polygon points="466,85.0 471.0,80 480,80 480,90 471.0,90 466,85.0 " style="fill:#FFFFFF; stroke-width:1; stroke:black; "  />
</g>
<g id="h1_2_52"  >
<polygon points="481,85.0 484,80 484,90 481,85.0 " style="fill:#FFFFFF; stroke-width:1; stroke:black; "  />
</g>
<g id="h1_2_53"  >
<polygon points="486,90 603.0,90 608,85.0 603.0,80 486,80 486,90 " style="fill:rgb(42.5,212.5,212.5); stroke-width:1; stroke:black; "  />
</g>
<g id="h1_2_54"  >
<polygon points="608,90 677.0,90 682,85.0 677.0,80 608,80 608,90 " style="fill:rgb(42.5,212.5,212.5); stroke-width:1; stroke:black; "  />
</g>
<g id="h1_2_55"  >
<polygon points="683,90 734.0,90 739,85.0 734.0,80 683,80 683,90 " style="fill:rgb(42.5,212.5,212.5); stroke-width:1; stroke:black; "  />
</g>
<g id="h1_2_56"  >
<polygon points="739,85.0 744.0,80 746,80 746,90 744.0,90 739,85.0 " style="fill:rgb(212.5,127.5,42.5); stroke-width:1; stroke:black; "  />
</g>
<g id="h1_2_57"  >
<polygon points="749,90 749.0,90 754,85.0 749.0,80 749,80 749,90 " style="fill:#FFFFFF; stroke-width:1; stroke:black; "  />
</g>
<g id="h1_2_58"  >
<polygon points="755,85.0 758,80 758,90 755,85.0 " style="fill:#FFFFFF; stroke-width:1; stroke:black; "  />
</g>
<g id="h1_2_59"  >
<polygon points="761,85.0 763,80 763,90 761,85.0 " style="fill:#FFFFFF; stroke-width:1; stroke:black; "  />
</g>
<g id="h1_2_60"  >
<polygon points="763,90 766,85.0 763,80 763,90 " style="fill:#FFFFFF; stroke-width:1; stroke:black; "  />
</g>
<g id="h1_2_61"  >
<polygon points="767,90 773.0,90 778,85.0 773.0,80 767,80 767,90 " style="fill:#FFFFFF; stroke-width:1; stroke:black; "  />
</g>
</svg>
