<svg xmlns="http://www.w3.org/2000/svg" xmlns:xlink="http://www.w3.org/1999/xlink" version="1.1" x="0" y="0" height="2770" width="768.0" viewBox="0 0 819.2 2680" preserveAspectRatio="none"  >
<g  >
<line x1="10" y1="35" x2="778.0" y2="35" style="stroke-width:1; stroke:grey; "  />
</g>
<g id="q1_7_0"  >
<polygon points="45,40 52.0,40 57,35.0 52.0,30 45,30 45,40 " style="fill:rgb(212.5,42.5,42.5); stroke-width:1; stroke:black; "  />
</g>
<g id="q1_7_1"  >
<polygon points="59,40 61.0,40 66,35.0 61.0,30 59,30 59,40 " style="fill:#FFFFFF; stroke-width:1; stroke:black; "  />
</g>
<g id="q1_7_2"  >
<polygon points="67,40 70.0,40 75,35.0 70.0,30 67,30 67,40 " style="fill:rgb(127.5,127.5,42.5); stroke-width:1; stroke:black; "  />
</g>
<g id="q1_7_3"  >
<polygon points="76,35.0 81.0,30 90,30 90,40 81.0,40 76,35.0 " style="fill:rgb(127.5,42.5,42.5); stroke-width:1; stroke:black; "  />
</g>
<g id="q1_7_4"  >
<polygon points="91,35.0 96.0,30 122,30 122,40 96.0,40 91,35.0 " style="fill:rgb(42.5,212.5,42.5); stroke-width:1; stroke:black; "  />
</g>
<g id="q1_7_5"  >
<polygon points="126,40 130.0,40 135,35.0 130.0,30 126,30 126,40 " style="fill:rgb(127.5,127.5,42.5); stroke-width:1; stroke:black; "  />
</g>
<g id="q1_7_6"  >
<polygon points="140,35.0 145.0,30 162,30 162,40 145.0,40 140,35.0 " style="fill:rgb(42.5,127.5,212.5); stroke-width:1; stroke:black; "  />
</g>
<g id="q1_7_7"  >
<polygon points="163,40 170.0,40 175,35.0 170.0,30 163,30 163,40 " style="fill:rgb(42.5,42.5,42.5); stroke-width:1; stroke:black; "  />
</g>
<g id="q1_7_8"  >
<polygon points="175,40 192.0,40 197,35.0 192.0,30 175,30 175,40 " style="fill:rgb(212.5,212.5,42.5); stroke-width:1; stroke:black; "  />
</g>
<g id="q1_7_9"  >
<polygon points="197,40 200,35.0 197,30 197,40 " style="fill:rgb(42.5,42.5,127.5); stroke-width:1; stroke:black; "  />
</g>
<g id="q1_7_10"  >
<polygon points="200,40 204.0,40 209,35.0 204.0,30 200,30 200,40 " style="fill:rgb(212.5,42.5,127.5); stroke-width:1; stroke:black; "  />
</g>
<g id="q1_7_11"  >
<polygon points="209,40 216.0,40 221,35.0 216.0,30 209,30 209,40 " style="fill:rgb(127.5,127.5,212.5); stroke-width:1; stroke:black; "  />
</g>
<g id="q1_7_12"  >
<polygon points="221,40 420.0,40 425,35.0 420.0,30 221,30 221,40 " style="fill:rgb(42.5,212.5,212.5); stroke-width:1; stroke:black; "  />
</g>
<g id="q1_7_13"  >
<polygon points="426,40 549.0,40 554,35.0 549.0,30 426,30 426,40 " style="fill:rgb(42.5,212.5,212.5); stroke-width:1; stroke:black; "  />
</g>
<g id="q1_7_14"  >
<polygon points="554,40 584.0,40 589,35.0 584.0,30 554,30 554,40 " style="fill:rgb(42.5,212.5,212.5); stroke-width:1; stroke:black; "  />
</g>
<g id="q1_7_15"  >
<polygon points="590,35.0 595.0,30 598,30 598,40 595.0,40 590,35.0 " style="fill:rgb(212.5,42.5,212.5); stroke-width:1; stroke:black; "  />
</g>
<g id="q1_7_16"  >
<polygon points="599,40 611.0,40 616,35.0 611.0,30 599,30 599,40 " style="fill:rgb(42.5,42.5,212.5); stroke-width:1; stroke:black; "  />
</g>
<g id="q1_7_17"  >
<polygon points="617,40 624.0,40 629,35.0 624.0,30 617,30 617,40 " style="fill:rgb(212.5,212.5,212.5); stroke-width:1; stroke:black; "  />
</g>
<g id="q1_7_18"  >
<polygon points="630,40 644.0,40 649,35.0 644.0,30 630,30 630,40 " style="fill:rgb(212.5,212.5,127.5); stroke-width:1; stroke:black; "  />
</g>
<g id="q1_7_19"  >
<polygon points="648,40 654.0,40 659,35.0 654.0,30 648,30 648,40 " style="fill:rgb(42.5,127.5,42.5); stroke-width:1; stroke:black; "  />
</g>
<g id="q1_7_20"  >
<polygon points="659,40 664.0,40 669,35.0 664.0,30 659,30 659,40 " style="fill:rgb(127.5,127.5,127.5); stroke-width:1; stroke:black; "  />
</g>
<g id="q1_7_21"  >
<polygon points="669,40 683.0,40 688,35.0 683.0,30 669,30 669,40 " style="fill:rgb(42.5,212.5,127.5); stroke-width:1; stroke:black; "  />
</g>
<g id="q1_7_22"  >
<polygon points="688,40 697.0,40 702,35.0 697.0,30 688,30 688,40 " style="fill:rgb(127.5,42.5,42.5); stroke-width:1; stroke:black; "  />
</g>
<g id="q1_7_23"  >
<polygon points="702,40 705,35.0 702,30 702,40 " style="fill:rgb(127.5,42.5,127.5); stroke-width:1; stroke:black; "  />
</g>
<g id="q1_7_24"  >
<polygon points="705,35.0 710.0,30 712,30 712,40 710.0,40 705,35.0 " style="fill:rgb(42.5,127.5,127.5); stroke-width:1; stroke:black; "  />
</g>
<g id="q1_7_25"  >
<polygon points="713,40 719.0,40 724,35.0 719.0,30 713,30 713,40 " style="fill:rgb(212.5,127.5,42.5); stroke-width:1; stroke:black; "  />
</g>
<g id="q1_7_26"  >
<polygon points="722,35.0 727.0,30 733,30 733,40 727.0,40 722,35.0 " style="fill:rgb(42.5,212.5,212.5); stroke-width:1; stroke:black; "  />
</g>
<g id="q1_7_27"  >
<polygon points="734,40 736.0,40 741,35.0 736.0,30 734,30 734,40 " style="fill:rgb(212.5,127.5,212.5); stroke-width:1; stroke:black; "  />
</g>
<g  >
<line x1="10" y1="85" x2="778.0" y2="85" style="stroke-width:1; stroke:grey; "  />
</g>
<g id="h1_7_0"  >
<polygon points="10,90 33.0,90 38,85.0 33.0,80 10,80 10,90 " style="fill:#FFFFFF; stroke-width:1; stroke:black; "  />
</g>
<g id="h1_7_1"  >
<polygon points="38,90 50.0,90 55,85.0 50.0,80 38,80 38,90 " style="fill:#FFFFFF; stroke-width:1; stroke:black; "  />
</g>
<g id="h1_7_2"  >
<polygon points="55,90 59.0,90 64,85.0 59.0,80 55,80 55,90 " style="fill:rgb(212.5,127.5,42.5); stroke-width:1; stroke:black; "  />
</g>
<g id="h1_7_3"  >
<polygon points="64,85.0 69.0,80 94,80 94,90 69.0,90 64,85.0 " style="fill:#FFFFFF; stroke-width:1; stroke:black; "  />
</g>
<g id="h1_7_4"  >
<polygon points="94,85.0 99.0,80 108,80 108,90 99.0,90 94,85.0 " style="fill:rgb(127.5,42.5,42.5); stroke-width:1; stroke:black; "  />
</g>
<g id="h1_7_5"  >
<polygon points="108,85.0 113.0,80 117,80 117,90 113.0,90 108,85.0 " style="fill:#FFFFFF; stroke-width:1; stroke:black; "  />
</g>
<g id="h1_7_6"  >
<polygon points="120,90 148.0,90 153,85.0 148.0,80 120,80 120,90 " style="fill:#FFFFFF; stroke-width:1; stroke:black; "  />
</g>
<g id="h1_7_7"  >
<polygon points="153,90 166.0,90 171,85.0 166.0,80 153,80 153,90 " style="fill:#FFFFFF; stroke-width:1; stroke:black; "  />
</g>
<g id="h1_7_8"  >
<polygon points="171,90 176.0,90 181,85.0 176.0,80 171,80 171,90 " style="fill:#FFFFFF; stroke-width:1; stroke:black; "  />
</g>
<g id="h1_7_9"  >
<polygon points="182,90 203.0,90 208,85.0 203.0,80 182,80 182,90 " style="fill:#FFFFFF; stroke-width:1; stroke:black; "  />
</g>
<g id="h1_7_10"  >
<polygon points="208,90 215.0,90 220,85.0 215.0,80 208,80 208,90 " style="fill:#FFFFFF; stroke-width:1; stroke:black; "  />
</g>
<g id="h1_7_11"  >
<polygon points="220,90 226.0,90 231,85.0 226.0,80 220,80 220,90 " style="fill:#FFFFFF; stroke-width:1; stroke:black; "  />
</g>
<g id="h1_7_12"  >
<polygon points="232,90 236.0,90 241,85.0 236.0,80 232,80 232,90 " style="fill:rgb(212.5,127.5,42.5); stroke-width:1; stroke:black; "  />
</g>
<g id="h1_7_13"  >
<polygon points="241,90 251.0,90 256,85.0 251.0,80 241,80 241,90 " style="fill:#FFFFFF; stroke-width:1; stroke:black; "  />
</g>
<g id="h1_7_14"  >
<polygon points="256,90 263.0,90 268,85.0 263.0,80 256,80 256,90 " style="fill:#FFFFFF; stroke-width:1; stroke:black; "  />
</g>
<g id="h1_7_15"  >
<polygon points="268,90 278.0,90 283,85.0 278.0,80 268,80 268,90 " style="fill:#FFFFFF; stroke-width:1; stroke:black; "  />
</g>
<g id="h1_7_16"  >
<polygon points="283,90 286.0,90 291,85.0 286.0,80 283,80 283,90 " style="fill:#FFFFFF; stroke-width:1; stroke:black; "  />
</g>
<g id="h1_7_17"  >
<polygon points="291,90 327.0,90 332,85.0 327.0,80 291,80 291,90 " style="fill:#FFFFFF; stroke-width:1; stroke:black; "  />
</g>
<g id="h1_7_18"  >
<polygon points="332,85.0 337.0,80 342,80 342,90 337.0,90 332,85.0 " style="fill:#FFFFFF; stroke-width:1; stroke:black; "  />
</g>
<g id="h1_7_19"  >
<polygon points="342,85.0 347.0,80 351,80 351,90 347.0,90 342,85.0 " style="fill:#FFFFFF; stroke-width:1; stroke:black; "  />
</g>
<g id="h1_7_20"  >
<polygon points="351,85.0 353,80 353,90 351,85.0 " style="fill:#FFFFFF; stroke-width:1; stroke:black; "  />
</g>
<g id="h1_7_21"  >
<polygon points="355,90 377.0,90 382,85.0 377.0,80 355,80 355,90 " style="fill:#FFFFFF; stroke-width:1; stroke:black; "  />
</g>
<g id="h1_7_22"  >
<polygon points="382,90 389.0,90 394,85.0 389.0,80 382,80 382,90 " style="fill:#FFFFFF; stroke-width:1; stroke:black; "  />
</g>
<g id="h1_7_23"  >
<polygon points="395,85.0 400.0,80 416,80 416,90 400.0,90 395,85.0 " style="fill:#FFFFFF; stroke-width:1; stroke:black; "  />
</g>
<g id="h1_7_24"  >
<polygon points="416,85.0 421.0,80 432,80 432,90 421.0,90 416,85.0 " style="fill:#FFFFFF; stroke-width:1; stroke:black; "  />
</g>
<g id="h1_7_25"  >
<polygon points="434,85.0 439.0,80 446,80 446,90 439.0,90 434,85.0 " style="fill:#FFFFFF; stroke-width:1; stroke:black; "  />
</g>
<g id="h1_7_26"  >
<polygon points="449,85.0 454.0,80 461,80 461,90 454.0,90 449,85.0 " style="fill:#FFFFFF; stroke-width:1; stroke:black; "  />
</g>
<g id="h1_7_27"  >
<polygon points="461,85.0 466.0,80 469,80 469,90 466.0,90 461,85.0 " style="fill:#FFFFFF; stroke-width:1; stroke:black; "  />
</g>
<g id="h1_7_28"  >
<polygon points="470,90 498.0,90 503,85.0 498.0,80 470,80 470,90 " style="fill:rgb(127.5,127.5,42.5); stroke-width:1; stroke:black; "  />
</g>
<g id="h1_7_29"  >
<polygon points="503,85.0 508.0,80 514,80 514,90 508.0,90 503,85.0 " style="fill:#FFFFFF; stroke-width:1; stroke:black; "  />
</g>
<g id="h1_7_30"  >
<polygon points="515,90 522.0,90 527,85.0 522.0,80 515,80 515,90 " style="fill:#FFFFFF; stroke-width:1; stroke:black; "  />
</g>
<g id="h1_7_31"  >
<polygon points="529,85.0 534.0,80 537,80 537,90 534.0,90 529,85.0 " style="fill:#FFFFFF; stroke-width:1; stroke:black; "  />
</g>
<g id="h1_7_32"  >
<polygon points="540,90 546.0,90 551,85.0 546.0,80 540,80 540,90 " style="fill:#FFFFFF; stroke-width:1; stroke:black; "  />
</g>
<g id="h1_7_33"  >
<polygon points="552,85.0 557.0,80 559,80 559,90 557.0,90 552,85.0 " style="fill:#FFFFFF; stroke-width:1; stroke:black; "  />
</g>
<g id="h1_7_34"  >
<polygon points="560,90 563.0,90 568,85.0 563.0,80 560,80 560,90 " style="fill:#FFFFFF; stroke-width:1; stroke:black; "  />
</g>
<g id="h1_7_35"  >
<polygon points="569,85.0 573,80 573,90 569,85.0 " style="fill:#FFFFFF; stroke-width:1; stroke:black; "  />
</g>
<g id="h1_7_36"  >
<polygon points="575,85.0 580.0,80 598,80 598,90 580.0,90 575,85.0 " style="fill:rgb(42.5,212.5,127.5); stroke-width:1; stroke:black; "  />
</g>
<g id="h1_7_37"  >
<polygon points="601,85.0 605,80 605,90 601,85.0 " style="fill:#FFFFFF; stroke-width:1; stroke:black; "  />
</g>
<g id="h1_7_38"  >
<polygon points="605,90 607,85.0 605,80 605,90 " style="fill:#FFFFFF; stroke-width:1; stroke:black; "  />
</g>
<g id="h1_7_39"  >
<polygon points="608,85.0 613.0,80 614,80 614,90 613.0,90 608,85.0 " style="fill:#FFFFFF; stroke-width:1; stroke:black; "  />
</g>
<g id="h1_7_40"  >
<polygon points="620,90 625.0,90 630,85.0 625.0,80 620,80 620,90 " style="fill:#FFFFFF; stroke-width:1; stroke:black; "  />
</g>
<g id="h1_7_41"  >
<polygon points="631,90 645.0,90 650,85.0 645.0,80 631,80 631,90 " style="fill:#FFFFFF; stroke-width:1; stroke:black; "  />
</g>
<g id="h1_7_42"  >
<polygon points="650,90 650.0,90 655,85.0 650.0,80 650,80 650,90 " style="fill:#FFFFFF; stroke-width:1; stroke:black; "  />
</g>
<g id="h1_7_43"  >
<polygon points="655,90 663.0,90 668,85.0 663.0,80 655,80 655,90 " style="fill:#FFFFFF; stroke-width:1; stroke:black; "  />
</g>
<g id="h1_7_44"  >
<polygon points="668,90 674.0,90 679,85.0 674.0,80 668,80 668,90 " style="fill:#FFFFFF; stroke-width:1; stroke:black; "  />
</g>
<g id="h1_7_45"  >
<polygon points="680,85.0 685.0,80 686,80 686,90 685.0,90 680,85.0 " style="fill:#FFFFFF; stroke-width:1; stroke:black; "  />
</g>
<g id="h1_7_46"  >
<polygon points="687,85.0 691,80 691,90 687,85.0 " style="fill:#FFFFFF; stroke-width:1; stroke:black; "  />
</g>
<g id="h1_7_47"  >
<polygon points="692,90 696.0,90 701,85.0 696.0,80 692,80 692,90 " style="fill:#FFFFFF; stroke-width:1; stroke:black; "  />
</g>
<g id="h1_7_48"  >
<polygon points="705,90 710.0,90 715,85.0 710.0,80 705,80 705,90 " style="fill:#FFFFFF; stroke-width:1; stroke:black; "  />
</g>
<g id="h1_7_49"  >
<polygon points="716,85.0 721.0,80 721,80 721,90 721.0,90 716,85.0 " style="fill:#FFFFFF; stroke-width:1; stroke:black; "  />
</g>
<g id="h1_7_50"  >
<polygon points="725,90 729,85.0 725,80 725,90 " style="fill:#FFFFFF; stroke-width:1; stroke:black; "  />
</g>
<g id="h1_7_51"  >
<polygon points="730,90 730.0,90 735,85.0 730.0,80 730,80 730,90 " style="fill:#FFFFFF; stroke-width:1; stroke:black; "  />
</g>
<g id="h1_7_52"  >
<polygon points="735,90 740.0,90 745,85.0 740.0,80 735,80 735,90 " style="fill:rgb(42.5,212.5,127.5); stroke-width:1; stroke:black; "  />
</g>
<g id="h1_7_53"  >
<polygon points="745,90 752.0,90 757,85.0 752.0,80 745,80 745,90 " style="fill:#FFFFFF; stroke-width:1; stroke:black; "  />
</g>
<g id="h1_7_54"  >
<polygon points="757,85.0 762.0,80 767,80 767,90 762.0,90 757,85.0 " style="fill:#FFFFFF; stroke-width:1; stroke:black; "  />
</g>
<g id="h1_7_55"  >
<polygon points="768,90 773.0,90 778,85.0 773.0,80 768,80 768,90 " style="fill:#FFFFFF; stroke-width:1; stroke:black; "  />
</g>
</svg>
