<svg xmlns="http://www.w3.org/2000/svg" xmlns:xlink="http://www.w3.org/1999/xlink" version="1.1" x="0" y="0" height="2770" width="768.0" viewBox="0 0 819.2 2680" preserveAspectRatio="none"  >
<g  >
<line x1="10" y1="35" x2="778.0" y2="35" style="stroke-width:1; stroke:grey; "  />
</g>
<g id="q1_6_0"  >
<polygon points="79,40 85.0,40 90,35.0 85.0,30 79,30 79,40 " style="fill:rgb(212.5,42.5,42.5); stroke-width:1; stroke:black; "  />
</g>
<g id="q1_6_1"  >
<polygon points="91,40 93.0,40 98,35.0 93.0,30 91,30 91,40 " style="fill:#FFFFFF; stroke-width:1; stroke:black; "  />
</g>
<g id="q1_6_2"  >
<polygon points="98,40 101.0,40 106,35.0 101.0,30 98,30 98,40 " style="fill:rgb(127.5,127.5,42.5); stroke-width:1; stroke:black; "  />
</g>
<g id="q1_6_3"  >
<polygon points="107,35.0 112.0,30 119,30 119,40 112.0,40 107,35.0 " style="fill:rgb(127.5,42.5,42.5); stroke-width:1; stroke:black; "  />
</g>
<g id="q1_6_4"  >
<polygon points="120,35.0 125.0,30 148,30 148,40 125.0,40 120,35.0 " style="fill:rgb(42.5,212.5,42.5); stroke-width:1; stroke:black; "  />
</g>
<g id="q1_6_5"  >
<polygon points="152,40 155.0,40 160,35.0 155.0,30 152,30 152,40 " style="fill:rgb(127.5,127.5,42.5); stroke-width:1; stroke:black; "  />
</g>
<g id="q1_6_6"  >
<polygon points="165,35.0 170.0,30 185,30 185,40 170.0,40 165,35.0 " style="fill:rgb(42.5,127.5,212.5); stroke-width:1; stroke:black; "  />
</g>
<g id="q1_6_7"  >
<polygon points="186,40 191.0,40 196,35.0 191.0,30 186,30 186,40 " style="fill:rgb(42.5,42.5,42.5); stroke-width:1; stroke:black; "  />
</g>
<g id="q1_6_8"  >
<polygon points="196,40 211.0,40 216,35.0 211.0,30 196,30 196,40 " style="fill:rgb(212.5,212.5,42.5); stroke-width:1; stroke:black; "  />
</g>
<g id="q1_6_9"  >
<polygon points="216,40 219,35.0 216,30 216,40 " style="fill:rgb(42.5,42.5,127.5); stroke-width:1; stroke:black; "  />
</g>
<g id="q1_6_10"  >
<polygon points="219,40 222.0,40 227,35.0 222.0,30 219,30 219,40 " style="fill:rgb(212.5,42.5,127.5); stroke-width:1; stroke:black; "  />
</g>
<g id="q1_6_11"  >
<polygon points="227,40 233.0,40 238,35.0 233.0,30 227,30 227,40 " style="fill:rgb(127.5,127.5,212.5); stroke-width:1; stroke:black; "  />
</g>
<g id="q1_6_12"  >
<polygon points="238,40 417.0,40 422,35.0 417.0,30 238,30 238,40 " style="fill:rgb(42.5,212.5,212.5); stroke-width:1; stroke:black; "  />
</g>
<g id="q1_6_13"  >
<polygon points="422,40 533.0,40 538,35.0 533.0,30 422,30 422,40 " style="fill:rgb(42.5,212.5,212.5); stroke-width:1; stroke:black; "  />
</g>
<g id="q1_6_14"  >
<polygon points="538,40 565.0,40 570,35.0 565.0,30 538,30 538,40 " style="fill:rgb(42.5,212.5,212.5); stroke-width:1; stroke:black; "  />
</g>
<g id="q1_6_15"  >
<polygon points="570,35.0 575.0,30 578,30 578,40 575.0,40 570,35.0 " style="fill:rgb(212.5,42.5,212.5); stroke-width:1; stroke:black; "  />
</g>
<g id="q1_6_16"  >
<polygon points="579,40 589.0,40 594,35.0 589.0,30 579,30 579,40 " style="fill:rgb(42.5,42.5,212.5); stroke-width:1; stroke:black; "  />
</g>
<g id="q1_6_17"  >
<polygon points="594,40 600.0,40 605,35.0 600.0,30 594,30 594,40 " style="fill:rgb(212.5,212.5,212.5); stroke-width:1; stroke:black; "  />
</g>
<g id="q1_6_18"  >
<polygon points="606,40 618.0,40 623,35.0 618.0,30 606,30 606,40 " style="fill:rgb(212.5,212.5,127.5); stroke-width:1; stroke:black; "  />
</g>
<g id="q1_6_19"  >
<polygon points="623,40 628.0,40 633,35.0 628.0,30 623,30 623,40 " style="fill:rgb(42.5,127.5,42.5); stroke-width:1; stroke:black; "  />
</g>
<g id="q1_6_20"  >
<polygon points="633,40 637.0,40 642,35.0 637.0,30 633,30 633,40 " style="fill:rgb(127.5,127.5,127.5); stroke-width:1; stroke:black; "  />
</g>
<g id="q1_6_21"  >
<polygon points="642,40 654.0,40 659,35.0 654.0,30 642,30 642,40 " style="fill:rgb(42.5,212.5,127.5); stroke-width:1; stroke:black; "  />
</g>
<g id="q1_6_22"  >
<polygon points="659,40 667.0,40 672,35.0 667.0,30 659,30 659,40 " style="fill:rgb(127.5,42.5,42.5); stroke-width:1; stroke:black; "  />
</g>
<g id="q1_6_23"  >
<polygon points="671,40 674,35.0 671,30 671,40 " style="fill:rgb(127.5,42.5,127.5); stroke-width:1; stroke:black; "  />
</g>
<g id="q1_6_24"  >
<polygon points="674,35.0 679.0,30 680,30 680,40 679.0,40 674,35.0 " style="fill:rgb(42.5,127.5,127.5); stroke-width:1; stroke:black; "  />
</g>
<g id="q1_6_25"  >
<polygon points="681,40 686.0,40 691,35.0 686.0,30 681,30 681,40 " style="fill:rgb(212.5,127.5,42.5); stroke-width:1; stroke:black; "  />
</g>
<g id="q1_6_26"  >
<polygon points="690,35.0 695.0,30 699,30 699,40 695.0,40 690,35.0 " style="fill:rgb(42.5,212.5,212.5); stroke-width:1; stroke:black; "  />
</g>
<g id="q1_6_27"  >
<polygon points="700,40 702.0,40 707,35.0 702.0,30 700,30 700,40 " style="fill:rgb(212.5,127.5,212.5); stroke-width:1; stroke:black; "  />
</g>
<g  >
<line x1="10" y1="85" x2="778.0" y2="85" style="stroke-width:1; stroke:grey; "  />
</g>
<g id="h1_6_0"  >
<polygon points="10,85.0 15.0,80 16,80 16,90 15.0,90 10,85.0 " style="fill:#FFFFFF; stroke-width:1; stroke:black; "  />
</g>
<g id="h1_6_1"  >
<polygon points="17,85.0 22.0,80 26,80 26,90 22.0,90 17,85.0 " style="fill:#FFFFFF; stroke-width:1; stroke:black; "  />
</g>
<g id="h1_6_2"  >
<polygon points="26,85.0 31.0,80 38,80 38,90 31.0,90 26,85.0 " style="fill:#FFFFFF; stroke-width:1; stroke:black; "  />
</g>
<g id="h1_6_3"  >
<polygon points="40,90 48.0,90 53,85.0 48.0,80 40,80 40,90 " style="fill:#FFFFFF; stroke-width:1; stroke:black; "  />
</g>
<g id="h1_6_4"  >
<polygon points="53,85.0 58.0,80 70,80 70,90 58.0,90 53,85.0 " style="fill:#FFFFFF; stroke-width:1; stroke:black; "  />
</g>
<g id="h1_6_5"  >
<polygon points="70,85.0 75.0,80 83,80 83,90 75.0,90 70,85.0 " style="fill:#FFFFFF; stroke-width:1; stroke:black; "  />
</g>
<g id="h1_6_6"  >
<polygon points="83,85.0 88.0,80 98,80 98,90 88.0,90 83,85.0 " style="fill:#FFFFFF; stroke-width:1; stroke:black; "  />
</g>
<g id="h1_6_7"  >
<polygon points="99,85.0 104.0,80 108,80 108,90 104.0,90 99,85.0 " style="fill:#FFFFFF; stroke-width:1; stroke:black; "  />
</g>
<g id="h1_6_8"  >
<polygon points="109,85.0 114.0,80 119,80 119,90 114.0,90 109,85.0 " style="fill:#FFFFFF; stroke-width:1; stroke:black; "  />
</g>
<g id="h1_6_9"  >
<polygon points="119,85.0 124.0,80 127,80 127,90 124.0,90 119,85.0 " style="fill:#FFFFFF; stroke-width:1; stroke:black; "  />
</g>
<g id="h1_6_10"  >
<polygon points="129,85.0 134.0,80 137,80 137,90 134.0,90 129,85.0 " style="fill:#FFFFFF; stroke-width:1; stroke:black; "  />
</g>
<g id="h1_6_11"  >
<polygon points="138,85.0 143.0,80 149,80 149,90 143.0,90 138,85.0 " style="fill:#FFFFFF; stroke-width:1; stroke:black; "  />
</g>
<g id="h1_6_12"  >
<polygon points="150,85.0 155.0,80 158,80 158,90 155.0,90 150,85.0 " style="fill:#FFFFFF; stroke-width:1; stroke:black; "  />
</g>
<g id="h1_6_13"  >
<polygon points="158,85.0 163.0,80 169,80 169,90 163.0,90 158,85.0 " style="fill:rgb(42.5,212.5,127.5); stroke-width:1; stroke:black; "  />
</g>
<g id="h1_6_14"  >
<polygon points="169,85.0 174.0,80 177,80 177,90 174.0,90 169,85.0 " style="fill:#FFFFFF; stroke-width:1; stroke:black; "  />
</g>
<g id="h1_6_15"  >
<polygon points="178,85.0 183.0,80 191,80 191,90 183.0,90 178,85.0 " style="fill:#FFFFFF; stroke-width:1; stroke:black; "  />
</g>
<g id="h1_6_16"  >
<polygon points="191,85.0 196.0,80 214,80 214,90 196.0,90 191,85.0 " style="fill:#FFFFFF; stroke-width:1; stroke:black; "  />
</g>
<g id="h1_6_17"  >
<polygon points="214,85.0 219.0,80 225,80 225,90 219.0,90 214,85.0 " style="fill:#FFFFFF; stroke-width:1; stroke:black; "  />
</g>
<g id="h1_6_18"  >
<polygon points="227,90 232.0,90 237,85.0 232.0,80 227,80 227,90 " style="fill:#FFFFFF; stroke-width:1; stroke:black; "  />
</g>
<g id="h1_6_19"  >
<polygon points="237,90 240,85.0 237,80 237,90 " style="fill:#FFFFFF; stroke-width:1; stroke:black; "  />
</g>
<g id="h1_6_20"  >
<polygon points="240,90 251.0,90 256,85.0 251.0,80 240,80 240,90 " style="fill:#FFFFFF; stroke-width:1; stroke:black; "  />
</g>
<g id="h1_6_21"  >
<polygon points="256,90 260.0,90 265,85.0 260.0,80 256,80 256,90 " style="fill:#FFFFFF; stroke-width:1; stroke:black; "  />
</g>
<g id="h1_6_22"  >
<polygon points="266,85.0 271.0,80 276,80 276,90 271.0,90 266,85.0 " style="fill:#FFFFFF; stroke-width:1; stroke:black; "  />
</g>
<g id="h1_6_23"  >
<polygon points="276,85.0 281.0,80 290,80 290,90 281.0,90 276,85.0 " style="fill:#FFFFFF; stroke-width:1; stroke:black; "  />
</g>
<g id="h1_6_24"  >
<polygon points="290,85.0 295.0,80 304,80 304,90 295.0,90 290,85.0 " style="fill:#FFFFFF; stroke-width:1; stroke:black; "  />
</g>
<g id="h1_6_25"  >
<polygon points="306,90 312.0,90 317,85.0 312.0,80 306,80 306,90 " style="fill:#FFFFFF; stroke-width:1; stroke:black; "  />
</g>
<g id="h1_6_26"  >
<polygon points="317,90 367.0,90 372,85.0 367.0,80 317,80 317,90 " style="fill:rgb(42.5,212.5,212.5); stroke-width:1; stroke:black; "  />
</g>
<g id="h1_6_27"  >
<polygon points="372,90 384.0,90 389,85.0 384.0,80 372,80 372,90 " style="fill:#FFFFFF; stroke-width:1; stroke:black; "  />
</g>
<g id="h1_6_28"  >
<polygon points="392,85.0 397.0,80 397,80 397,90 397.0,90 392,85.0 " style="fill:#FFFFFF; stroke-width:1; stroke:black; "  />
</g>
<g id="h1_6_29"  >
<polygon points="397,85.0 402.0,80 402,80 402,90 402.0,90 397,85.0 " style="fill:#FFFFFF; stroke-width:1; stroke:black; "  />
</g>
<g id="h1_6_30"  >
<polygon points="402,85.0 407.0,80 407,80 407,90 407.0,90 402,85.0 " style="fill:#FFFFFF; stroke-width:1; stroke:black; "  />
</g>
<g id="h1_6_31"  >
<polygon points="408,85.0 413.0,80 413,80 413,90 413.0,90 408,85.0 " style="fill:#FFFFFF; stroke-width:1; stroke:black; "  />
</g>
<g id="h1_6_32"  >
<polygon points="418,90 421.0,90 426,85.0 421.0,80 418,80 418,90 " style="fill:#FFFFFF; stroke-width:1; stroke:black; "  />
</g>
<g id="h1_6_33"  >
<polygon points="427,85.0 432.0,80 441,80 441,90 432.0,90 427,85.0 " style="fill:#FFFFFF; stroke-width:1; stroke:black; "  />
</g>
<g id="h1_6_34"  >
<polygon points="441,85.0 446.0,80 451,80 451,90 446.0,90 441,85.0 " style="fill:#FFFFFF; stroke-width:1; stroke:black; "  />
</g>
<g id="h1_6_35"  >
<polygon points="451,85.0 453,80 453,90 451,85.0 " style="fill:#FFFFFF; stroke-width:1; stroke:black; "  />
</g>
<g id="h1_6_36"  >
<polygon points="456,90 462.0,90 467,85.0 462.0,80 456,80 456,90 " style="fill:#FFFFFF; stroke-width:1; stroke:black; "  />
</g>
<g id="h1_6_37"  >
<polygon points="468,90 471,85.0 468,80 468,90 " style="fill:#FFFFFF; stroke-width:1; stroke:black; "  />
</g>
<g id="h1_6_38"  >
<polygon points="472,90 534.0,90 539,85.0 534.0,80 472,80 472,90 " style="fill:#FFFFFF; stroke-width:1; stroke:black; "  />
</g>
<g id="h1_6_39"  >
<polygon points="540,90 544.0,90 549,85.0 544.0,80 540,80 540,90 " style="fill:rgb(212.5,127.5,42.5); stroke-width:1; stroke:black; "  />
</g>
<g id="h1_6_40"  >
<polygon points="549,90 555.0,90 560,85.0 555.0,80 549,80 549,90 " style="fill:#FFFFFF; stroke-width:1; stroke:black; "  />
</g>
<g id="h1_6_41"  >
<polygon points="560,90 574.0,90 579,85.0 574.0,80 560,80 560,90 " style="fill:#FFFFFF; stroke-width:1; stroke:black; "  />
</g>
<g id="h1_6_42"  >
<polygon points="581,90 627.0,90 632,85.0 627.0,80 581,80 581,90 " style="fill:#FFFFFF; stroke-width:1; stroke:black; "  />
</g>
<g id="h1_6_43"  >
<polygon points="634,90 773.0,90 778,85.0 773.0,80 634,80 634,90 " style="fill:#FFFFFF; stroke-width:1; stroke:black; "  />
</g>
</svg>
