<svg xmlns="http://www.w3.org/2000/svg" xmlns:xlink="http://www.w3.org/1999/xlink" version="1.1" x="0" y="0" height="2770" width="768.0" viewBox="0 0 819.2 2680" preserveAspectRatio="none"  >
<g  >
<line x1="10" y1="35" x2="778.0" y2="35" style="stroke-width:1; stroke:grey; "  />
</g>
<g id="q2_78_0"  >
<polygon points="10,40 19.0,40 24,35.0 19.0,30 10,30 10,40 " style="fill:#FFFFFF; stroke-width:1; stroke:black; "  />
</g>
<g id="q2_78_1"  >
<polygon points="25,40 28.0,40 33,35.0 28.0,30 25,30 25,40 " style="fill:#FFFFFF; stroke-width:1; stroke:black; "  />
</g>
<g id="q2_78_2"  >
<polygon points="34,40 39.0,40 44,35.0 39.0,30 34,30 34,40 " style="fill:rgb(191.25,63.75,63.75); stroke-width:1; stroke:black; "  />
</g>
<g id="q2_78_3"  >
<polygon points="44,35.0 49.0,30 59,30 59,40 49.0,40 44,35.0 " style="fill:#FFFFFF; stroke-width:1; stroke:black; "  />
</g>
<g id="q2_78_4"  >
<polygon points="60,35.0 65.0,30 95,30 95,40 65.0,40 60,35.0 " style="fill:rgb(63.75,63.75,191.25); stroke-width:1; stroke:black; "  />
</g>
<g id="q2_78_5"  >
<polygon points="99,40 104.0,40 109,35.0 104.0,30 99,30 99,40 " style="fill:#FFFFFF; stroke-width:1; stroke:black; "  />
</g>
<g id="q2_78_6"  >
<polygon points="115,35.0 120.0,30 139,30 139,40 120.0,40 115,35.0 " style="fill:#FFFFFF; stroke-width:1; stroke:black; "  />
</g>
<g id="q2_78_7"  >
<polygon points="140,40 149.0,40 154,35.0 149.0,30 140,30 140,40 " style="fill:#FFFFFF; stroke-width:1; stroke:black; "  />
</g>
<g id="q2_78_8"  >
<polygon points="154,40 173.0,40 178,35.0 173.0,30 154,30 154,40 " style="fill:#FFFFFF; stroke-width:1; stroke:black; "  />
</g>
<g id="q2_78_9"  >
<polygon points="178,40 181,35.0 178,30 178,40 " style="fill:#FFFFFF; stroke-width:1; stroke:black; "  />
</g>
<g id="q2_78_10"  >
<polygon points="181,40 186.0,40 191,35.0 186.0,30 181,30 181,40 " style="fill:#FFFFFF; stroke-width:1; stroke:black; "  />
</g>
<g id="q2_78_11"  >
<polygon points="191,40 199.0,40 204,35.0 199.0,30 191,30 191,40 " style="fill:#FFFFFF; stroke-width:1; stroke:black; "  />
</g>
<g id="q2_78_12"  >
<polygon points="204,40 424.0,40 429,35.0 424.0,30 204,30 204,40 " style="fill:rgb(63.75,191.25,63.75); stroke-width:1; stroke:black; "  />
</g>
<g id="q2_78_13"  >
<polygon points="430,40 567.0,40 572,35.0 567.0,30 430,30 430,40 " style="fill:#FFFFFF; stroke-width:1; stroke:black; "  />
</g>
<g id="q2_78_14"  >
<polygon points="572,40 605.0,40 610,35.0 605.0,30 572,30 572,40 " style="fill:#FFFFFF; stroke-width:1; stroke:black; "  />
</g>
<g id="q2_78_15"  >
<polygon points="611,35.0 616.0,30 620,30 620,40 616.0,40 611,35.0 " style="fill:rgb(191.25,63.75,191.25); stroke-width:1; stroke:black; "  />
</g>
<g id="q2_78_16"  >
<polygon points="621,40 634.0,40 639,35.0 634.0,30 621,30 621,40 " style="fill:#FFFFFF; stroke-width:1; stroke:black; "  />
</g>
<g id="q2_78_17"  >
<polygon points="640,40 648.0,40 653,35.0 648.0,30 640,30 640,40 " style="fill:#FFFFFF; stroke-width:1; stroke:black; "  />
</g>
<g id="q2_78_18"  >
<polygon points="655,40 671.0,40 676,35.0 671.0,30 655,30 655,40 " style="fill:#FFFFFF; stroke-width:1; stroke:black; "  />
</g>
<g id="q2_78_19"  >
<polygon points="675,40 683.0,40 688,35.0 683.0,30 675,30 675,40 " style="fill:#FFFFFF; stroke-width:1; stroke:black; "  />
</g>
<g id="q2_78_20"  >
<polygon points="688,40 694.0,40 699,35.0 694.0,30 688,30 688,40 " style="fill:#FFFFFF; stroke-width:1; stroke:black; "  />
</g>
<g id="q2_78_21"  >
<polygon points="698,40 714.0,40 719,35.0 714.0,30 698,30 698,40 " style="fill:rgb(191.25,191.25,63.75); stroke-width:1; stroke:black; "  />
</g>
<g id="q2_78_22"  >
<polygon points="719,40 730.0,40 735,35.0 730.0,30 719,30 719,40 " style="fill:rgb(191.25,191.25,191.25); stroke-width:1; stroke:black; "  />
</g>
<g id="q2_78_23"  >
<polygon points="734,40 737,35.0 734,30 734,40 " style="fill:#FFFFFF; stroke-width:1; stroke:black; "  />
</g>
<g id="q2_78_24"  >
<polygon points="737,35.0 742.0,30 745,30 745,40 742.0,40 737,35.0 " style="fill:rgb(63.75,191.25,191.25); stroke-width:1; stroke:black; "  />
</g>
<g id="q2_78_25"  >
<polygon points="747,40 753.0,40 758,35.0 753.0,30 747,30 747,40 " style="fill:#FFFFFF; stroke-width:1; stroke:black; "  />
</g>
<g id="q2_78_26"  >
<polygon points="757,35.0 762.0,30 769,30 769,40 762.0,40 757,35.0 " style="fill:#FFFFFF; stroke-width:1; stroke:black; "  />
</g>
<g id="q2_78_27"  >
<polygon points="770,40 773.0,40 778,35.0 773.0,30 770,30 770,40 " style="fill:rgb(63.75,63.75,63.75); stroke-width:1; stroke:black; "  />
</g>
<g  >
<line x1="10" y1="85" x2="778.0" y2="85" style="stroke-width:1; stroke:grey; "  />
</g>
<g id="h2_78_0"  >
<polygon points="106,90 172.0,90 177,85.0 172.0,80 106,80 106,90 " style="fill:#FFFFFF; stroke-width:1; stroke:black; "  />
</g>
<g id="h2_78_1"  >
<polygon points="179,85.0 184.0,80 201,80 201,90 184.0,90 179,85.0 " style="fill:#FFFFFF; stroke-width:1; stroke:black; "  />
</g>
<g id="h2_78_2"  >
<polygon points="206,85.0 211.0,80 228,80 228,90 211.0,90 206,85.0 " style="fill:#FFFFFF; stroke-width:1; stroke:black; "  />
</g>
<g id="h2_78_3"  >
<polygon points="232,85.0 237.0,80 252,80 252,90 237.0,90 232,85.0 " style="fill:#FFFFFF; stroke-width:1; stroke:black; "  />
</g>
<g id="h2_78_4"  >
<polygon points="254,90 274.0,90 279,85.0 274.0,80 254,80 254,90 " style="fill:#FFFFFF; stroke-width:1; stroke:black; "  />
</g>
<g id="h2_78_5"  >
<polygon points="280,85.0 285.0,80 294,80 294,90 285.0,90 280,85.0 " style="fill:#FFFFFF; stroke-width:1; stroke:black; "  />
</g>
<g id="h2_78_6"  >
<polygon points="300,90 307.0,90 312,85.0 307.0,80 300,80 300,90 " style="fill:#FFFFFF; stroke-width:1; stroke:black; "  />
</g>
<g id="h2_78_7"  >
<polygon points="312,85.0 317.0,80 323,80 323,90 317.0,90 312,85.0 " style="fill:#FFFFFF; stroke-width:1; stroke:black; "  />
</g>
<g id="h2_78_8"  >
<polygon points="323,85.0 328.0,80 328,80 328,90 328.0,90 323,85.0 " style="fill:#FFFFFF; stroke-width:1; stroke:black; "  />
</g>
<g id="h2_78_9"  >
<polygon points="330,85.0 335.0,80 347,80 347,90 335.0,90 330,85.0 " style="fill:#FFFFFF; stroke-width:1; stroke:black; "  />
</g>
<g id="h2_78_10"  >
<polygon points="348,90 350,85.0 348,80 348,90 " style="fill:#FFFFFF; stroke-width:1; stroke:black; "  />
</g>
<g id="h2_78_11"  >
<polygon points="351,85.0 356.0,80 358,80 358,90 356.0,90 351,85.0 " style="fill:#FFFFFF; stroke-width:1; stroke:black; "  />
</g>
<g id="h2_78_12"  >
<polygon points="359,85.0 363,80 363,90 359,85.0 " style="fill:#FFFFFF; stroke-width:1; stroke:black; "  />
</g>
<g id="h2_78_13"  >
<polygon points="366,90 376.0,90 381,85.0 376.0,80 366,80 366,90 " style="fill:#FFFFFF; stroke-width:1; stroke:black; "  />
</g>
<g id="h2_78_14"  >
<polygon points="380,90 389.0,90 394,85.0 389.0,80 380,80 380,90 " style="fill:#FFFFFF; stroke-width:1; stroke:black; "  />
</g>
<g id="h2_78_15"  >
<polygon points="394,90 401.0,90 406,85.0 401.0,80 394,80 394,90 " style="fill:#FFFFFF; stroke-width:1; stroke:black; "  />
</g>
<g id="h2_78_16"  >
<polygon points="407,85.0 409,80 409,90 407,85.0 " style="fill:#FFFFFF; stroke-width:1; stroke:black; "  />
</g>
<g id="h2_78_17"  >
<polygon points="414,90 419.0,90 424,85.0 419.0,80 414,80 414,90 " style="fill:rgb(63.75,191.25,63.75); stroke-width:1; stroke:black; "  />
</g>
<g id="h2_78_18"  >
<polygon points="424,90 429.0,90 434,85.0 429.0,80 424,80 424,90 " style="fill:#FFFFFF; stroke-width:1; stroke:black; "  />
</g>
<g id="h2_78_19"  >
<polygon points="436,90 444.0,90 449,85.0 444.0,80 436,80 436,90 " style="fill:#FFFFFF; stroke-width:1; stroke:black; "  />
</g>
<g id="h2_78_20"  >
<polygon points="450,90 455.0,90 460,85.0 455.0,80 450,80 450,90 " style="fill:#FFFFFF; stroke-width:1; stroke:black; "  />
</g>
<g id="h2_78_21"  >
<polygon points="460,85.0 463,80 463,90 460,85.0 " style="fill:#FFFFFF; stroke-width:1; stroke:black; "  />
</g>
<g id="h2_78_22"  >
<polygon points="463,85.0 468.0,80 474,80 474,90 468.0,90 463,85.0 " style="fill:#FFFFFF; stroke-width:1; stroke:black; "  />
</g>
<g id="h2_78_23"  >
<polygon points="478,90 483.0,90 488,85.0 483.0,80 478,80 478,90 " style="fill:#FFFFFF; stroke-width:1; stroke:black; "  />
</g>
<g id="h2_78_24"  >
<polygon points="489,85.0 494.0,80 499,80 499,90 494.0,90 489,85.0 " style="fill:#FFFFFF; stroke-width:1; stroke:black; "  />
</g>
<g id="h2_78_25"  >
<polygon points="502,90 507.0,90 512,85.0 507.0,80 502,80 502,90 " style="fill:#FFFFFF; stroke-width:1; stroke:black; "  />
</g>
<g id="h2_78_26"  >
<polygon points="515,90 526.0,90 531,85.0 526.0,80 515,80 515,90 " style="fill:#FFFFFF; stroke-width:1; stroke:black; "  />
</g>
<g id="h2_78_27"  >
<polygon points="532,85.0 537.0,80 549,80 549,90 537.0,90 532,85.0 " style="fill:#FFFFFF; stroke-width:1; stroke:black; "  />
</g>
<g id="h2_78_28"  >
<polygon points="550,90 551.0,90 556,85.0 551.0,80 550,80 550,90 " style="fill:#FFFFFF; stroke-width:1; stroke:black; "  />
</g>
<g id="h2_78_29"  >
<polygon points="556,90 566.0,90 571,85.0 566.0,80 556,80 556,90 " style="fill:#FFFFFF; stroke-width:1; stroke:black; "  />
</g>
<g id="h2_78_30"  >
<polygon points="574,90 580.0,90 585,85.0 580.0,80 574,80 574,90 " style="fill:#FFFFFF; stroke-width:1; stroke:black; "  />
</g>
<g id="h2_78_31"  >
<polygon points="588,90 611.0,90 616,85.0 611.0,80 588,80 588,90 " style="fill:#FFFFFF; stroke-width:1; stroke:black; "  />
</g>
<g id="h2_78_32"  >
<polygon points="617,85.0 622.0,80 641,80 641,90 622.0,90 617,85.0 " style="fill:#FFFFFF; stroke-width:1; stroke:black; "  />
</g>
<g id="h2_78_33"  >
<polygon points="642,85.0 647.0,80 652,80 652,90 647.0,90 642,85.0 " style="fill:#FFFFFF; stroke-width:1; stroke:black; "  />
</g>
<g id="h2_78_34"  >
<polygon points="655,90 663.0,90 668,85.0 663.0,80 655,80 655,90 " style="fill:#FFFFFF; stroke-width:1; stroke:black; "  />
</g>
<g id="h2_78_35"  >
<polygon points="669,90 676.0,90 681,85.0 676.0,80 669,80 669,90 " style="fill:#FFFFFF; stroke-width:1; stroke:black; "  />
</g>
</svg>
