<svg xmlns="http://www.w3.org/2000/svg" xmlns:xlink="http://www.w3.org/1999/xlink" version="1.1" x="0" y="0" height="2770" width="768.0" viewBox="0 0 819.2 2680" preserveAspectRatio="none"  >
<g  >
<line x1="10" y1="35" x2="778.0" y2="35" style="stroke-width:1; stroke:grey; "  />
</g>
<g id="q1_1_0"  >
<polygon points="70,40 76.0,40 81,35.0 76.0,30 70,30 70,40 " style="fill:rgb(212.5,42.5,42.5); stroke-width:1; stroke:black; "  />
</g>
<g id="q1_1_1"  >
<polygon points="83,40 84.0,40 89,35.0 84.0,30 83,30 83,40 " style="fill:#FFFFFF; stroke-width:1; stroke:black; "  />
</g>
<g id="q1_1_2"  >
<polygon points="90,40 93.0,40 98,35.0 93.0,30 90,30 90,40 " style="fill:rgb(127.5,127.5,42.5); stroke-width:1; stroke:black; "  />
</g>
<g id="q1_1_3"  >
<polygon points="98,35.0 103.0,30 111,30 111,40 103.0,40 98,35.0 " style="fill:rgb(127.5,42.5,42.5); stroke-width:1; stroke:black; "  />
</g>
<g id="q1_1_4"  >
<polygon points="112,35.0 117.0,30 141,30 141,40 117.0,40 112,35.0 " style="fill:rgb(42.5,212.5,42.5); stroke-width:1; stroke:black; "  />
</g>
<g id="q1_1_5"  >
<polygon points="145,40 148.0,40 153,35.0 148.0,30 145,30 145,40 " style="fill:rgb(127.5,127.5,42.5); stroke-width:1; stroke:black; "  />
</g>
<g id="q1_1_6"  >
<polygon points="159,35.0 164.0,30 179,30 179,40 164.0,40 159,35.0 " style="fill:rgb(42.5,127.5,212.5); stroke-width:1; stroke:black; "  />
</g>
<g id="q1_1_7"  >
<polygon points="180,40 186.0,40 191,35.0 186.0,30 180,30 180,40 " style="fill:rgb(42.5,42.5,42.5); stroke-width:1; stroke:black; "  />
</g>
<g id="q1_1_8"  >
<polygon points="191,40 206.0,40 211,35.0 206.0,30 191,30 191,40 " style="fill:rgb(212.5,212.5,42.5); stroke-width:1; stroke:black; "  />
</g>
<g id="q1_1_9"  >
<polygon points="211,40 214,35.0 211,30 211,40 " style="fill:rgb(42.5,42.5,127.5); stroke-width:1; stroke:black; "  />
</g>
<g id="q1_1_10"  >
<polygon points="214,40 217.0,40 222,35.0 217.0,30 214,30 214,40 " style="fill:rgb(212.5,42.5,127.5); stroke-width:1; stroke:black; "  />
</g>
<g id="q1_1_11"  >
<polygon points="222,40 229.0,40 234,35.0 229.0,30 222,30 222,40 " style="fill:rgb(127.5,127.5,212.5); stroke-width:1; stroke:black; "  />
</g>
<g id="q1_1_12"  >
<polygon points="233,40 417.0,40 422,35.0 417.0,30 233,30 233,40 " style="fill:rgb(42.5,212.5,212.5); stroke-width:1; stroke:black; "  />
</g>
<g id="q1_1_13"  >
<polygon points="423,40 537.0,40 542,35.0 537.0,30 423,30 423,40 " style="fill:rgb(42.5,212.5,212.5); stroke-width:1; stroke:black; "  />
</g>
<g id="q1_1_14"  >
<polygon points="542,40 570.0,40 575,35.0 570.0,30 542,30 542,40 " style="fill:rgb(42.5,212.5,212.5); stroke-width:1; stroke:black; "  />
</g>
<g id="q1_1_15"  >
<polygon points="576,35.0 581.0,30 583,30 583,40 581.0,40 576,35.0 " style="fill:rgb(212.5,42.5,212.5); stroke-width:1; stroke:black; "  />
</g>
<g id="q1_1_16"  >
<polygon points="584,40 595.0,40 600,35.0 595.0,30 584,30 584,40 " style="fill:rgb(42.5,42.5,212.5); stroke-width:1; stroke:black; "  />
</g>
<g id="q1_1_17"  >
<polygon points="600,40 606.0,40 611,35.0 606.0,30 600,30 600,40 " style="fill:rgb(212.5,212.5,212.5); stroke-width:1; stroke:black; "  />
</g>
<g id="q1_1_18"  >
<polygon points="612,40 625.0,40 630,35.0 625.0,30 612,30 612,40 " style="fill:rgb(212.5,212.5,127.5); stroke-width:1; stroke:black; "  />
</g>
<g id="q1_1_19"  >
<polygon points="630,40 635.0,40 640,35.0 635.0,30 630,30 630,40 " style="fill:rgb(42.5,127.5,42.5); stroke-width:1; stroke:black; "  />
</g>
<g id="q1_1_20"  >
<polygon points="640,40 644.0,40 649,35.0 644.0,30 640,30 640,40 " style="fill:rgb(127.5,127.5,127.5); stroke-width:1; stroke:black; "  />
</g>
<g id="q1_1_21"  >
<polygon points="649,40 662.0,40 667,35.0 662.0,30 649,30 649,40 " style="fill:rgb(42.5,212.5,127.5); stroke-width:1; stroke:black; "  />
</g>
<g id="q1_1_22"  >
<polygon points="667,40 675.0,40 680,35.0 675.0,30 667,30 667,40 " style="fill:rgb(127.5,42.5,42.5); stroke-width:1; stroke:black; "  />
</g>
<g id="q1_1_23"  >
<polygon points="679,40 682,35.0 679,30 679,40 " style="fill:rgb(127.5,42.5,127.5); stroke-width:1; stroke:black; "  />
</g>
<g id="q1_1_24"  >
<polygon points="682,35.0 687.0,30 688,30 688,40 687.0,40 682,35.0 " style="fill:rgb(42.5,127.5,127.5); stroke-width:1; stroke:black; "  />
</g>
<g id="q1_1_25"  >
<polygon points="690,40 694.0,40 699,35.0 694.0,30 690,30 690,40 " style="fill:rgb(212.5,127.5,42.5); stroke-width:1; stroke:black; "  />
</g>
<g id="q1_1_26"  >
<polygon points="698,35.0 703.0,30 708,30 708,40 703.0,40 698,35.0 " style="fill:rgb(42.5,212.5,212.5); stroke-width:1; stroke:black; "  />
</g>
<g id="q1_1_27"  >
<polygon points="709,40 711.0,40 716,35.0 711.0,30 709,30 709,40 " style="fill:rgb(212.5,127.5,212.5); stroke-width:1; stroke:black; "  />
</g>
<g  >
<line x1="10" y1="85" x2="778.0" y2="85" style="stroke-width:1; stroke:grey; "  />
</g>
<g id="h1_1_0"  >
<polygon points="10,90 16.0,90 21,85.0 16.0,80 10,80 10,90 " style="fill:#FFFFFF; stroke-width:1; stroke:black; "  />
</g>
<g id="h1_1_1"  >
<polygon points="31,85.0 35,80 35,90 31,85.0 " style="fill:#FFFFFF; stroke-width:1; stroke:black; "  />
</g>
<g id="h1_1_2"  >
<polygon points="36,90 38,85.0 36,80 36,90 " style="fill:#FFFFFF; stroke-width:1; stroke:black; "  />
</g>
<g id="h1_1_3"  >
<polygon points="39,85.0 41,80 41,90 39,85.0 " style="fill:#FFFFFF; stroke-width:1; stroke:black; "  />
</g>
<g id="h1_1_4"  >
<polygon points="42,90 45,85.0 42,80 42,90 " style="fill:#FFFFFF; stroke-width:1; stroke:black; "  />
</g>
<g id="h1_1_5"  >
<polygon points="45,90 52.0,90 57,85.0 52.0,80 45,80 45,90 " style="fill:rgb(212.5,42.5,42.5); stroke-width:1; stroke:black; "  />
</g>
<g id="h1_1_6"  >
<polygon points="66,90 69.0,90 74,85.0 69.0,80 66,80 66,90 " style="fill:rgb(127.5,127.5,42.5); stroke-width:1; stroke:black; "  />
</g>
<g id="h1_1_7"  >
<polygon points="74,85.0 79.0,80 87,80 87,90 79.0,90 74,85.0 " style="fill:rgb(127.5,42.5,42.5); stroke-width:1; stroke:black; "  />
</g>
<g id="h1_1_8"  >
<polygon points="88,85.0 93.0,80 116,80 116,90 93.0,90 88,85.0 " style="fill:rgb(42.5,212.5,42.5); stroke-width:1; stroke:black; "  />
</g>
<g id="h1_1_9"  >
<polygon points="121,90 124.0,90 129,85.0 124.0,80 121,80 121,90 " style="fill:rgb(127.5,127.5,42.5); stroke-width:1; stroke:black; "  />
</g>
<g id="h1_1_10"  >
<polygon points="130,85.0 134,80 134,90 130,85.0 " style="fill:#FFFFFF; stroke-width:1; stroke:black; "  />
</g>
<g id="h1_1_11"  >
<polygon points="134,85.0 139.0,80 154,80 154,90 139.0,90 134,85.0 " style="fill:rgb(42.5,127.5,212.5); stroke-width:1; stroke:black; "  />
</g>
<g id="h1_1_12"  >
<polygon points="155,90 162.0,90 167,85.0 162.0,80 155,80 155,90 " style="fill:rgb(42.5,42.5,42.5); stroke-width:1; stroke:black; "  />
</g>
<g id="h1_1_13"  >
<polygon points="167,90 182.0,90 187,85.0 182.0,80 167,80 167,90 " style="fill:rgb(212.5,212.5,42.5); stroke-width:1; stroke:black; "  />
</g>
<g id="h1_1_14"  >
<polygon points="187,90 189,85.0 187,80 187,90 " style="fill:rgb(42.5,42.5,127.5); stroke-width:1; stroke:black; "  />
</g>
<g id="h1_1_15"  >
<polygon points="189,90 193.0,90 198,85.0 193.0,80 189,80 189,90 " style="fill:rgb(212.5,42.5,127.5); stroke-width:1; stroke:black; "  />
</g>
<g id="h1_1_16"  >
<polygon points="198,90 204.0,90 209,85.0 204.0,80 198,80 198,90 " style="fill:rgb(127.5,127.5,212.5); stroke-width:1; stroke:black; "  />
</g>
<g id="h1_1_17"  >
<polygon points="209,90 393.0,90 398,85.0 393.0,80 209,80 209,90 " style="fill:rgb(42.5,212.5,212.5); stroke-width:1; stroke:black; "  />
</g>
<g id="h1_1_18"  >
<polygon points="399,90 513.0,90 518,85.0 513.0,80 399,80 399,90 " style="fill:rgb(42.5,212.5,212.5); stroke-width:1; stroke:black; "  />
</g>
<g id="h1_1_19"  >
<polygon points="518,90 546.0,90 551,85.0 546.0,80 518,80 518,90 " style="fill:rgb(42.5,212.5,212.5); stroke-width:1; stroke:black; "  />
</g>
<g id="h1_1_20"  >
<polygon points="551,85.0 556.0,80 559,80 559,90 556.0,90 551,85.0 " style="fill:rgb(212.5,42.5,212.5); stroke-width:1; stroke:black; "  />
</g>
<g id="h1_1_21"  >
<polygon points="560,90 570.0,90 575,85.0 570.0,80 560,80 560,90 " style="fill:rgb(42.5,42.5,212.5); stroke-width:1; stroke:black; "  />
</g>
<g id="h1_1_22"  >
<polygon points="576,90 582.0,90 587,85.0 582.0,80 576,80 576,90 " style="fill:rgb(212.5,212.5,212.5); stroke-width:1; stroke:black; "  />
</g>
<g id="h1_1_23"  >
<polygon points="588,90 601.0,90 606,85.0 601.0,80 588,80 588,90 " style="fill:rgb(212.5,212.5,127.5); stroke-width:1; stroke:black; "  />
</g>
<g id="h1_1_24"  >
<polygon points="606,90 611.0,90 616,85.0 611.0,80 606,80 606,90 " style="fill:rgb(42.5,127.5,42.5); stroke-width:1; stroke:black; "  />
</g>
<g id="h1_1_25"  >
<polygon points="616,90 620.0,90 625,85.0 620.0,80 616,80 616,90 " style="fill:rgb(127.5,127.5,127.5); stroke-width:1; stroke:black; "  />
</g>
<g id="h1_1_26"  >
<polygon points="625,90 638.0,90 643,85.0 638.0,80 625,80 625,90 " style="fill:rgb(42.5,212.5,127.5); stroke-width:1; stroke:black; "  />
</g>
<g id="h1_1_27"  >
<polygon points="642,90 650.0,90 655,85.0 650.0,80 642,80 642,90 " style="fill:rgb(127.5,42.5,42.5); stroke-width:1; stroke:black; "  />
</g>
<g id="h1_1_28"  >
<polygon points="655,90 658,85.0 655,80 655,90 " style="fill:rgb(127.5,42.5,127.5); stroke-width:1; stroke:black; "  />
</g>
<g id="h1_1_29"  >
<polygon points="658,85.0 663.0,80 664,80 664,90 663.0,90 658,85.0 " style="fill:rgb(42.5,127.5,127.5); stroke-width:1; stroke:black; "  />
</g>
<g id="h1_1_30"  >
<polygon points="665,90 670.0,90 675,85.0 670.0,80 665,80 665,90 " style="fill:rgb(212.5,127.5,42.5); stroke-width:1; stroke:black; "  />
</g>
<g id="h1_1_31"  >
<polygon points="674,85.0 679.0,80 684,80 684,90 679.0,90 674,85.0 " style="fill:rgb(42.5,212.5,212.5); stroke-width:1; stroke:black; "  />
</g>
<g id="h1_1_32"  >
<polygon points="685,90 686.0,90 691,85.0 686.0,80 685,80 685,90 " style="fill:rgb(212.5,127.5,212.5); stroke-width:1; stroke:black; "  />
</g>
<g id="h1_1_33"  >
<polygon points="693,85.0 698.0,80 707,80 707,90 698.0,90 693,85.0 " style="fill:#FFFFFF; stroke-width:1; stroke:black; "  />
</g>
<g id="h1_1_34"  >
<polygon points="713,90 716,85.0 713,80 713,90 " style="fill:#FFFFFF; stroke-width:1; stroke:black; "  />
</g>
<g id="h1_1_35"  >
<polygon points="720,90 724.0,90 729,85.0 724.0,80 720,80 720,90 " style="fill:#FFFFFF; stroke-width:1; stroke:black; "  />
</g>
<g id="h1_1_36"  >
<polygon points="729,90 736.0,90 741,85.0 736.0,80 729,80 729,90 " style="fill:#FFFFFF; stroke-width:1; stroke:black; "  />
</g>
<g id="h1_1_37"  >
<polygon points="740,90 744.0,90 749,85.0 744.0,80 740,80 740,90 " style="fill:rgb(42.5,212.5,127.5); stroke-width:1; stroke:black; "  />
</g>
<g id="h1_1_38"  >
<polygon points="749,90 753.0,90 758,85.0 753.0,80 749,80 749,90 " style="fill:#FFFFFF; stroke-width:1; stroke:black; "  />
</g>
<g id="h1_1_39"  >
<polygon points="758,85.0 763.0,80 763,80 763,90 763.0,90 758,85.0 " style="fill:#FFFFFF; stroke-width:1; stroke:black; "  />
</g>
<g id="h1_1_40"  >
<polygon points="763,85.0 768.0,80 778,80 778,90 768.0,90 763,85.0 " style="fill:#FFFFFF; stroke-width:1; stroke:black; "  />
</g>
</svg>
