<svg xmlns="http://www.w3.org/2000/svg" xmlns:xlink="http://www.w3.org/1999/xlink" version="1.1" x="0" y="0" height="2770" width="768.0" viewBox="0 0 819.2 2680" preserveAspectRatio="none"  >
<g  >
<line x1="10" y1="35" x2="778.0" y2="35" style="stroke-width:1; stroke:grey; "  />
</g>
<g id="q1_29_0"  >
<polygon points="10,40 19.0,40 24,35.0 19.0,30 10,30 10,40 " style="fill:rgb(212.5,42.5,42.5); stroke-width:1; stroke:black; "  />
</g>
<g id="q1_29_1"  >
<polygon points="25,40 28.0,40 33,35.0 28.0,30 25,30 25,40 " style="fill:#FFFFFF; stroke-width:1; stroke:black; "  />
</g>
<g id="q1_29_2"  >
<polygon points="34,40 39.0,40 44,35.0 39.0,30 34,30 34,40 " style="fill:rgb(127.5,127.5,42.5); stroke-width:1; stroke:black; "  />
</g>
<g id="q1_29_3"  >
<polygon points="44,35.0 49.0,30 59,30 59,40 49.0,40 44,35.0 " style="fill:rgb(127.5,42.5,42.5); stroke-width:1; stroke:black; "  />
</g>
<g id="q1_29_4"  >
<polygon points="60,35.0 65.0,30 95,30 95,40 65.0,40 60,35.0 " style="fill:rgb(42.5,212.5,42.5); stroke-width:1; stroke:black; "  />
</g>
<g id="q1_29_5"  >
<polygon points="99,40 104.0,40 109,35.0 104.0,30 99,30 99,40 " style="fill:rgb(127.5,127.5,42.5); stroke-width:1; stroke:black; "  />
</g>
<g id="q1_29_6"  >
<polygon points="115,35.0 120.0,30 139,30 139,40 120.0,40 115,35.0 " style="fill:rgb(42.5,127.5,212.5); stroke-width:1; stroke:black; "  />
</g>
<g id="q1_29_7"  >
<polygon points="140,40 149.0,40 154,35.0 149.0,30 140,30 140,40 " style="fill:rgb(42.5,42.5,42.5); stroke-width:1; stroke:black; "  />
</g>
<g id="q1_29_8"  >
<polygon points="154,40 173.0,40 178,35.0 173.0,30 154,30 154,40 " style="fill:rgb(212.5,212.5,42.5); stroke-width:1; stroke:black; "  />
</g>
<g id="q1_29_9"  >
<polygon points="178,40 181,35.0 178,30 178,40 " style="fill:rgb(42.5,42.5,127.5); stroke-width:1; stroke:black; "  />
</g>
<g id="q1_29_10"  >
<polygon points="181,40 186.0,40 191,35.0 186.0,30 181,30 181,40 " style="fill:rgb(212.5,42.5,127.5); stroke-width:1; stroke:black; "  />
</g>
<g id="q1_29_11"  >
<polygon points="191,40 199.0,40 204,35.0 199.0,30 191,30 191,40 " style="fill:rgb(127.5,127.5,212.5); stroke-width:1; stroke:black; "  />
</g>
<g id="q1_29_12"  >
<polygon points="204,40 424.0,40 429,35.0 424.0,30 204,30 204,40 " style="fill:rgb(42.5,212.5,212.5); stroke-width:1; stroke:black; "  />
</g>
<g id="q1_29_13"  >
<polygon points="430,40 567.0,40 572,35.0 567.0,30 430,30 430,40 " style="fill:rgb(42.5,212.5,212.5); stroke-width:1; stroke:black; "  />
</g>
<g id="q1_29_14"  >
<polygon points="572,40 605.0,40 610,35.0 605.0,30 572,30 572,40 " style="fill:rgb(42.5,212.5,212.5); stroke-width:1; stroke:black; "  />
</g>
<g id="q1_29_15"  >
<polygon points="611,35.0 616.0,30 620,30 620,40 616.0,40 611,35.0 " style="fill:rgb(212.5,42.5,212.5); stroke-width:1; stroke:black; "  />
</g>
<g id="q1_29_16"  >
<polygon points="621,40 634.0,40 639,35.0 634.0,30 621,30 621,40 " style="fill:rgb(42.5,42.5,212.5); stroke-width:1; stroke:black; "  />
</g>
<g id="q1_29_17"  >
<polygon points="640,40 648.0,40 653,35.0 648.0,30 640,30 640,40 " style="fill:rgb(212.5,212.5,212.5); stroke-width:1; stroke:black; "  />
</g>
<g id="q1_29_18"  >
<polygon points="655,40 671.0,40 676,35.0 671.0,30 655,30 655,40 " style="fill:rgb(212.5,212.5,127.5); stroke-width:1; stroke:black; "  />
</g>
<g id="q1_29_19"  >
<polygon points="675,40 683.0,40 688,35.0 683.0,30 675,30 675,40 " style="fill:rgb(42.5,127.5,42.5); stroke-width:1; stroke:black; "  />
</g>
<g id="q1_29_20"  >
<polygon points="688,40 694.0,40 699,35.0 694.0,30 688,30 688,40 " style="fill:rgb(127.5,127.5,127.5); stroke-width:1; stroke:black; "  />
</g>
<g id="q1_29_21"  >
<polygon points="698,40 714.0,40 719,35.0 714.0,30 698,30 698,40 " style="fill:rgb(42.5,212.5,127.5); stroke-width:1; stroke:black; "  />
</g>
<g id="q1_29_22"  >
<polygon points="719,40 730.0,40 735,35.0 730.0,30 719,30 719,40 " style="fill:rgb(127.5,42.5,42.5); stroke-width:1; stroke:black; "  />
</g>
<g id="q1_29_23"  >
<polygon points="734,40 737,35.0 734,30 734,40 " style="fill:rgb(127.5,42.5,127.5); stroke-width:1; stroke:black; "  />
</g>
<g id="q1_29_24"  >
<polygon points="737,35.0 742.0,30 745,30 745,40 742.0,40 737,35.0 " style="fill:rgb(42.5,127.5,127.5); stroke-width:1; stroke:black; "  />
</g>
<g id="q1_29_25"  >
<polygon points="747,40 753.0,40 758,35.0 753.0,30 747,30 747,40 " style="fill:rgb(212.5,127.5,42.5); stroke-width:1; stroke:black; "  />
</g>
<g id="q1_29_26"  >
<polygon points="757,35.0 762.0,30 769,30 769,40 762.0,40 757,35.0 " style="fill:rgb(42.5,212.5,212.5); stroke-width:1; stroke:black; "  />
</g>
<g id="q1_29_27"  >
<polygon points="770,40 773.0,40 778,35.0 773.0,30 770,30 770,40 " style="fill:rgb(212.5,127.5,212.5); stroke-width:1; stroke:black; "  />
</g>
<g  >
<line x1="10" y1="85" x2="778.0" y2="85" style="stroke-width:1; stroke:grey; "  />
</g>
<g id="h1_29_0"  >
<polygon points="125,90 130.0,90 135,85.0 130.0,80 125,80 125,90 " style="fill:#FFFFFF; stroke-width:1; stroke:black; "  />
</g>
<g id="h1_29_1"  >
<polygon points="136,85.0 141.0,80 155,80 155,90 141.0,90 136,85.0 " style="fill:#FFFFFF; stroke-width:1; stroke:black; "  />
</g>
<g id="h1_29_2"  >
<polygon points="162,90 166.0,90 171,85.0 166.0,80 162,80 162,90 " style="fill:#FFFFFF; stroke-width:1; stroke:black; "  />
</g>
<g id="h1_29_3"  >
<polygon points="173,85.0 178.0,80 180,80 180,90 178.0,90 173,85.0 " style="fill:#FFFFFF; stroke-width:1; stroke:black; "  />
</g>
<g id="h1_29_4"  >
<polygon points="184,90 186,85.0 184,80 184,90 " style="fill:#FFFFFF; stroke-width:1; stroke:black; "  />
</g>
<g id="h1_29_5"  >
<polygon points="207,85.0 212.0,80 216,80 216,90 212.0,90 207,85.0 " style="fill:#FFFFFF; stroke-width:1; stroke:black; "  />
</g>
<g id="h1_29_6"  >
<polygon points="216,85.0 221.0,80 224,80 224,90 221.0,90 216,85.0 " style="fill:#FFFFFF; stroke-width:1; stroke:black; "  />
</g>
<g id="h1_29_7"  >
<polygon points="230,90 234,85.0 230,80 230,90 " style="fill:#FFFFFF; stroke-width:1; stroke:black; "  />
</g>
<g id="h1_29_8"  >
<polygon points="234,90 234.0,90 239,85.0 234.0,80 234,80 234,90 " style="fill:#FFFFFF; stroke-width:1; stroke:black; "  />
</g>
<g id="h1_29_9"  >
<polygon points="239,90 239.0,90 244,85.0 239.0,80 239,80 239,90 " style="fill:#FFFFFF; stroke-width:1; stroke:black; "  />
</g>
<g id="h1_29_10"  >
<polygon points="244,90 247.0,90 252,85.0 247.0,80 244,80 244,90 " style="fill:#FFFFFF; stroke-width:1; stroke:black; "  />
</g>
<g id="h1_29_11"  >
<polygon points="252,90 258.0,90 263,85.0 258.0,80 252,80 252,90 " style="fill:#FFFFFF; stroke-width:1; stroke:black; "  />
</g>
<g id="h1_29_12"  >
<polygon points="264,90 265.0,90 270,85.0 265.0,80 264,80 264,90 " style="fill:#FFFFFF; stroke-width:1; stroke:black; "  />
</g>
<g id="h1_29_13"  >
<polygon points="271,90 274,85.0 271,80 271,90 " style="fill:#FFFFFF; stroke-width:1; stroke:black; "  />
</g>
<g id="h1_29_14"  >
<polygon points="275,90 299.0,90 304,85.0 299.0,80 275,80 275,90 " style="fill:#FFFFFF; stroke-width:1; stroke:black; "  />
</g>
<g id="h1_29_15"  >
<polygon points="306,90 309,85.0 306,80 306,90 " style="fill:#FFFFFF; stroke-width:1; stroke:black; "  />
</g>
<g id="h1_29_16"  >
<polygon points="309,90 312,85.0 309,80 309,90 " style="fill:#FFFFFF; stroke-width:1; stroke:black; "  />
</g>
<g id="h1_29_17"  >
<polygon points="312,90 316,85.0 312,80 312,90 " style="fill:#FFFFFF; stroke-width:1; stroke:black; "  />
</g>
<g id="h1_29_18"  >
<polygon points="316,90 323.0,90 328,85.0 323.0,80 316,80 316,90 " style="fill:#FFFFFF; stroke-width:1; stroke:black; "  />
</g>
<g id="h1_29_19"  >
<polygon points="328,90 344.0,90 349,85.0 344.0,80 328,80 328,90 " style="fill:#FFFFFF; stroke-width:1; stroke:black; "  />
</g>
<g id="h1_29_20"  >
<polygon points="356,90 358,85.0 356,80 356,90 " style="fill:#FFFFFF; stroke-width:1; stroke:black; "  />
</g>
<g id="h1_29_21"  >
<polygon points="358,90 371.0,90 376,85.0 371.0,80 358,80 358,90 " style="fill:#FFFFFF; stroke-width:1; stroke:black; "  />
</g>
<g id="h1_29_22"  >
<polygon points="381,90 389.0,90 394,85.0 389.0,80 381,80 381,90 " style="fill:rgb(42.5,212.5,212.5); stroke-width:1; stroke:black; "  />
</g>
<g id="h1_29_23"  >
<polygon points="394,85.0 399.0,80 400,80 400,90 399.0,90 394,85.0 " style="fill:#FFFFFF; stroke-width:1; stroke:black; "  />
</g>
<g id="h1_29_24"  >
<polygon points="400,90 405.0,90 410,85.0 405.0,80 400,80 400,90 " style="fill:#FFFFFF; stroke-width:1; stroke:black; "  />
</g>
<g id="h1_29_25"  >
<polygon points="410,90 417.0,90 422,85.0 417.0,80 410,80 410,90 " style="fill:#FFFFFF; stroke-width:1; stroke:black; "  />
</g>
<g id="h1_29_26"  >
<polygon points="422,85.0 427.0,80 431,80 431,90 427.0,90 422,85.0 " style="fill:#FFFFFF; stroke-width:1; stroke:black; "  />
</g>
<g id="h1_29_27"  >
<polygon points="433,90 456.0,90 461,85.0 456.0,80 433,80 433,90 " style="fill:#FFFFFF; stroke-width:1; stroke:black; "  />
</g>
<g id="h1_29_28"  >
<polygon points="463,90 479.0,90 484,85.0 479.0,80 463,80 463,90 " style="fill:#FFFFFF; stroke-width:1; stroke:black; "  />
</g>
<g id="h1_29_29"  >
<polygon points="485,85.0 490.0,80 491,80 491,90 490.0,90 485,85.0 " style="fill:#FFFFFF; stroke-width:1; stroke:black; "  />
</g>
<g id="h1_29_30"  >
<polygon points="493,85.0 498.0,80 508,80 508,90 498.0,90 493,85.0 " style="fill:#FFFFFF; stroke-width:1; stroke:black; "  />
</g>
<g id="h1_29_31"  >
<polygon points="509,90 510.0,90 515,85.0 510.0,80 509,80 509,90 " style="fill:#FFFFFF; stroke-width:1; stroke:black; "  />
</g>
<g id="h1_29_32"  >
<polygon points="515,85.0 520.0,80 525,80 525,90 520.0,90 515,85.0 " style="fill:#FFFFFF; stroke-width:1; stroke:black; "  />
</g>
<g id="h1_29_33"  >
<polygon points="529,85.0 534.0,80 535,80 535,90 534.0,90 529,85.0 " style="fill:#FFFFFF; stroke-width:1; stroke:black; "  />
</g>
<g id="h1_29_34"  >
<polygon points="537,90 542.0,90 547,85.0 542.0,80 537,80 537,90 " style="fill:#FFFFFF; stroke-width:1; stroke:black; "  />
</g>
<g id="h1_29_35"  >
<polygon points="548,85.0 553.0,80 564,80 564,90 553.0,90 548,85.0 " style="fill:#FFFFFF; stroke-width:1; stroke:black; "  />
</g>
<g id="h1_29_36"  >
<polygon points="568,85.0 573.0,80 582,80 582,90 573.0,90 568,85.0 " style="fill:#FFFFFF; stroke-width:1; stroke:black; "  />
</g>
<g id="h1_29_37"  >
<polygon points="584,85.0 589.0,80 590,80 590,90 589.0,90 584,85.0 " style="fill:#FFFFFF; stroke-width:1; stroke:black; "  />
</g>
<g id="h1_29_38"  >
<polygon points="593,90 594.0,90 599,85.0 594.0,80 593,80 593,90 " style="fill:#FFFFFF; stroke-width:1; stroke:black; "  />
</g>
<g id="h1_29_39"  >
<polygon points="600,90 602,85.0 600,80 600,90 " style="fill:#FFFFFF; stroke-width:1; stroke:black; "  />
</g>
<g id="h1_29_40"  >
<polygon points="602,90 607.0,90 612,85.0 607.0,80 602,80 602,90 " style="fill:#FFFFFF; stroke-width:1; stroke:black; "  />
</g>
<g id="h1_29_41"  >
<polygon points="612,90 620.0,90 625,85.0 620.0,80 612,80 612,90 " style="fill:#FFFFFF; stroke-width:1; stroke:black; "  />
</g>
<g id="h1_29_42"  >
<polygon points="625,90 629.0,90 634,85.0 629.0,80 625,80 625,90 " style="fill:#FFFFFF; stroke-width:1; stroke:black; "  />
</g>
<g id="h1_29_43"  >
<polygon points="638,90 638.0,90 643,85.0 638.0,80 638,80 638,90 " style="fill:#FFFFFF; stroke-width:1; stroke:black; "  />
</g>
<g id="h1_29_44"  >
<polygon points="644,85.0 649.0,80 661,80 661,90 649.0,90 644,85.0 " style="fill:#FFFFFF; stroke-width:1; stroke:black; "  />
</g>
</svg>
