<svg xmlns="http://www.w3.org/2000/svg" xmlns:xlink="http://www.w3.org/1999/xlink" version="1.1" x="0" y="0" height="2770" width="768.0" viewBox="0 0 819.2 2680" preserveAspectRatio="none"  >
<g  >
<line x1="10" y1="35" x2="778.0" y2="35" style="stroke-width:1; stroke:grey; "  />
</g>
<g id="q1_15_0"  >
<polygon points="56,40 63.0,40 68,35.0 63.0,30 56,30 56,40 " style="fill:rgb(212.5,42.5,42.5); stroke-width:1; stroke:black; "  />
</g>
<g id="q1_15_1"  >
<polygon points="69,40 71.0,40 76,35.0 71.0,30 69,30 69,40 " style="fill:#FFFFFF; stroke-width:1; stroke:black; "  />
</g>
<g id="q1_15_2"  >
<polygon points="77,40 80.0,40 85,35.0 80.0,30 77,30 77,40 " style="fill:rgb(127.5,127.5,42.5); stroke-width:1; stroke:black; "  />
</g>
<g id="q1_15_3"  >
<polygon points="86,35.0 91.0,30 99,30 99,40 91.0,40 86,35.0 " style="fill:rgb(127.5,42.5,42.5); stroke-width:1; stroke:black; "  />
</g>
<g id="q1_15_4"  >
<polygon points="100,35.0 105.0,30 131,30 131,40 105.0,40 100,35.0 " style="fill:rgb(42.5,212.5,42.5); stroke-width:1; stroke:black; "  />
</g>
<g id="q1_15_5"  >
<polygon points="135,40 138.0,40 143,35.0 138.0,30 135,30 135,40 " style="fill:rgb(127.5,127.5,42.5); stroke-width:1; stroke:black; "  />
</g>
<g id="q1_15_6"  >
<polygon points="148,35.0 153.0,30 170,30 170,40 153.0,40 148,35.0 " style="fill:rgb(42.5,127.5,212.5); stroke-width:1; stroke:black; "  />
</g>
<g id="q1_15_7"  >
<polygon points="171,40 177.0,40 182,35.0 177.0,30 171,30 171,40 " style="fill:rgb(42.5,42.5,42.5); stroke-width:1; stroke:black; "  />
</g>
<g id="q1_15_8"  >
<polygon points="182,40 198.0,40 203,35.0 198.0,30 182,30 182,40 " style="fill:rgb(212.5,212.5,42.5); stroke-width:1; stroke:black; "  />
</g>
<g id="q1_15_9"  >
<polygon points="203,40 206,35.0 203,30 203,40 " style="fill:rgb(42.5,42.5,127.5); stroke-width:1; stroke:black; "  />
</g>
<g id="q1_15_10"  >
<polygon points="206,40 210.0,40 215,35.0 210.0,30 206,30 206,40 " style="fill:rgb(212.5,42.5,127.5); stroke-width:1; stroke:black; "  />
</g>
<g id="q1_15_11"  >
<polygon points="215,40 222.0,40 227,35.0 222.0,30 215,30 215,40 " style="fill:rgb(127.5,127.5,212.5); stroke-width:1; stroke:black; "  />
</g>
<g id="q1_15_12"  >
<polygon points="227,40 419.0,40 424,35.0 419.0,30 227,30 227,40 " style="fill:rgb(42.5,212.5,212.5); stroke-width:1; stroke:black; "  />
</g>
<g id="q1_15_13"  >
<polygon points="425,40 544.0,40 549,35.0 544.0,30 425,30 425,40 " style="fill:rgb(42.5,212.5,212.5); stroke-width:1; stroke:black; "  />
</g>
<g id="q1_15_14"  >
<polygon points="549,40 578.0,40 583,35.0 578.0,30 549,30 549,40 " style="fill:rgb(42.5,212.5,212.5); stroke-width:1; stroke:black; "  />
</g>
<g id="q1_15_15"  >
<polygon points="584,35.0 589.0,30 592,30 592,40 589.0,40 584,35.0 " style="fill:rgb(212.5,42.5,212.5); stroke-width:1; stroke:black; "  />
</g>
<g id="q1_15_16"  >
<polygon points="593,40 604.0,40 609,35.0 604.0,30 593,30 593,40 " style="fill:rgb(42.5,42.5,212.5); stroke-width:1; stroke:black; "  />
</g>
<g id="q1_15_17"  >
<polygon points="610,40 616.0,40 621,35.0 616.0,30 610,30 610,40 " style="fill:rgb(212.5,212.5,212.5); stroke-width:1; stroke:black; "  />
</g>
<g id="q1_15_18"  >
<polygon points="622,40 636.0,40 641,35.0 636.0,30 622,30 622,40 " style="fill:rgb(212.5,212.5,127.5); stroke-width:1; stroke:black; "  />
</g>
<g id="q1_15_19"  >
<polygon points="641,40 646.0,40 651,35.0 646.0,30 641,30 641,40 " style="fill:rgb(42.5,127.5,42.5); stroke-width:1; stroke:black; "  />
</g>
<g id="q1_15_20"  >
<polygon points="651,40 656.0,40 661,35.0 656.0,30 651,30 651,40 " style="fill:rgb(127.5,127.5,127.5); stroke-width:1; stroke:black; "  />
</g>
<g id="q1_15_21"  >
<polygon points="661,40 674.0,40 679,35.0 674.0,30 661,30 661,40 " style="fill:rgb(42.5,212.5,127.5); stroke-width:1; stroke:black; "  />
</g>
<g id="q1_15_22"  >
<polygon points="679,40 688.0,40 693,35.0 688.0,30 679,30 679,40 " style="fill:rgb(127.5,42.5,42.5); stroke-width:1; stroke:black; "  />
</g>
<g id="q1_15_23"  >
<polygon points="692,40 695,35.0 692,30 692,40 " style="fill:rgb(127.5,42.5,127.5); stroke-width:1; stroke:black; "  />
</g>
<g id="q1_15_24"  >
<polygon points="695,35.0 700.0,30 702,30 702,40 700.0,40 695,35.0 " style="fill:rgb(42.5,127.5,127.5); stroke-width:1; stroke:black; "  />
</g>
<g id="q1_15_25"  >
<polygon points="703,40 708.0,40 713,35.0 708.0,30 703,30 703,40 " style="fill:rgb(212.5,127.5,42.5); stroke-width:1; stroke:black; "  />
</g>
<g id="q1_15_26"  >
<polygon points="712,35.0 717.0,30 722,30 722,40 717.0,40 712,35.0 " style="fill:rgb(42.5,212.5,212.5); stroke-width:1; stroke:black; "  />
</g>
<g id="q1_15_27"  >
<polygon points="723,40 725.0,40 730,35.0 725.0,30 723,30 723,40 " style="fill:rgb(212.5,127.5,212.5); stroke-width:1; stroke:black; "  />
</g>
<g  >
<line x1="10" y1="85" x2="778.0" y2="85" style="stroke-width:1; stroke:grey; "  />
</g>
<g id="h1_15_0"  >
<polygon points="10,90 37.0,90 42,85.0 37.0,80 10,80 10,90 " style="fill:#FFFFFF; stroke-width:1; stroke:black; "  />
</g>
<g id="h1_15_1"  >
<polygon points="42,90 43.0,90 48,85.0 43.0,80 42,80 42,90 " style="fill:#FFFFFF; stroke-width:1; stroke:black; "  />
</g>
<g id="h1_15_2"  >
<polygon points="48,85.0 53.0,80 53,80 53,90 53.0,90 48,85.0 " style="fill:#FFFFFF; stroke-width:1; stroke:black; "  />
</g>
<g id="h1_15_3"  >
<polygon points="57,90 84.0,90 89,85.0 84.0,80 57,80 57,90 " style="fill:#FFFFFF; stroke-width:1; stroke:black; "  />
</g>
<g id="h1_15_4"  >
<polygon points="91,90 117.0,90 122,85.0 117.0,80 91,80 91,90 " style="fill:#FFFFFF; stroke-width:1; stroke:black; "  />
</g>
<g id="h1_15_5"  >
<polygon points="123,85.0 128.0,80 128,80 128,90 128.0,90 123,85.0 " style="fill:#FFFFFF; stroke-width:1; stroke:black; "  />
</g>
<g id="h1_15_6"  >
<polygon points="129,90 133,85.0 129,80 129,90 " style="fill:#FFFFFF; stroke-width:1; stroke:black; "  />
</g>
<g id="h1_15_7"  >
<polygon points="136,90 159.0,90 164,85.0 159.0,80 136,80 136,90 " style="fill:#FFFFFF; stroke-width:1; stroke:black; "  />
</g>
<g id="h1_15_8"  >
<polygon points="166,85.0 171.0,80 177,80 177,90 171.0,90 166,85.0 " style="fill:#FFFFFF; stroke-width:1; stroke:black; "  />
</g>
<g id="h1_15_9"  >
<polygon points="177,85.0 182.0,80 188,80 188,90 182.0,90 177,85.0 " style="fill:#FFFFFF; stroke-width:1; stroke:black; "  />
</g>
<g id="h1_15_10"  >
<polygon points="188,85.0 193.0,80 197,80 197,90 193.0,90 188,85.0 " style="fill:rgb(42.5,212.5,127.5); stroke-width:1; stroke:black; "  />
</g>
<g id="h1_15_11"  >
<polygon points="197,85.0 202.0,80 206,80 206,90 202.0,90 197,85.0 " style="fill:#FFFFFF; stroke-width:1; stroke:black; "  />
</g>
<g id="h1_15_12"  >
<polygon points="206,85.0 211.0,80 215,80 215,90 211.0,90 206,85.0 " style="fill:#FFFFFF; stroke-width:1; stroke:black; "  />
</g>
<g id="h1_15_13"  >
<polygon points="215,85.0 220.0,80 227,80 227,90 220.0,90 215,85.0 " style="fill:#FFFFFF; stroke-width:1; stroke:black; "  />
</g>
<g id="h1_15_14"  >
<polygon points="227,85.0 232.0,80 237,80 237,90 232.0,90 227,85.0 " style="fill:#FFFFFF; stroke-width:1; stroke:black; "  />
</g>
<g id="h1_15_15"  >
<polygon points="240,90 240.0,90 245,85.0 240.0,80 240,80 240,90 " style="fill:#FFFFFF; stroke-width:1; stroke:black; "  />
</g>
<g id="h1_15_16"  >
<polygon points="245,85.0 250.0,80 266,80 266,90 250.0,90 245,85.0 " style="fill:#FFFFFF; stroke-width:1; stroke:black; "  />
</g>
<g id="h1_15_17"  >
<polygon points="269,90 273.0,90 278,85.0 273.0,80 269,80 269,90 " style="fill:#FFFFFF; stroke-width:1; stroke:black; "  />
</g>
<g id="h1_15_18"  >
<polygon points="278,90 280.0,90 285,85.0 280.0,80 278,80 278,90 " style="fill:#FFFFFF; stroke-width:1; stroke:black; "  />
</g>
<g id="h1_15_19"  >
<polygon points="284,85.0 289.0,80 310,80 310,90 289.0,90 284,85.0 " style="fill:#FFFFFF; stroke-width:1; stroke:black; "  />
</g>
<g id="h1_15_20"  >
<polygon points="311,85.0 316.0,80 320,80 320,90 316.0,90 311,85.0 " style="fill:#FFFFFF; stroke-width:1; stroke:black; "  />
</g>
<g id="h1_15_21"  >
<polygon points="320,85.0 324,80 324,90 320,85.0 " style="fill:#FFFFFF; stroke-width:1; stroke:black; "  />
</g>
<g id="h1_15_22"  >
<polygon points="325,90 326.0,90 331,85.0 326.0,80 325,80 325,90 " style="fill:#FFFFFF; stroke-width:1; stroke:black; "  />
</g>
<g id="h1_15_23"  >
<polygon points="332,85.0 336,80 336,90 332,85.0 " style="fill:#FFFFFF; stroke-width:1; stroke:black; "  />
</g>
<g id="h1_15_24"  >
<polygon points="339,90 353.0,90 358,85.0 353.0,80 339,80 339,90 " style="fill:#FFFFFF; stroke-width:1; stroke:black; "  />
</g>
<g id="h1_15_25"  >
<polygon points="359,85.0 364.0,80 378,80 378,90 364.0,90 359,85.0 " style="fill:#FFFFFF; stroke-width:1; stroke:black; "  />
</g>
<g id="h1_15_26"  >
<polygon points="381,90 384.0,90 389,85.0 384.0,80 381,80 381,90 " style="fill:#FFFFFF; stroke-width:1; stroke:black; "  />
</g>
<g id="h1_15_27"  >
<polygon points="396,90 426.0,90 431,85.0 426.0,80 396,80 396,90 " style="fill:rgb(127.5,127.5,42.5); stroke-width:1; stroke:black; "  />
</g>
<g id="h1_15_28"  >
<polygon points="432,90 446.0,90 451,85.0 446.0,80 432,80 432,90 " style="fill:#FFFFFF; stroke-width:1; stroke:black; "  />
</g>
<g id="h1_15_29"  >
<polygon points="453,90 469.0,90 474,85.0 469.0,80 453,80 453,90 " style="fill:#FFFFFF; stroke-width:1; stroke:black; "  />
</g>
<g id="h1_15_30"  >
<polygon points="476,90 484.0,90 489,85.0 484.0,80 476,80 476,90 " style="fill:#FFFFFF; stroke-width:1; stroke:black; "  />
</g>
<g id="h1_15_31"  >
<polygon points="489,85.0 494.0,80 494,80 494,90 494.0,90 489,85.0 " style="fill:#FFFFFF; stroke-width:1; stroke:black; "  />
</g>
<g id="h1_15_32"  >
<polygon points="495,90 510.0,90 515,85.0 510.0,80 495,80 495,90 " style="fill:rgb(42.5,212.5,127.5); stroke-width:1; stroke:black; "  />
</g>
<g id="h1_15_33"  >
<polygon points="515,90 520.0,90 525,85.0 520.0,80 515,80 515,90 " style="fill:#FFFFFF; stroke-width:1; stroke:black; "  />
</g>
<g id="h1_15_34"  >
<polygon points="525,85.0 530.0,80 536,80 536,90 530.0,90 525,85.0 " style="fill:#FFFFFF; stroke-width:1; stroke:black; "  />
</g>
<g id="h1_15_35"  >
<polygon points="537,90 543.0,90 548,85.0 543.0,80 537,80 537,90 " style="fill:#FFFFFF; stroke-width:1; stroke:black; "  />
</g>
<g id="h1_15_36"  >
<polygon points="548,90 552.0,90 557,85.0 552.0,80 548,80 548,90 " style="fill:#FFFFFF; stroke-width:1; stroke:black; "  />
</g>
<g id="h1_15_37"  >
<polygon points="557,90 559.0,90 564,85.0 559.0,80 557,80 557,90 " style="fill:#FFFFFF; stroke-width:1; stroke:black; "  />
</g>
<g id="h1_15_38"  >
<polygon points="564,85.0 569.0,80 578,80 578,90 569.0,90 564,85.0 " style="fill:#FFFFFF; stroke-width:1; stroke:black; "  />
</g>
<g id="h1_15_39"  >
<polygon points="578,85.0 583.0,80 585,80 585,90 583.0,90 578,85.0 " style="fill:#FFFFFF; stroke-width:1; stroke:black; "  />
</g>
<g id="h1_15_40"  >
<polygon points="585,85.0 590.0,80 598,80 598,90 590.0,90 585,85.0 " style="fill:#FFFFFF; stroke-width:1; stroke:black; "  />
</g>
<g id="h1_15_41"  >
<polygon points="599,90 602.0,90 607,85.0 602.0,80 599,80 599,90 " style="fill:rgb(42.5,212.5,127.5); stroke-width:1; stroke:black; "  />
</g>
<g id="h1_15_42"  >
<polygon points="607,90 611.0,90 616,85.0 611.0,80 607,80 607,90 " style="fill:#FFFFFF; stroke-width:1; stroke:black; "  />
</g>
<g id="h1_15_43"  >
<polygon points="619,90 619.0,90 624,85.0 619.0,80 619,80 619,90 " style="fill:#FFFFFF; stroke-width:1; stroke:black; "  />
</g>
<g id="h1_15_44"  >
<polygon points="624,85.0 629.0,80 630,80 630,90 629.0,90 624,85.0 " style="fill:#FFFFFF; stroke-width:1; stroke:black; "  />
</g>
<g id="h1_15_45"  >
<polygon points="631,90 641.0,90 646,85.0 641.0,80 631,80 631,90 " style="fill:#FFFFFF; stroke-width:1; stroke:black; "  />
</g>
<g id="h1_15_46"  >
<polygon points="647,85.0 652.0,80 658,80 658,90 652.0,90 647,85.0 " style="fill:#FFFFFF; stroke-width:1; stroke:black; "  />
</g>
<g id="h1_15_47"  >
<polygon points="658,85.0 663.0,80 672,80 672,90 663.0,90 658,85.0 " style="fill:#FFFFFF; stroke-width:1; stroke:black; "  />
</g>
<g id="h1_15_48"  >
<polygon points="673,90 694.0,90 699,85.0 694.0,80 673,80 673,90 " style="fill:#FFFFFF; stroke-width:1; stroke:black; "  />
</g>
<g id="h1_15_49"  >
<polygon points="699,90 712.0,90 717,85.0 712.0,80 699,80 699,90 " style="fill:#FFFFFF; stroke-width:1; stroke:black; "  />
</g>
<g id="h1_15_50"  >
<polygon points="718,90 734.0,90 739,85.0 734.0,80 718,80 718,90 " style="fill:#FFFFFF; stroke-width:1; stroke:black; "  />
</g>
<g id="h1_15_51"  >
<polygon points="739,85.0 744.0,80 756,80 756,90 744.0,90 739,85.0 " style="fill:#FFFFFF; stroke-width:1; stroke:black; "  />
</g>
<g id="h1_15_52"  >
<polygon points="757,85.0 760,80 760,90 757,85.0 " style="fill:#FFFFFF; stroke-width:1; stroke:black; "  />
</g>
<g id="h1_15_53"  >
<polygon points="761,85.0 766.0,80 778,80 778,90 766.0,90 761,85.0 " style="fill:#FFFFFF; stroke-width:1; stroke:black; "  />
</g>
</svg>
