<svg xmlns="http://www.w3.org/2000/svg" xmlns:xlink="http://www.w3.org/1999/xlink" version="1.1" x="0" y="0" height="2770" width="768.0" viewBox="0 0 819.2 2680" preserveAspectRatio="none"  >
<g  >
<line x1="10" y1="35" x2="778.0" y2="35" style="stroke-width:1; stroke:grey; "  />
</g>
<g id="q1_5_0"  >
<polygon points="45,40 52.0,40 57,35.0 52.0,30 45,30 45,40 " style="fill:rgb(212.5,42.5,42.5); stroke-width:1; stroke:black; "  />
</g>
<g id="q1_5_1"  >
<polygon points="59,40 61.0,40 66,35.0 61.0,30 59,30 59,40 " style="fill:#FFFFFF; stroke-width:1; stroke:black; "  />
</g>
<g id="q1_5_2"  >
<polygon points="67,40 70.0,40 75,35.0 70.0,30 67,30 67,40 " style="fill:rgb(127.5,127.5,42.5); stroke-width:1; stroke:black; "  />
</g>
<g id="q1_5_3"  >
<polygon points="76,35.0 81.0,30 90,30 90,40 81.0,40 76,35.0 " style="fill:rgb(127.5,42.5,42.5); stroke-width:1; stroke:black; "  />
</g>
<g id="q1_5_4"  >
<polygon points="91,35.0 96.0,30 122,30 122,40 96.0,40 91,35.0 " style="fill:rgb(42.5,212.5,42.5); stroke-width:1; stroke:black; "  />
</g>
<g id="q1_5_5"  >
<polygon points="126,40 130.0,40 135,35.0 130.0,30 126,30 126,40 " style="fill:rgb(127.5,127.5,42.5); stroke-width:1; stroke:black; "  />
</g>
<g id="q1_5_6"  >
<polygon points="141,35.0 146.0,30 162,30 162,40 146.0,40 141,35.0 " style="fill:rgb(42.5,127.5,212.5); stroke-width:1; stroke:black; "  />
</g>
<g id="q1_5_7"  >
<polygon points="163,40 170.0,40 175,35.0 170.0,30 163,30 163,40 " style="fill:rgb(42.5,42.5,42.5); stroke-width:1; stroke:black; "  />
</g>
<g id="q1_5_8"  >
<polygon points="175,40 192.0,40 197,35.0 192.0,30 175,30 175,40 " style="fill:rgb(212.5,212.5,42.5); stroke-width:1; stroke:black; "  />
</g>
<g id="q1_5_9"  >
<polygon points="197,40 200,35.0 197,30 197,40 " style="fill:rgb(42.5,42.5,127.5); stroke-width:1; stroke:black; "  />
</g>
<g id="q1_5_10"  >
<polygon points="200,40 204.0,40 209,35.0 204.0,30 200,30 200,40 " style="fill:rgb(212.5,42.5,127.5); stroke-width:1; stroke:black; "  />
</g>
<g id="q1_5_11"  >
<polygon points="209,40 216.0,40 221,35.0 216.0,30 209,30 209,40 " style="fill:rgb(127.5,127.5,212.5); stroke-width:1; stroke:black; "  />
</g>
<g id="q1_5_12"  >
<polygon points="221,40 420.0,40 425,35.0 420.0,30 221,30 221,40 " style="fill:rgb(42.5,212.5,212.5); stroke-width:1; stroke:black; "  />
</g>
<g id="q1_5_13"  >
<polygon points="426,40 549.0,40 554,35.0 549.0,30 426,30 426,40 " style="fill:rgb(42.5,212.5,212.5); stroke-width:1; stroke:black; "  />
</g>
<g id="q1_5_14"  >
<polygon points="554,40 584.0,40 589,35.0 584.0,30 554,30 554,40 " style="fill:rgb(42.5,212.5,212.5); stroke-width:1; stroke:black; "  />
</g>
<g id="q1_5_15"  >
<polygon points="590,35.0 595.0,30 598,30 598,40 595.0,40 590,35.0 " style="fill:rgb(212.5,42.5,212.5); stroke-width:1; stroke:black; "  />
</g>
<g id="q1_5_16"  >
<polygon points="599,40 611.0,40 616,35.0 611.0,30 599,30 599,40 " style="fill:rgb(42.5,42.5,212.5); stroke-width:1; stroke:black; "  />
</g>
<g id="q1_5_17"  >
<polygon points="617,40 624.0,40 629,35.0 624.0,30 617,30 617,40 " style="fill:rgb(212.5,212.5,212.5); stroke-width:1; stroke:black; "  />
</g>
<g id="q1_5_18"  >
<polygon points="630,40 644.0,40 649,35.0 644.0,30 630,30 630,40 " style="fill:rgb(212.5,212.5,127.5); stroke-width:1; stroke:black; "  />
</g>
<g id="q1_5_19"  >
<polygon points="649,40 655.0,40 660,35.0 655.0,30 649,30 649,40 " style="fill:rgb(42.5,127.5,42.5); stroke-width:1; stroke:black; "  />
</g>
<g id="q1_5_20"  >
<polygon points="660,40 665.0,40 670,35.0 665.0,30 660,30 660,40 " style="fill:rgb(127.5,127.5,127.5); stroke-width:1; stroke:black; "  />
</g>
<g id="q1_5_21"  >
<polygon points="670,40 684.0,40 689,35.0 684.0,30 670,30 670,40 " style="fill:rgb(42.5,212.5,127.5); stroke-width:1; stroke:black; "  />
</g>
<g id="q1_5_22"  >
<polygon points="689,40 697.0,40 702,35.0 697.0,30 689,30 689,40 " style="fill:rgb(127.5,42.5,42.5); stroke-width:1; stroke:black; "  />
</g>
<g id="q1_5_23"  >
<polygon points="702,40 705,35.0 702,30 702,40 " style="fill:rgb(127.5,42.5,127.5); stroke-width:1; stroke:black; "  />
</g>
<g id="q1_5_24"  >
<polygon points="705,35.0 710.0,30 712,30 712,40 710.0,40 705,35.0 " style="fill:rgb(42.5,127.5,127.5); stroke-width:1; stroke:black; "  />
</g>
<g id="q1_5_25"  >
<polygon points="713,40 719.0,40 724,35.0 719.0,30 713,30 713,40 " style="fill:rgb(212.5,127.5,42.5); stroke-width:1; stroke:black; "  />
</g>
<g id="q1_5_26"  >
<polygon points="723,35.0 728.0,30 733,30 733,40 728.0,40 723,35.0 " style="fill:rgb(42.5,212.5,212.5); stroke-width:1; stroke:black; "  />
</g>
<g id="q1_5_27"  >
<polygon points="734,40 736.0,40 741,35.0 736.0,30 734,30 734,40 " style="fill:rgb(212.5,127.5,212.5); stroke-width:1; stroke:black; "  />
</g>
<g  >
<line x1="10" y1="85" x2="778.0" y2="85" style="stroke-width:1; stroke:grey; "  />
</g>
<g id="h1_5_0"  >
<polygon points="10,85.0 15.0,80 23,80 23,90 15.0,90 10,85.0 " style="fill:#FFFFFF; stroke-width:1; stroke:black; "  />
</g>
<g id="h1_5_1"  >
<polygon points="26,90 31.0,90 36,85.0 31.0,80 26,80 26,90 " style="fill:#FFFFFF; stroke-width:1; stroke:black; "  />
</g>
<g id="h1_5_2"  >
<polygon points="38,90 51.0,90 56,85.0 51.0,80 38,80 38,90 " style="fill:#FFFFFF; stroke-width:1; stroke:black; "  />
</g>
<g id="h1_5_3"  >
<polygon points="59,90 60.0,90 65,85.0 60.0,80 59,80 59,90 " style="fill:#FFFFFF; stroke-width:1; stroke:black; "  />
</g>
<g id="h1_5_4"  >
<polygon points="67,90 70.0,90 75,85.0 70.0,80 67,80 67,90 " style="fill:#FFFFFF; stroke-width:1; stroke:black; "  />
</g>
<g id="h1_5_5"  >
<polygon points="76,85.0 81.0,80 92,80 92,90 81.0,90 76,85.0 " style="fill:#FFFFFF; stroke-width:1; stroke:black; "  />
</g>
<g id="h1_5_6"  >
<polygon points="94,90 105.0,90 110,85.0 105.0,80 94,80 94,90 " style="fill:#FFFFFF; stroke-width:1; stroke:black; "  />
</g>
<g id="h1_5_7"  >
<polygon points="110,90 123.0,90 128,85.0 123.0,80 110,80 110,90 " style="fill:#FFFFFF; stroke-width:1; stroke:black; "  />
</g>
<g id="h1_5_8"  >
<polygon points="131,85.0 136.0,80 147,80 147,90 136.0,90 131,85.0 " style="fill:#FFFFFF; stroke-width:1; stroke:black; "  />
</g>
<g id="h1_5_9"  >
<polygon points="149,90 152,85.0 149,80 149,90 " style="fill:#FFFFFF; stroke-width:1; stroke:black; "  />
</g>
<g id="h1_5_10"  >
<polygon points="152,90 152.0,90 157,85.0 152.0,80 152,80 152,90 " style="fill:#FFFFFF; stroke-width:1; stroke:black; "  />
</g>
<g id="h1_5_11"  >
<polygon points="158,85.0 162,80 162,90 158,85.0 " style="fill:#FFFFFF; stroke-width:1; stroke:black; "  />
</g>
<g id="h1_5_12"  >
<polygon points="165,90 167.0,90 172,85.0 167.0,80 165,80 165,90 " style="fill:#FFFFFF; stroke-width:1; stroke:black; "  />
</g>
<g id="h1_5_13"  >
<polygon points="172,90 176,85.0 172,80 172,90 " style="fill:#FFFFFF; stroke-width:1; stroke:black; "  />
</g>
<g id="h1_5_14"  >
<polygon points="177,85.0 182.0,80 186,80 186,90 182.0,90 177,85.0 " style="fill:rgb(42.5,212.5,127.5); stroke-width:1; stroke:black; "  />
</g>
<g id="h1_5_15"  >
<polygon points="186,85.0 191.0,80 198,80 198,90 191.0,90 186,85.0 " style="fill:#FFFFFF; stroke-width:1; stroke:black; "  />
</g>
<g id="h1_5_16"  >
<polygon points="198,85.0 203.0,80 210,80 210,90 203.0,90 198,85.0 " style="fill:#FFFFFF; stroke-width:1; stroke:black; "  />
</g>
<g id="h1_5_17"  >
<polygon points="210,85.0 215.0,80 219,80 219,90 215.0,90 210,85.0 " style="fill:#FFFFFF; stroke-width:1; stroke:black; "  />
</g>
<g id="h1_5_18"  >
<polygon points="221,90 234.0,90 239,85.0 234.0,80 221,80 221,90 " style="fill:#FFFFFF; stroke-width:1; stroke:black; "  />
</g>
<g id="h1_5_19"  >
<polygon points="239,90 246.0,90 251,85.0 246.0,80 239,80 239,90 " style="fill:#FFFFFF; stroke-width:1; stroke:black; "  />
</g>
<g id="h1_5_20"  >
<polygon points="251,90 256.0,90 261,85.0 256.0,80 251,80 251,90 " style="fill:#FFFFFF; stroke-width:1; stroke:black; "  />
</g>
<g id="h1_5_21"  >
<polygon points="262,90 267.0,90 272,85.0 267.0,80 262,80 262,90 " style="fill:#FFFFFF; stroke-width:1; stroke:black; "  />
</g>
<g id="h1_5_22"  >
<polygon points="274,90 280.0,90 285,85.0 280.0,80 274,80 274,90 " style="fill:#FFFFFF; stroke-width:1; stroke:black; "  />
</g>
<g id="h1_5_23"  >
<polygon points="286,85.0 291.0,80 294,80 294,90 291.0,90 286,85.0 " style="fill:#FFFFFF; stroke-width:1; stroke:black; "  />
</g>
<g id="h1_5_24"  >
<polygon points="295,90 302.0,90 307,85.0 302.0,80 295,80 295,90 " style="fill:rgb(42.5,212.5,212.5); stroke-width:1; stroke:black; "  />
</g>
<g id="h1_5_25"  >
<polygon points="308,90 312,85.0 308,80 308,90 " style="fill:#FFFFFF; stroke-width:1; stroke:black; "  />
</g>
<g id="h1_5_26"  >
<polygon points="312,90 313.0,90 318,85.0 313.0,80 312,80 312,90 " style="fill:#FFFFFF; stroke-width:1; stroke:black; "  />
</g>
<g id="h1_5_27"  >
<polygon points="319,90 341.0,90 346,85.0 341.0,80 319,80 319,90 " style="fill:#FFFFFF; stroke-width:1; stroke:black; "  />
</g>
<g id="h1_5_28"  >
<polygon points="347,85.0 352.0,80 362,80 362,90 352.0,90 347,85.0 " style="fill:#FFFFFF; stroke-width:1; stroke:black; "  />
</g>
<g id="h1_5_29"  >
<polygon points="363,85.0 368.0,80 369,80 369,90 368.0,90 363,85.0 " style="fill:#FFFFFF; stroke-width:1; stroke:black; "  />
</g>
<g id="h1_5_30"  >
<polygon points="369,85.0 374.0,80 386,80 386,90 374.0,90 369,85.0 " style="fill:#FFFFFF; stroke-width:1; stroke:black; "  />
</g>
<g id="h1_5_31"  >
<polygon points="388,85.0 393.0,80 403,80 403,90 393.0,90 388,85.0 " style="fill:#FFFFFF; stroke-width:1; stroke:black; "  />
</g>
<g id="h1_5_32"  >
<polygon points="407,85.0 412.0,80 426,80 426,90 412.0,90 407,85.0 " style="fill:#FFFFFF; stroke-width:1; stroke:black; "  />
</g>
<g id="h1_5_33"  >
<polygon points="429,90 432.0,90 437,85.0 432.0,80 429,80 429,90 " style="fill:#FFFFFF; stroke-width:1; stroke:black; "  />
</g>
<g id="h1_5_34"  >
<polygon points="438,90 439.0,90 444,85.0 439.0,80 438,80 438,90 " style="fill:#FFFFFF; stroke-width:1; stroke:black; "  />
</g>
<g id="h1_5_35"  >
<polygon points="444,90 448.0,90 453,85.0 448.0,80 444,80 444,90 " style="fill:#FFFFFF; stroke-width:1; stroke:black; "  />
</g>
<g id="h1_5_36"  >
<polygon points="455,85.0 458,80 458,90 455,85.0 " style="fill:#FFFFFF; stroke-width:1; stroke:black; "  />
</g>
<g id="h1_5_37"  >
<polygon points="458,85.0 460,80 460,90 458,85.0 " style="fill:#FFFFFF; stroke-width:1; stroke:black; "  />
</g>
<g id="h1_5_38"  >
<polygon points="460,85.0 465.0,80 474,80 474,90 465.0,90 460,85.0 " style="fill:#FFFFFF; stroke-width:1; stroke:black; "  />
</g>
<g id="h1_5_39"  >
<polygon points="475,90 475.0,90 480,85.0 475.0,80 475,80 475,90 " style="fill:#FFFFFF; stroke-width:1; stroke:black; "  />
</g>
<g id="h1_5_40"  >
<polygon points="480,90 483.0,90 488,85.0 483.0,80 480,80 480,90 " style="fill:#FFFFFF; stroke-width:1; stroke:black; "  />
</g>
<g id="h1_5_41"  >
<polygon points="489,90 502.0,90 507,85.0 502.0,80 489,80 489,90 " style="fill:#FFFFFF; stroke-width:1; stroke:black; "  />
</g>
<g id="h1_5_42"  >
<polygon points="507,90 513.0,90 518,85.0 513.0,80 507,80 507,90 " style="fill:rgb(42.5,127.5,42.5); stroke-width:1; stroke:black; "  />
</g>
<g id="h1_5_43"  >
<polygon points="518,90 524.0,90 529,85.0 524.0,80 518,80 518,90 " style="fill:rgb(127.5,127.5,127.5); stroke-width:1; stroke:black; "  />
</g>
<g id="h1_5_44"  >
<polygon points="529,90 535.0,90 540,85.0 535.0,80 529,80 529,90 " style="fill:rgb(42.5,212.5,127.5); stroke-width:1; stroke:black; "  />
</g>
<g id="h1_5_45"  >
<polygon points="540,90 547.0,90 552,85.0 547.0,80 540,80 540,90 " style="fill:rgb(42.5,212.5,127.5); stroke-width:1; stroke:black; "  />
</g>
<g id="h1_5_46"  >
<polygon points="553,90 554.0,90 559,85.0 554.0,80 553,80 553,90 " style="fill:#FFFFFF; stroke-width:1; stroke:black; "  />
</g>
<g id="h1_5_47"  >
<polygon points="562,90 569.0,90 574,85.0 569.0,80 562,80 562,90 " style="fill:#FFFFFF; stroke-width:1; stroke:black; "  />
</g>
<g id="h1_5_48"  >
<polygon points="574,90 579.0,90 584,85.0 579.0,80 574,80 574,90 " style="fill:#FFFFFF; stroke-width:1; stroke:black; "  />
</g>
<g id="h1_5_49"  >
<polygon points="583,90 588.0,90 593,85.0 588.0,80 583,80 583,90 " style="fill:#FFFFFF; stroke-width:1; stroke:black; "  />
</g>
<g id="h1_5_50"  >
<polygon points="593,90 600.0,90 605,85.0 600.0,80 593,80 593,90 " style="fill:rgb(42.5,212.5,127.5); stroke-width:1; stroke:black; "  />
</g>
<g id="h1_5_51"  >
<polygon points="608,90 609.0,90 614,85.0 609.0,80 608,80 608,90 " style="fill:#FFFFFF; stroke-width:1; stroke:black; "  />
</g>
<g id="h1_5_52"  >
<polygon points="617,85.0 622.0,80 628,80 628,90 622.0,90 617,85.0 " style="fill:#FFFFFF; stroke-width:1; stroke:black; "  />
</g>
<g id="h1_5_53"  >
<polygon points="628,85.0 633.0,80 639,80 639,90 633.0,90 628,85.0 " style="fill:#FFFFFF; stroke-width:1; stroke:black; "  />
</g>
<g id="h1_5_54"  >
<polygon points="640,85.0 645.0,80 652,80 652,90 645.0,90 640,85.0 " style="fill:#FFFFFF; stroke-width:1; stroke:black; "  />
</g>
<g id="h1_5_55"  >
<polygon points="656,90 667.0,90 672,85.0 667.0,80 656,80 656,90 " style="fill:#FFFFFF; stroke-width:1; stroke:black; "  />
</g>
<g id="h1_5_56"  >
<polygon points="673,90 679.0,90 684,85.0 679.0,80 673,80 673,90 " style="fill:#FFFFFF; stroke-width:1; stroke:black; "  />
</g>
<g id="h1_5_57"  >
<polygon points="684,90 689.0,90 694,85.0 689.0,80 684,80 684,90 " style="fill:#FFFFFF; stroke-width:1; stroke:black; "  />
</g>
<g id="h1_5_58"  >
<polygon points="694,90 702.0,90 707,85.0 702.0,80 694,80 694,90 " style="fill:#FFFFFF; stroke-width:1; stroke:black; "  />
</g>
<g id="h1_5_59"  >
<polygon points="708,85.0 713.0,80 714,80 714,90 713.0,90 708,85.0 " style="fill:#FFFFFF; stroke-width:1; stroke:black; "  />
</g>
<g id="h1_5_60"  >
<polygon points="719,90 726.0,90 731,85.0 726.0,80 719,80 719,90 " style="fill:#FFFFFF; stroke-width:1; stroke:black; "  />
</g>
<g id="h1_5_61"  >
<polygon points="731,90 744.0,90 749,85.0 744.0,80 731,80 731,90 " style="fill:#FFFFFF; stroke-width:1; stroke:black; "  />
</g>
<g id="h1_5_62"  >
<polygon points="749,90 756.0,90 761,85.0 756.0,80 749,80 749,90 " style="fill:#FFFFFF; stroke-width:1; stroke:black; "  />
</g>
<g id="h1_5_63"  >
<polygon points="762,90 773.0,90 778,85.0 773.0,80 762,80 762,90 " style="fill:#FFFFFF; stroke-width:1; stroke:black; "  />
</g>
</svg>
