<svg xmlns="http://www.w3.org/2000/svg" xmlns:xlink="http://www.w3.org/1999/xlink" version="1.1" x="0" y="0" height="2770" width="768.0" viewBox="0 0 819.2 2680" preserveAspectRatio="none"  >
<g  >
<line x1="10" y1="35" x2="778.0" y2="35" style="stroke-width:1; stroke:grey; "  />
</g>
<g id="q1_38_0"  >
<polygon points="50,40 57.0,40 62,35.0 57.0,30 50,30 50,40 " style="fill:rgb(212.5,42.5,42.5); stroke-width:1; stroke:black; "  />
</g>
<g id="q1_38_1"  >
<polygon points="63,40 66.0,40 71,35.0 66.0,30 63,30 63,40 " style="fill:#FFFFFF; stroke-width:1; stroke:black; "  />
</g>
<g id="q1_38_2"  >
<polygon points="71,40 75.0,40 80,35.0 75.0,30 71,30 71,40 " style="fill:rgb(127.5,127.5,42.5); stroke-width:1; stroke:black; "  />
</g>
<g id="q1_38_3"  >
<polygon points="80,35.0 85.0,30 94,30 94,40 85.0,40 80,35.0 " style="fill:rgb(127.5,42.5,42.5); stroke-width:1; stroke:black; "  />
</g>
<g id="q1_38_4"  >
<polygon points="95,35.0 100.0,30 126,30 126,40 100.0,40 95,35.0 " style="fill:rgb(42.5,212.5,42.5); stroke-width:1; stroke:black; "  />
</g>
<g id="q1_38_5"  >
<polygon points="130,40 134.0,40 139,35.0 134.0,30 130,30 130,40 " style="fill:rgb(127.5,127.5,42.5); stroke-width:1; stroke:black; "  />
</g>
<g id="q1_38_6"  >
<polygon points="144,35.0 149.0,30 166,30 166,40 149.0,40 144,35.0 " style="fill:rgb(42.5,127.5,212.5); stroke-width:1; stroke:black; "  />
</g>
<g id="q1_38_7"  >
<polygon points="167,40 173.0,40 178,35.0 173.0,30 167,30 167,40 " style="fill:rgb(42.5,42.5,42.5); stroke-width:1; stroke:black; "  />
</g>
<g id="q1_38_8"  >
<polygon points="178,40 195.0,40 200,35.0 195.0,30 178,30 178,40 " style="fill:rgb(212.5,212.5,42.5); stroke-width:1; stroke:black; "  />
</g>
<g id="q1_38_9"  >
<polygon points="200,40 203,35.0 200,30 200,40 " style="fill:rgb(42.5,42.5,127.5); stroke-width:1; stroke:black; "  />
</g>
<g id="q1_38_10"  >
<polygon points="203,40 206.0,40 211,35.0 206.0,30 203,30 203,40 " style="fill:rgb(212.5,42.5,127.5); stroke-width:1; stroke:black; "  />
</g>
<g id="q1_38_11"  >
<polygon points="211,40 219.0,40 224,35.0 219.0,30 211,30 211,40 " style="fill:rgb(127.5,127.5,212.5); stroke-width:1; stroke:black; "  />
</g>
<g id="q1_38_12"  >
<polygon points="224,40 419.0,40 424,35.0 419.0,30 224,30 224,40 " style="fill:rgb(42.5,212.5,212.5); stroke-width:1; stroke:black; "  />
</g>
<g id="q1_38_13"  >
<polygon points="425,40 547.0,40 552,35.0 547.0,30 425,30 425,40 " style="fill:rgb(42.5,212.5,212.5); stroke-width:1; stroke:black; "  />
</g>
<g id="q1_38_14"  >
<polygon points="552,40 581.0,40 586,35.0 581.0,30 552,30 552,40 " style="fill:rgb(42.5,212.5,212.5); stroke-width:1; stroke:black; "  />
</g>
<g id="q1_38_15"  >
<polygon points="587,35.0 592.0,30 595,30 595,40 592.0,40 587,35.0 " style="fill:rgb(212.5,42.5,212.5); stroke-width:1; stroke:black; "  />
</g>
<g id="q1_38_16"  >
<polygon points="596,40 607.0,40 612,35.0 607.0,30 596,30 596,40 " style="fill:rgb(42.5,42.5,212.5); stroke-width:1; stroke:black; "  />
</g>
<g id="q1_38_17"  >
<polygon points="613,40 620.0,40 625,35.0 620.0,30 613,30 613,40 " style="fill:rgb(212.5,212.5,212.5); stroke-width:1; stroke:black; "  />
</g>
<g id="q1_38_18"  >
<polygon points="626,40 640.0,40 645,35.0 640.0,30 626,30 626,40 " style="fill:rgb(212.5,212.5,127.5); stroke-width:1; stroke:black; "  />
</g>
<g id="q1_38_19"  >
<polygon points="644,40 650.0,40 655,35.0 650.0,30 644,30 644,40 " style="fill:rgb(42.5,127.5,42.5); stroke-width:1; stroke:black; "  />
</g>
<g id="q1_38_20"  >
<polygon points="655,40 660.0,40 665,35.0 660.0,30 655,30 655,40 " style="fill:rgb(127.5,127.5,127.5); stroke-width:1; stroke:black; "  />
</g>
<g id="q1_38_21"  >
<polygon points="665,40 679.0,40 684,35.0 679.0,30 665,30 665,40 " style="fill:rgb(42.5,212.5,127.5); stroke-width:1; stroke:black; "  />
</g>
<g id="q1_38_22"  >
<polygon points="684,40 692.0,40 697,35.0 692.0,30 684,30 684,40 " style="fill:rgb(127.5,42.5,42.5); stroke-width:1; stroke:black; "  />
</g>
<g id="q1_38_23"  >
<polygon points="697,40 700,35.0 697,30 697,40 " style="fill:rgb(127.5,42.5,127.5); stroke-width:1; stroke:black; "  />
</g>
<g id="q1_38_24"  >
<polygon points="700,35.0 705.0,30 707,30 707,40 705.0,40 700,35.0 " style="fill:rgb(42.5,127.5,127.5); stroke-width:1; stroke:black; "  />
</g>
<g id="q1_38_25"  >
<polygon points="708,40 713.0,40 718,35.0 713.0,30 708,30 708,40 " style="fill:rgb(212.5,127.5,42.5); stroke-width:1; stroke:black; "  />
</g>
<g id="q1_38_26"  >
<polygon points="717,35.0 722.0,30 728,30 728,40 722.0,40 717,35.0 " style="fill:rgb(42.5,212.5,212.5); stroke-width:1; stroke:black; "  />
</g>
<g id="q1_38_27"  >
<polygon points="729,40 731.0,40 736,35.0 731.0,30 729,30 729,40 " style="fill:rgb(212.5,127.5,212.5); stroke-width:1; stroke:black; "  />
</g>
<g  >
<line x1="10" y1="85" x2="778.0" y2="85" style="stroke-width:1; stroke:grey; "  />
</g>
<g id="h1_38_0"  >
<polygon points="10,90 22.0,90 27,85.0 22.0,80 10,80 10,90 " style="fill:#FFFFFF; stroke-width:1; stroke:black; "  />
</g>
<g id="h1_38_1"  >
<polygon points="29,90 43.0,90 48,85.0 43.0,80 29,80 29,90 " style="fill:#FFFFFF; stroke-width:1; stroke:black; "  />
</g>
<g id="h1_38_2"  >
<polygon points="49,90 49.0,90 54,85.0 49.0,80 49,80 49,90 " style="fill:#FFFFFF; stroke-width:1; stroke:black; "  />
</g>
<g id="h1_38_3"  >
<polygon points="55,90 58.0,90 63,85.0 58.0,80 55,80 55,90 " style="fill:#FFFFFF; stroke-width:1; stroke:black; "  />
</g>
<g id="h1_38_4"  >
<polygon points="63,90 74.0,90 79,85.0 74.0,80 63,80 63,90 " style="fill:#FFFFFF; stroke-width:1; stroke:black; "  />
</g>
<g id="h1_38_5"  >
<polygon points="79,85.0 82,80 82,90 79,85.0 " style="fill:#FFFFFF; stroke-width:1; stroke:black; "  />
</g>
<g id="h1_38_6"  >
<polygon points="86,90 90.0,90 95,85.0 90.0,80 86,80 86,90 " style="fill:#FFFFFF; stroke-width:1; stroke:black; "  />
</g>
<g id="h1_38_7"  >
<polygon points="95,90 97,85.0 95,80 95,90 " style="fill:#FFFFFF; stroke-width:1; stroke:black; "  />
</g>
<g id="h1_38_8"  >
<polygon points="97,90 97.0,90 102,85.0 97.0,80 97,80 97,90 " style="fill:#FFFFFF; stroke-width:1; stroke:black; "  />
</g>
<g id="h1_38_9"  >
<polygon points="102,85.0 107.0,80 109,80 109,90 107.0,90 102,85.0 " style="fill:#FFFFFF; stroke-width:1; stroke:black; "  />
</g>
<g id="h1_38_10"  >
<polygon points="110,90 116.0,90 121,85.0 116.0,80 110,80 110,90 " style="fill:#FFFFFF; stroke-width:1; stroke:black; "  />
</g>
<g id="h1_38_11"  >
<polygon points="121,90 125.0,90 130,85.0 125.0,80 121,80 121,90 " style="fill:#FFFFFF; stroke-width:1; stroke:black; "  />
</g>
<g id="h1_38_12"  >
<polygon points="130,90 144.0,90 149,85.0 144.0,80 130,80 130,90 " style="fill:#FFFFFF; stroke-width:1; stroke:black; "  />
</g>
<g id="h1_38_13"  >
<polygon points="152,85.0 157.0,80 163,80 163,90 157.0,90 152,85.0 " style="fill:#FFFFFF; stroke-width:1; stroke:black; "  />
</g>
<g id="h1_38_14"  >
<polygon points="167,85.0 172.0,80 174,80 174,90 172.0,90 167,85.0 " style="fill:#FFFFFF; stroke-width:1; stroke:black; "  />
</g>
<g id="h1_38_15"  >
<polygon points="178,90 189.0,90 194,85.0 189.0,80 178,80 178,90 " style="fill:#FFFFFF; stroke-width:1; stroke:black; "  />
</g>
<g id="h1_38_16"  >
<polygon points="194,90 202.0,90 207,85.0 202.0,80 194,80 194,90 " style="fill:#FFFFFF; stroke-width:1; stroke:black; "  />
</g>
<g id="h1_38_17"  >
<polygon points="208,85.0 213.0,80 221,80 221,90 213.0,90 208,85.0 " style="fill:rgb(42.5,212.5,127.5); stroke-width:1; stroke:black; "  />
</g>
<g id="h1_38_18"  >
<polygon points="227,90 231.0,90 236,85.0 231.0,80 227,80 227,90 " style="fill:#FFFFFF; stroke-width:1; stroke:black; "  />
</g>
<g id="h1_38_19"  >
<polygon points="237,85.0 242.0,80 242,80 242,90 242.0,90 237,85.0 " style="fill:#FFFFFF; stroke-width:1; stroke:black; "  />
</g>
<g id="h1_38_20"  >
<polygon points="246,85.0 251.0,80 263,80 263,90 251.0,90 246,85.0 " style="fill:#FFFFFF; stroke-width:1; stroke:black; "  />
</g>
<g id="h1_38_21"  >
<polygon points="265,85.0 270.0,80 270,80 270,90 270.0,90 265,85.0 " style="fill:#FFFFFF; stroke-width:1; stroke:black; "  />
</g>
<g id="h1_38_22"  >
<polygon points="271,90 287.0,90 292,85.0 287.0,80 271,80 271,90 " style="fill:#FFFFFF; stroke-width:1; stroke:black; "  />
</g>
<g id="h1_38_23"  >
<polygon points="293,85.0 298.0,80 308,80 308,90 298.0,90 293,85.0 " style="fill:#FFFFFF; stroke-width:1; stroke:black; "  />
</g>
<g id="h1_38_24"  >
<polygon points="308,85.0 313.0,80 317,80 317,90 313.0,90 308,85.0 " style="fill:#FFFFFF; stroke-width:1; stroke:black; "  />
</g>
<g id="h1_38_25"  >
<polygon points="318,90 327.0,90 332,85.0 327.0,80 318,80 318,90 " style="fill:#FFFFFF; stroke-width:1; stroke:black; "  />
</g>
<g id="h1_38_26"  >
<polygon points="332,85.0 337.0,80 345,80 345,90 337.0,90 332,85.0 " style="fill:#FFFFFF; stroke-width:1; stroke:black; "  />
</g>
<g id="h1_38_27"  >
<polygon points="345,85.0 350.0,80 356,80 356,90 350.0,90 345,85.0 " style="fill:#FFFFFF; stroke-width:1; stroke:black; "  />
</g>
<g id="h1_38_28"  >
<polygon points="356,85.0 361.0,80 367,80 367,90 361.0,90 356,85.0 " style="fill:#FFFFFF; stroke-width:1; stroke:black; "  />
</g>
<g id="h1_38_29"  >
<polygon points="369,90 373.0,90 378,85.0 373.0,80 369,80 369,90 " style="fill:#FFFFFF; stroke-width:1; stroke:black; "  />
</g>
<g id="h1_38_30"  >
<polygon points="381,90 387.0,90 392,85.0 387.0,80 381,80 381,90 " style="fill:rgb(42.5,212.5,127.5); stroke-width:1; stroke:black; "  />
</g>
<g id="h1_38_31"  >
<polygon points="392,90 399.0,90 404,85.0 399.0,80 392,80 392,90 " style="fill:#FFFFFF; stroke-width:1; stroke:black; "  />
</g>
<g id="h1_38_32"  >
<polygon points="406,90 406.0,90 411,85.0 406.0,80 406,80 406,90 " style="fill:#FFFFFF; stroke-width:1; stroke:black; "  />
</g>
<g id="h1_38_33"  >
<polygon points="411,90 418.0,90 423,85.0 418.0,80 411,80 411,90 " style="fill:#FFFFFF; stroke-width:1; stroke:black; "  />
</g>
<g id="h1_38_34"  >
<polygon points="424,90 425.0,90 430,85.0 425.0,80 424,80 424,90 " style="fill:#FFFFFF; stroke-width:1; stroke:black; "  />
</g>
<g id="h1_38_35"  >
<polygon points="430,85.0 435.0,80 457,80 457,90 435.0,90 430,85.0 " style="fill:#FFFFFF; stroke-width:1; stroke:black; "  />
</g>
<g id="h1_38_36"  >
<polygon points="457,85.0 462.0,80 463,80 463,90 462.0,90 457,85.0 " style="fill:#FFFFFF; stroke-width:1; stroke:black; "  />
</g>
<g id="h1_38_37"  >
<polygon points="463,85.0 468.0,80 472,80 472,90 468.0,90 463,85.0 " style="fill:#FFFFFF; stroke-width:1; stroke:black; "  />
</g>
<g id="h1_38_38"  >
<polygon points="472,85.0 477.0,80 477,80 477,90 477.0,90 472,85.0 " style="fill:#FFFFFF; stroke-width:1; stroke:black; "  />
</g>
<g id="h1_38_39"  >
<polygon points="477,85.0 482.0,80 483,80 483,90 482.0,90 477,85.0 " style="fill:#FFFFFF; stroke-width:1; stroke:black; "  />
</g>
<g id="h1_38_40"  >
<polygon points="483,85.0 488.0,80 512,80 512,90 488.0,90 483,85.0 " style="fill:#FFFFFF; stroke-width:1; stroke:black; "  />
</g>
<g id="h1_38_41"  >
<polygon points="512,85.0 517.0,80 525,80 525,90 517.0,90 512,85.0 " style="fill:#FFFFFF; stroke-width:1; stroke:black; "  />
</g>
<g id="h1_38_42"  >
<polygon points="530,90 558.0,90 563,85.0 558.0,80 530,80 530,90 " style="fill:rgb(42.5,212.5,127.5); stroke-width:1; stroke:black; "  />
</g>
<g id="h1_38_43"  >
<polygon points="563,90 568.0,90 573,85.0 568.0,80 563,80 563,90 " style="fill:#FFFFFF; stroke-width:1; stroke:black; "  />
</g>
<g id="h1_38_44"  >
<polygon points="574,85.0 579.0,80 582,80 582,90 579.0,90 574,85.0 " style="fill:#FFFFFF; stroke-width:1; stroke:black; "  />
</g>
<g id="h1_38_45"  >
<polygon points="585,90 586.0,90 591,85.0 586.0,80 585,80 585,90 " style="fill:#FFFFFF; stroke-width:1; stroke:black; "  />
</g>
<g id="h1_38_46"  >
<polygon points="594,90 604.0,90 609,85.0 604.0,80 594,80 594,90 " style="fill:#FFFFFF; stroke-width:1; stroke:black; "  />
</g>
<g id="h1_38_47"  >
<polygon points="613,90 619.0,90 624,85.0 619.0,80 613,80 613,90 " style="fill:#FFFFFF; stroke-width:1; stroke:black; "  />
</g>
<g id="h1_38_48"  >
<polygon points="625,90 632.0,90 637,85.0 632.0,80 625,80 625,90 " style="fill:#FFFFFF; stroke-width:1; stroke:black; "  />
</g>
<g id="h1_38_49"  >
<polygon points="637,90 652.0,90 657,85.0 652.0,80 637,80 637,90 " style="fill:#FFFFFF; stroke-width:1; stroke:black; "  />
</g>
<g id="h1_38_50"  >
<polygon points="659,85.0 664.0,80 665,80 665,90 664.0,90 659,85.0 " style="fill:#FFFFFF; stroke-width:1; stroke:black; "  />
</g>
<g id="h1_38_51"  >
<polygon points="667,90 670,85.0 667,80 667,90 " style="fill:#FFFFFF; stroke-width:1; stroke:black; "  />
</g>
<g id="h1_38_52"  >
<polygon points="676,90 681.0,90 686,85.0 681.0,80 676,80 676,90 " style="fill:#FFFFFF; stroke-width:1; stroke:black; "  />
</g>
<g id="h1_38_53"  >
<polygon points="690,90 703.0,90 708,85.0 703.0,80 690,80 690,90 " style="fill:#FFFFFF; stroke-width:1; stroke:black; "  />
</g>
<g id="h1_38_54"  >
<polygon points="709,85.0 712,80 712,90 709,85.0 " style="fill:#FFFFFF; stroke-width:1; stroke:black; "  />
</g>
<g id="h1_38_55"  >
<polygon points="713,85.0 718.0,80 724,80 724,90 718.0,90 713,85.0 " style="fill:#FFFFFF; stroke-width:1; stroke:black; "  />
</g>
<g id="h1_38_56"  >
<polygon points="724,85.0 726,80 726,90 724,85.0 " style="fill:#FFFFFF; stroke-width:1; stroke:black; "  />
</g>
<g id="h1_38_57"  >
<polygon points="727,85.0 732.0,80 755,80 755,90 732.0,90 727,85.0 " style="fill:#FFFFFF; stroke-width:1; stroke:black; "  />
</g>
<g id="h1_38_58"  >
<polygon points="756,90 773.0,90 778,85.0 773.0,80 756,80 756,90 " style="fill:#FFFFFF; stroke-width:1; stroke:black; "  />
</g>
</svg>
